{
.appVersion = "116";
DisplayStrings = (
"1234567890",
"/pixel"
);
copyright = "Copyright © 2025 by Cory Chainsman.";
customParameters = (
{
name = license;
value = "SIL Open Font License (OFL) version 1.1";
}
);
date = "2025-09-22 03:10:29 +0000";
designer = "Cory Chainsman";
designerURL = corychainsman.com;
familyName = Boston;
featurePrefixes = (
{
automatic = 1;
code = "languagesystem DFLT dflt;\012languagesystem hebr dflt;\012";
name = Languagesystems;
}
);
features = (
{
automatic = 1;
code = "feature frac;\012feature ordn;\012";
name = aalt;
},
{
automatic = 1;
code = "sub one slash four by onequarter;\012sub one slash two by onehalf;\012sub three slash four by threequarters;\012";
name = frac;
},
{
automatic = 1;
code = "sub [zero one two three four five six seven eight nine] [A a]' by ordfeminine;\012sub [zero one two three four five six seven eight nine] [O o]' by ordmasculine;\012";
name = ordn;
},
{
automatic = 1;
code = "sub f i by fi;\012sub f l by fl;\012";
name = liga;
}
);
fontMaster = (
{
ascender = 1125;
capHeight = 1125;
descender = -375;
id = "FB18B4D0-91BB-452D-ABF9-2813DD21CA3B";
weightValue = 400;
widthValue = 5;
xHeight = 875;
}
);
glyphs = (
{
glyphname = A;
layers = (
{
layerId = "FB18B4D0-91BB-452D-ABF9-2813DD21CA3B";
paths = (
{
closed = 1;
nodes = (
"0 0 LINE",
"0 125 LINE",
"125 125 LINE",
"125 375 LINE",
"250 375 LINE",
"250 125 LINE",
"375 125 LINE",
"375 0 LINE"
);
},
{
closed = 1;
nodes = (
"750 0 LINE",
"750 125 LINE",
"875 125 LINE",
"875 375 LINE",
"1000 375 LINE",
"1000 125 LINE",
"1125 125 LINE",
"1125 0 LINE"
);
},
{
closed = 1;
nodes = (
"250 375 LINE",
"250 625 LINE",
"375 625 LINE",
"375 500 LINE",
"750 500 LINE",
"750 625 LINE",
"875 625 LINE",
"875 375 LINE"
);
},
{
closed = 1;
nodes = (
"375 625 LINE",
"375 875 LINE",
"500 875 LINE",
"500 625 LINE"
);
},
{
closed = 1;
nodes = (
"625 625 LINE",
"625 875 LINE",
"750 875 LINE",
"750 625 LINE"
);
},
{
closed = 1;
nodes = (
"500 875 LINE",
"500 1125 LINE",
"625 1125 LINE",
"625 875 LINE"
);
}
);
width = 1250;
}
);
note = A;
unicode = 0041;
},
{
glyphname = Aacute;
layers = (
{
layerId = "FB18B4D0-91BB-452D-ABF9-2813DD21CA3B";
paths = (
{
closed = 1;
nodes = (
"0 0 LINE",
"0 125 LINE",
"125 125 LINE",
"125 375 LINE",
"250 375 LINE",
"250 125 LINE",
"375 125 LINE",
"375 0 LINE"
);
},
{
closed = 1;
nodes = (
"750 0 LINE",
"750 125 LINE",
"875 125 LINE",
"875 375 LINE",
"1000 375 LINE",
"1000 125 LINE",
"1125 125 LINE",
"1125 0 LINE"
);
},
{
closed = 1;
nodes = (
"250 375 LINE",
"250 625 LINE",
"375 625 LINE",
"375 500 LINE",
"750 500 LINE",
"750 625 LINE",
"875 625 LINE",
"875 375 LINE"
);
},
{
closed = 1;
nodes = (
"375 625 LINE",
"375 875 LINE",
"500 875 LINE",
"500 625 LINE"
);
},
{
closed = 1;
nodes = (
"625 625 LINE",
"625 875 LINE",
"750 875 LINE",
"750 625 LINE"
);
},
{
closed = 1;
nodes = (
"500 875 LINE",
"500 1125 LINE",
"625 1125 LINE",
"625 875 LINE"
);
},
{
closed = 1;
nodes = (
"500 1250 LINE",
"500 1375 LINE",
"625 1375 LINE",
"625 1250 LINE"
);
},
{
closed = 1;
nodes = (
"625 1375 LINE",
"625 1625 LINE",
"750 1625 LINE",
"750 1375 LINE"
);
}
);
width = 1250;
}
);
note = Aacute;
unicode = 00C1;
},
{
glyphname = Acircumflex;
layers = (
{
layerId = "FB18B4D0-91BB-452D-ABF9-2813DD21CA3B";
paths = (
{
closed = 1;
nodes = (
"0 0 LINE",
"0 125 LINE",
"125 125 LINE",
"125 375 LINE",
"250 375 LINE",
"250 125 LINE",
"375 125 LINE",
"375 0 LINE"
);
},
{
closed = 1;
nodes = (
"750 0 LINE",
"750 125 LINE",
"875 125 LINE",
"875 375 LINE",
"1000 375 LINE",
"1000 125 LINE",
"1125 125 LINE",
"1125 0 LINE"
);
},
{
closed = 1;
nodes = (
"250 375 LINE",
"250 625 LINE",
"375 625 LINE",
"375 500 LINE",
"750 500 LINE",
"750 625 LINE",
"875 625 LINE",
"875 375 LINE"
);
},
{
closed = 1;
nodes = (
"375 625 LINE",
"375 875 LINE",
"500 875 LINE",
"500 625 LINE"
);
},
{
closed = 1;
nodes = (
"625 625 LINE",
"625 875 LINE",
"750 875 LINE",
"750 625 LINE"
);
},
{
closed = 1;
nodes = (
"500 875 LINE",
"500 1125 LINE",
"625 1125 LINE",
"625 875 LINE"
);
},
{
closed = 1;
nodes = (
"375 1250 LINE",
"375 1375 LINE",
"500 1375 LINE",
"500 1250 LINE"
);
},
{
closed = 1;
nodes = (
"625 1250 LINE",
"625 1375 LINE",
"750 1375 LINE",
"750 1250 LINE"
);
},
{
closed = 1;
nodes = (
"500 1375 LINE",
"500 1500 LINE",
"625 1500 LINE",
"625 1375 LINE"
);
}
);
width = 1250;
}
);
note = Acircumflex;
unicode = 00C2;
},
{
glyphname = Adieresis;
layers = (
{
layerId = "FB18B4D0-91BB-452D-ABF9-2813DD21CA3B";
paths = (
{
closed = 1;
nodes = (
"0 0 LINE",
"0 125 LINE",
"125 125 LINE",
"125 375 LINE",
"250 375 LINE",
"250 125 LINE",
"375 125 LINE",
"375 0 LINE"
);
},
{
closed = 1;
nodes = (
"750 0 LINE",
"750 125 LINE",
"875 125 LINE",
"875 375 LINE",
"1000 375 LINE",
"1000 125 LINE",
"1125 125 LINE",
"1125 0 LINE"
);
},
{
closed = 1;
nodes = (
"250 375 LINE",
"250 625 LINE",
"375 625 LINE",
"375 500 LINE",
"750 500 LINE",
"750 625 LINE",
"875 625 LINE",
"875 375 LINE"
);
},
{
closed = 1;
nodes = (
"375 625 LINE",
"375 875 LINE",
"500 875 LINE",
"500 625 LINE"
);
},
{
closed = 1;
nodes = (
"625 625 LINE",
"625 875 LINE",
"750 875 LINE",
"750 625 LINE"
);
},
{
closed = 1;
nodes = (
"500 875 LINE",
"500 1125 LINE",
"625 1125 LINE",
"625 875 LINE"
);
},
{
closed = 1;
nodes = (
"375 1250 LINE",
"375 1375 LINE",
"500 1375 LINE",
"500 1250 LINE"
);
},
{
closed = 1;
nodes = (
"625 1250 LINE",
"625 1375 LINE",
"750 1375 LINE",
"750 1250 LINE"
);
}
);
width = 1250;
}
);
note = Adieresis;
unicode = 00C4;
},
{
glyphname = Agrave;
layers = (
{
layerId = "FB18B4D0-91BB-452D-ABF9-2813DD21CA3B";
paths = (
{
closed = 1;
nodes = (
"0 0 LINE",
"0 125 LINE",
"125 125 LINE",
"125 375 LINE",
"250 375 LINE",
"250 125 LINE",
"375 125 LINE",
"375 0 LINE"
);
},
{
closed = 1;
nodes = (
"750 0 LINE",
"750 125 LINE",
"875 125 LINE",
"875 375 LINE",
"1000 375 LINE",
"1000 125 LINE",
"1125 125 LINE",
"1125 0 LINE"
);
},
{
closed = 1;
nodes = (
"250 375 LINE",
"250 625 LINE",
"375 625 LINE",
"375 500 LINE",
"750 500 LINE",
"750 625 LINE",
"875 625 LINE",
"875 375 LINE"
);
},
{
closed = 1;
nodes = (
"375 625 LINE",
"375 875 LINE",
"500 875 LINE",
"500 625 LINE"
);
},
{
closed = 1;
nodes = (
"625 625 LINE",
"625 875 LINE",
"750 875 LINE",
"750 625 LINE"
);
},
{
closed = 1;
nodes = (
"500 875 LINE",
"500 1125 LINE",
"625 1125 LINE",
"625 875 LINE"
);
},
{
closed = 1;
nodes = (
"500 1250 LINE",
"500 1375 LINE",
"625 1375 LINE",
"625 1250 LINE"
);
},
{
closed = 1;
nodes = (
"375 1375 LINE",
"375 1625 LINE",
"500 1625 LINE",
"500 1375 LINE"
);
}
);
width = 1250;
}
);
note = Agrave;
unicode = 00C0;
},
{
glyphname = Aring;
layers = (
{
layerId = "FB18B4D0-91BB-452D-ABF9-2813DD21CA3B";
paths = (
{
closed = 1;
nodes = (
"0 0 LINE",
"0 125 LINE",
"125 125 LINE",
"125 375 LINE",
"250 375 LINE",
"250 125 LINE",
"375 125 LINE",
"375 0 LINE"
);
},
{
closed = 1;
nodes = (
"750 0 LINE",
"750 125 LINE",
"875 125 LINE",
"875 375 LINE",
"1000 375 LINE",
"1000 125 LINE",
"1125 125 LINE",
"1125 0 LINE"
);
},
{
closed = 1;
nodes = (
"250 375 LINE",
"250 625 LINE",
"375 625 LINE",
"375 500 LINE",
"750 500 LINE",
"750 625 LINE",
"875 625 LINE",
"875 375 LINE"
);
},
{
closed = 1;
nodes = (
"375 625 LINE",
"375 875 LINE",
"500 875 LINE",
"500 625 LINE"
);
},
{
closed = 1;
nodes = (
"625 625 LINE",
"625 875 LINE",
"750 875 LINE",
"750 625 LINE"
);
},
{
closed = 1;
nodes = (
"500 875 LINE",
"500 1125 LINE",
"625 1125 LINE",
"625 875 LINE"
);
},
{
closed = 1;
nodes = (
"500 1250 LINE",
"500 1375 LINE",
"625 1375 LINE",
"625 1250 LINE"
);
},
{
closed = 1;
nodes = (
"375 1375 LINE",
"375 1500 LINE",
"500 1500 LINE",
"500 1375 LINE"
);
},
{
closed = 1;
nodes = (
"625 1375 LINE",
"625 1500 LINE",
"750 1500 LINE",
"750 1375 LINE"
);
},
{
closed = 1;
nodes = (
"500 1500 LINE",
"500 1625 LINE",
"625 1625 LINE",
"625 1500 LINE"
);
}
);
width = 1250;
}
);
note = Aring;
unicode = 00C5;
},
{
glyphname = Atilde;
layers = (
{
layerId = "FB18B4D0-91BB-452D-ABF9-2813DD21CA3B";
paths = (
{
closed = 1;
nodes = (
"0 0 LINE",
"0 125 LINE",
"125 125 LINE",
"125 375 LINE",
"250 375 LINE",
"250 125 LINE",
"375 125 LINE",
"375 0 LINE"
);
},
{
closed = 1;
nodes = (
"750 0 LINE",
"750 125 LINE",
"875 125 LINE",
"875 375 LINE",
"1000 375 LINE",
"1000 125 LINE",
"1125 125 LINE",
"1125 0 LINE"
);
},
{
closed = 1;
nodes = (
"250 375 LINE",
"250 625 LINE",
"375 625 LINE",
"375 500 LINE",
"750 500 LINE",
"750 625 LINE",
"875 625 LINE",
"875 375 LINE"
);
},
{
closed = 1;
nodes = (
"375 625 LINE",
"375 875 LINE",
"500 875 LINE",
"500 625 LINE"
);
},
{
closed = 1;
nodes = (
"625 625 LINE",
"625 875 LINE",
"750 875 LINE",
"750 625 LINE"
);
},
{
closed = 1;
nodes = (
"500 875 LINE",
"500 1125 LINE",
"625 1125 LINE",
"625 875 LINE"
);
},
{
closed = 1;
nodes = (
"750 1250 LINE",
"750 1375 LINE",
"875 1375 LINE",
"875 1250 LINE"
);
},
{
closed = 1;
nodes = (
"250 1250 LINE",
"250 1500 LINE",
"375 1500 LINE",
"375 1250 LINE"
);
},
{
closed = 1;
nodes = (
"625 1375 LINE",
"625 1500 LINE",
"750 1500 LINE",
"750 1375 LINE"
);
},
{
closed = 1;
nodes = (
"375 1500 LINE",
"375 1625 LINE",
"625 1625 LINE",
"625 1500 LINE"
);
},
{
closed = 1;
nodes = (
"875 1375 LINE",
"875 1625 LINE",
"1000 1625 LINE",
"1000 1375 LINE"
);
}
);
width = 1250;
}
);
note = Atilde;
unicode = 00C3;
},
{
glyphname = AE;
layers = (
{
layerId = "FB18B4D0-91BB-452D-ABF9-2813DD21CA3B";
paths = (
{
closed = 1;
nodes = (
"-125 0 LINE",
"-125 125 LINE",
"0 125 LINE",
"0 250 LINE",
"125 250 LINE",
"125 125 LINE",
"250 125 LINE",
"250 0 LINE"
);
},
{
closed = 1;
nodes = (
"250 625 LINE",
"250 875 LINE",
"375 875 LINE",
"375 625 LINE"
);
},
{
closed = 1;
nodes = (
"500 0 LINE",
"500 250 LINE",
"125 250 LINE",
"125 625 LINE",
"250 625 LINE",
"250 375 LINE",
"500 375 LINE",
"500 875 LINE",
"375 875 LINE",
"375 1000 LINE",
"250 1000 LINE",
"250 1125 LINE",
"1000 1125 LINE",
"1000 1000 LINE",
"625 1000 LINE",
"625 625 LINE",
"750 625 LINE",
"750 750 LINE",
"875 750 LINE",
"875 375 LINE",
"750 375 LINE",
"750 500 LINE",
"625 500 LINE",
"625 125 LINE",
"1000 125 LINE",
"1000 0 LINE"
);
}
);
width = 1125;
}
);
note = AE;
unicode = 00C6;
},
{
glyphname = B;
layers = (
{
layerId = "FB18B4D0-91BB-452D-ABF9-2813DD21CA3B";
paths = (
{
closed = 1;
nodes = (
"625 125 LINE",
"625 250 LINE",
"750 250 LINE",
"750 125 LINE"
);
},
{
closed = 1;
nodes = (
"750 250 LINE",
"750 500 LINE",
"875 500 LINE",
"875 250 LINE"
);
},
{
closed = 1;
nodes = (
"625 500 LINE",
"625 625 LINE",
"750 625 LINE",
"750 500 LINE"
);
},
{
closed = 1;
nodes = (
"625 750 LINE",
"625 1000 LINE",
"750 1000 LINE",
"750 750 LINE"
);
},
{
closed = 1;
nodes = (
"0 0 LINE",
"0 125 LINE",
"125 125 LINE",
"125 1000 LINE",
"0 1000 LINE",
"0 1125 LINE",
"625 1125 LINE",
"625 1000 LINE",
"250 1000 LINE",
"250 750 LINE",
"625 750 LINE",
"625 625 LINE",
"250 625 LINE",
"250 125 LINE",
"625 125 LINE",
"625 0 LINE"
);
}
);
width = 1000;
}
);
note = B;
unicode = 0042;
},
{
glyphname = C;
layers = (
{
layerId = "FB18B4D0-91BB-452D-ABF9-2813DD21CA3B";
paths = (
{
closed = 1;
nodes = (
"250 0 LINE",
"250 125 LINE",
"625 125 LINE",
"625 0 LINE"
);
},
{
closed = 1;
nodes = (
"125 125 LINE",
"125 250 LINE",
"250 250 LINE",
"250 125 LINE"
);
},
{
closed = 1;
nodes = (
"625 125 LINE",
"625 250 LINE",
"750 250 LINE",
"750 125 LINE"
);
},
{
closed = 1;
nodes = (
"0 250 LINE",
"0 875 LINE",
"125 875 LINE",
"125 250 LINE"
);
},
{
closed = 1;
nodes = (
"125 875 LINE",
"125 1000 LINE",
"250 1000 LINE",
"250 875 LINE"
);
},
{
closed = 1;
nodes = (
"625 875 LINE",
"625 1000 LINE",
"750 1000 LINE",
"750 875 LINE"
);
},
{
closed = 1;
nodes = (
"250 1000 LINE",
"250 1125 LINE",
"625 1125 LINE",
"625 1000 LINE"
);
}
);
width = 875;
}
);
note = C;
unicode = 0043;
},
{
glyphname = Ccedilla;
layers = (
{
layerId = "FB18B4D0-91BB-452D-ABF9-2813DD21CA3B";
paths = (
{
closed = 1;
nodes = (
"500 -375 LINE",
"500 -250 LINE",
"625 -250 LINE",
"625 -375 LINE"
);
},
{
closed = 1;
nodes = (
"625 -250 LINE",
"625 -125 LINE",
"750 -125 LINE",
"750 -250 LINE"
);
},
{
closed = 1;
nodes = (
"500 -125 LINE",
"500 0 LINE",
"250 0 LINE",
"250 125 LINE",
"625 125 LINE",
"625 -125 LINE"
);
},
{
closed = 1;
nodes = (
"125 125 LINE",
"125 250 LINE",
"250 250 LINE",
"250 125 LINE"
);
},
{
closed = 1;
nodes = (
"625 125 LINE",
"625 250 LINE",
"750 250 LINE",
"750 125 LINE"
);
},
{
closed = 1;
nodes = (
"0 250 LINE",
"0 875 LINE",
"125 875 LINE",
"125 250 LINE"
);
},
{
closed = 1;
nodes = (
"125 875 LINE",
"125 1000 LINE",
"250 1000 LINE",
"250 875 LINE"
);
},
{
closed = 1;
nodes = (
"625 875 LINE",
"625 1000 LINE",
"750 1000 LINE",
"750 875 LINE"
);
},
{
closed = 1;
nodes = (
"250 1000 LINE",
"250 1125 LINE",
"625 1125 LINE",
"625 1000 LINE"
);
}
);
width = 875;
}
);
note = Ccedilla;
unicode = 00C7;
},
{
glyphname = D;
layers = (
{
layerId = "FB18B4D0-91BB-452D-ABF9-2813DD21CA3B";
paths = (
{
closed = 1;
nodes = (
"625 125 LINE",
"625 250 LINE",
"750 250 LINE",
"750 125 LINE"
);
},
{
closed = 1;
nodes = (
"750 250 LINE",
"750 875 LINE",
"875 875 LINE",
"875 250 LINE"
);
},
{
closed = 1;
nodes = (
"625 875 LINE",
"625 1000 LINE",
"750 1000 LINE",
"750 875 LINE"
);
},
{
closed = 1;
nodes = (
"0 0 LINE",
"0 125 LINE",
"125 125 LINE",
"125 1000 LINE",
"0 1000 LINE",
"0 1125 LINE",
"625 1125 LINE",
"625 1000 LINE",
"250 1000 LINE",
"250 125 LINE",
"625 125 LINE",
"625 0 LINE"
);
}
);
width = 1000;
}
);
note = D;
unicode = 0044;
},
{
glyphname = Eth;
layers = (
{
layerId = "FB18B4D0-91BB-452D-ABF9-2813DD21CA3B";
paths = (
{
closed = 1;
nodes = (
"625 125 LINE",
"625 250 LINE",
"750 250 LINE",
"750 125 LINE"
);
},
{
closed = 1;
nodes = (
"750 250 LINE",
"750 875 LINE",
"875 875 LINE",
"875 250 LINE"
);
},
{
closed = 1;
nodes = (
"625 875 LINE",
"625 1000 LINE",
"750 1000 LINE",
"750 875 LINE"
);
},
{
closed = 1;
nodes = (
"0 0 LINE",
"0 125 LINE",
"125 125 LINE",
"125 500 LINE",
"0 500 LINE",
"0 625 LINE",
"125 625 LINE",
"125 1000 LINE",
"0 1000 LINE",
"0 1125 LINE",
"625 1125 LINE",
"625 1000 LINE",
"250 1000 LINE",
"250 625 LINE",
"500 625 LINE",
"500 500 LINE",
"250 500 LINE",
"250 125 LINE",
"625 125 LINE",
"625 0 LINE"
);
}
);
width = 1000;
}
);
note = Eth;
unicode = 00D0;
},
{
glyphname = E;
layers = (
{
layerId = "FB18B4D0-91BB-452D-ABF9-2813DD21CA3B";
paths = (
{
closed = 1;
nodes = (
"0 0 LINE",
"0 125 LINE",
"125 125 LINE",
"125 1000 LINE",
"0 1000 LINE",
"0 1125 LINE",
"750 1125 LINE",
"750 875 LINE",
"625 875 LINE",
"625 1000 LINE",
"250 1000 LINE",
"250 625 LINE",
"500 625 LINE",
"500 750 LINE",
"625 750 LINE",
"625 375 LINE",
"500 375 LINE",
"500 500 LINE",
"250 500 LINE",
"250 125 LINE",
"625 125 LINE",
"625 250 LINE",
"750 250 LINE",
"750 0 LINE"
);
}
);
width = 875;
}
);
note = E;
unicode = 0045;
},
{
glyphname = Eacute;
layers = (
{
layerId = "FB18B4D0-91BB-452D-ABF9-2813DD21CA3B";
paths = (
{
closed = 1;
nodes = (
"0 0 LINE",
"0 125 LINE",
"125 125 LINE",
"125 1000 LINE",
"0 1000 LINE",
"0 1125 LINE",
"750 1125 LINE",
"750 875 LINE",
"625 875 LINE",
"625 1000 LINE",
"250 1000 LINE",
"250 625 LINE",
"500 625 LINE",
"500 750 LINE",
"625 750 LINE",
"625 375 LINE",
"500 375 LINE",
"500 500 LINE",
"250 500 LINE",
"250 125 LINE",
"625 125 LINE",
"625 250 LINE",
"750 250 LINE",
"750 0 LINE"
);
},
{
closed = 1;
nodes = (
"375 1250 LINE",
"375 1375 LINE",
"500 1375 LINE",
"500 1250 LINE"
);
},
{
closed = 1;
nodes = (
"500 1375 LINE",
"500 1625 LINE",
"625 1625 LINE",
"625 1375 LINE"
);
}
);
width = 875;
}
);
note = Eacute;
unicode = 00C9;
},
{
glyphname = Ecircumflex;
layers = (
{
layerId = "FB18B4D0-91BB-452D-ABF9-2813DD21CA3B";
paths = (
{
closed = 1;
nodes = (
"0 0 LINE",
"0 125 LINE",
"125 125 LINE",
"125 1000 LINE",
"0 1000 LINE",
"0 1125 LINE",
"750 1125 LINE",
"750 875 LINE",
"625 875 LINE",
"625 1000 LINE",
"250 1000 LINE",
"250 625 LINE",
"500 625 LINE",
"500 750 LINE",
"625 750 LINE",
"625 375 LINE",
"500 375 LINE",
"500 500 LINE",
"250 500 LINE",
"250 125 LINE",
"625 125 LINE",
"625 250 LINE",
"750 250 LINE",
"750 0 LINE"
);
},
{
closed = 1;
nodes = (
"250 1250 LINE",
"250 1375 LINE",
"375 1375 LINE",
"375 1250 LINE"
);
},
{
closed = 1;
nodes = (
"500 1250 LINE",
"500 1375 LINE",
"625 1375 LINE",
"625 1250 LINE"
);
},
{
closed = 1;
nodes = (
"375 1375 LINE",
"375 1500 LINE",
"500 1500 LINE",
"500 1375 LINE"
);
}
);
width = 875;
}
);
note = Ecircumflex;
unicode = 00CA;
},
{
glyphname = Edieresis;
layers = (
{
layerId = "FB18B4D0-91BB-452D-ABF9-2813DD21CA3B";
paths = (
{
closed = 1;
nodes = (
"0 0 LINE",
"0 125 LINE",
"125 125 LINE",
"125 1000 LINE",
"0 1000 LINE",
"0 1125 LINE",
"750 1125 LINE",
"750 875 LINE",
"625 875 LINE",
"625 1000 LINE",
"250 1000 LINE",
"250 625 LINE",
"500 625 LINE",
"500 750 LINE",
"625 750 LINE",
"625 375 LINE",
"500 375 LINE",
"500 500 LINE",
"250 500 LINE",
"250 125 LINE",
"625 125 LINE",
"625 250 LINE",
"750 250 LINE",
"750 0 LINE"
);
},
{
closed = 1;
nodes = (
"250 1250 LINE",
"250 1375 LINE",
"375 1375 LINE",
"375 1250 LINE"
);
},
{
closed = 1;
nodes = (
"500 1250 LINE",
"500 1375 LINE",
"625 1375 LINE",
"625 1250 LINE"
);
}
);
width = 875;
}
);
note = Edieresis;
unicode = 00CB;
},
{
glyphname = Egrave;
layers = (
{
layerId = "FB18B4D0-91BB-452D-ABF9-2813DD21CA3B";
paths = (
{
closed = 1;
nodes = (
"0 0 LINE",
"0 125 LINE",
"125 125 LINE",
"125 1000 LINE",
"0 1000 LINE",
"0 1125 LINE",
"750 1125 LINE",
"750 875 LINE",
"625 875 LINE",
"625 1000 LINE",
"250 1000 LINE",
"250 625 LINE",
"500 625 LINE",
"500 750 LINE",
"625 750 LINE",
"625 375 LINE",
"500 375 LINE",
"500 500 LINE",
"250 500 LINE",
"250 125 LINE",
"625 125 LINE",
"625 250 LINE",
"750 250 LINE",
"750 0 LINE"
);
},
{
closed = 1;
nodes = (
"375 1250 LINE",
"375 1375 LINE",
"500 1375 LINE",
"500 1250 LINE"
);
},
{
closed = 1;
nodes = (
"250 1375 LINE",
"250 1625 LINE",
"375 1625 LINE",
"375 1375 LINE"
);
}
);
width = 875;
}
);
note = Egrave;
unicode = 00C8;
},
{
glyphname = F;
layers = (
{
layerId = "FB18B4D0-91BB-452D-ABF9-2813DD21CA3B";
paths = (
{
closed = 1;
nodes = (
"0 0 LINE",
"0 125 LINE",
"125 125 LINE",
"125 1000 LINE",
"0 1000 LINE",
"0 1125 LINE",
"750 1125 LINE",
"750 875 LINE",
"625 875 LINE",
"625 1000 LINE",
"250 1000 LINE",
"250 625 LINE",
"500 625 LINE",
"500 750 LINE",
"625 750 LINE",
"625 375 LINE",
"500 375 LINE",
"500 500 LINE",
"250 500 LINE",
"250 125 LINE",
"375 125 LINE",
"375 0 LINE"
);
}
);
width = 875;
}
);
note = F;
unicode = 0046;
},
{
glyphname = G;
layers = (
{
layerId = "FB18B4D0-91BB-452D-ABF9-2813DD21CA3B";
paths = (
{
closed = 1;
nodes = (
"250 0 LINE",
"250 125 LINE",
"625 125 LINE",
"625 0 LINE"
);
},
{
closed = 1;
nodes = (
"125 125 LINE",
"125 250 LINE",
"250 250 LINE",
"250 125 LINE"
);
},
{
closed = 1;
nodes = (
"625 125 LINE",
"625 500 LINE",
"500 500 LINE",
"500 625 LINE",
"875 625 LINE",
"875 500 LINE",
"750 500 LINE",
"750 125 LINE"
);
},
{
closed = 1;
nodes = (
"0 250 LINE",
"0 875 LINE",
"125 875 LINE",
"125 250 LINE"
);
},
{
closed = 1;
nodes = (
"125 875 LINE",
"125 1000 LINE",
"250 1000 LINE",
"250 875 LINE"
);
},
{
closed = 1;
nodes = (
"625 875 LINE",
"625 1000 LINE",
"250 1000 LINE",
"250 1125 LINE",
"750 1125 LINE",
"750 875 LINE"
);
}
);
width = 1000;
}
);
note = G;
unicode = 0047;
},
{
glyphname = H;
layers = (
{
layerId = "FB18B4D0-91BB-452D-ABF9-2813DD21CA3B";
paths = (
{
closed = 1;
nodes = (
"0 0 LINE",
"0 125 LINE",
"125 125 LINE",
"125 1000 LINE",
"0 1000 LINE",
"0 1125 LINE",
"375 1125 LINE",
"375 1000 LINE",
"250 1000 LINE",
"250 625 LINE",
"625 625 LINE",
"625 1000 LINE",
"500 1000 LINE",
"500 1125 LINE",
"875 1125 LINE",
"875 1000 LINE",
"750 1000 LINE",
"750 125 LINE",
"875 125 LINE",
"875 0 LINE",
"500 0 LINE",
"500 125 LINE",
"625 125 LINE",
"625 500 LINE",
"250 500 LINE",
"250 125 LINE",
"375 125 LINE",
"375 0 LINE"
);
}
);
width = 1000;
}
);
note = H;
unicode = 0048;
},
{
glyphname = I;
layers = (
{
layerId = "FB18B4D0-91BB-452D-ABF9-2813DD21CA3B";
paths = (
{
closed = 1;
nodes = (
"0 0 LINE",
"0 125 LINE",
"125 125 LINE",
"125 1000 LINE",
"0 1000 LINE",
"0 1125 LINE",
"375 1125 LINE",
"375 1000 LINE",
"250 1000 LINE",
"250 125 LINE",
"375 125 LINE",
"375 0 LINE"
);
}
);
width = 500;
}
);
note = I;
unicode = 0049;
},
{
glyphname = Iacute;
layers = (
{
layerId = "FB18B4D0-91BB-452D-ABF9-2813DD21CA3B";
paths = (
{
closed = 1;
nodes = (
"0 0 LINE",
"0 125 LINE",
"125 125 LINE",
"125 1000 LINE",
"0 1000 LINE",
"0 1125 LINE",
"375 1125 LINE",
"375 1000 LINE",
"250 1000 LINE",
"250 125 LINE",
"375 125 LINE",
"375 0 LINE"
);
},
{
closed = 1;
nodes = (
"125 1250 LINE",
"125 1375 LINE",
"250 1375 LINE",
"250 1250 LINE"
);
},
{
closed = 1;
nodes = (
"250 1375 LINE",
"250 1625 LINE",
"375 1625 LINE",
"375 1375 LINE"
);
}
);
width = 500;
}
);
note = Iacute;
unicode = 00CD;
},
{
glyphname = Icircumflex;
layers = (
{
layerId = "FB18B4D0-91BB-452D-ABF9-2813DD21CA3B";
paths = (
{
closed = 1;
nodes = (
"0 0 LINE",
"0 125 LINE",
"125 125 LINE",
"125 1000 LINE",
"0 1000 LINE",
"0 1125 LINE",
"375 1125 LINE",
"375 1000 LINE",
"250 1000 LINE",
"250 125 LINE",
"375 125 LINE",
"375 0 LINE"
);
},
{
closed = 1;
nodes = (
"0 1250 LINE",
"0 1375 LINE",
"125 1375 LINE",
"125 1250 LINE"
);
},
{
closed = 1;
nodes = (
"250 1250 LINE",
"250 1375 LINE",
"375 1375 LINE",
"375 1250 LINE"
);
},
{
closed = 1;
nodes = (
"125 1375 LINE",
"125 1500 LINE",
"250 1500 LINE",
"250 1375 LINE"
);
}
);
width = 500;
}
);
note = Icircumflex;
unicode = 00CE;
},
{
glyphname = Idieresis;
layers = (
{
layerId = "FB18B4D0-91BB-452D-ABF9-2813DD21CA3B";
paths = (
{
closed = 1;
nodes = (
"0 0 LINE",
"0 125 LINE",
"125 125 LINE",
"125 1000 LINE",
"0 1000 LINE",
"0 1125 LINE",
"375 1125 LINE",
"375 1000 LINE",
"250 1000 LINE",
"250 125 LINE",
"375 125 LINE",
"375 0 LINE"
);
},
{
closed = 1;
nodes = (
"0 1250 LINE",
"0 1375 LINE",
"125 1375 LINE",
"125 1250 LINE"
);
},
{
closed = 1;
nodes = (
"250 1250 LINE",
"250 1375 LINE",
"375 1375 LINE",
"375 1250 LINE"
);
}
);
width = 500;
}
);
note = Idieresis;
unicode = 00CF;
},
{
glyphname = Igrave;
layers = (
{
layerId = "FB18B4D0-91BB-452D-ABF9-2813DD21CA3B";
paths = (
{
closed = 1;
nodes = (
"0 0 LINE",
"0 125 LINE",
"125 125 LINE",
"125 1000 LINE",
"0 1000 LINE",
"0 1125 LINE",
"375 1125 LINE",
"375 1000 LINE",
"250 1000 LINE",
"250 125 LINE",
"375 125 LINE",
"375 0 LINE"
);
},
{
closed = 1;
nodes = (
"125 1250 LINE",
"125 1375 LINE",
"250 1375 LINE",
"250 1250 LINE"
);
},
{
closed = 1;
nodes = (
"0 1375 LINE",
"0 1625 LINE",
"125 1625 LINE",
"125 1375 LINE"
);
}
);
width = 500;
}
);
note = Igrave;
unicode = 00CC;
},
{
glyphname = J;
layers = (
{
layerId = "FB18B4D0-91BB-452D-ABF9-2813DD21CA3B";
paths = (
{
closed = 1;
nodes = (
"0 -250 LINE",
"0 -125 LINE",
"250 -125 LINE",
"250 -250 LINE"
);
},
{
closed = 1;
nodes = (
"250 -125 LINE",
"250 1000 LINE",
"125 1000 LINE",
"125 1125 LINE",
"500 1125 LINE",
"500 1000 LINE",
"375 1000 LINE",
"375 -125 LINE"
);
}
);
width = 625;
}
);
note = J;
unicode = 004A;
},
{
glyphname = K;
layers = (
{
layerId = "FB18B4D0-91BB-452D-ABF9-2813DD21CA3B";
paths = (
{
closed = 1;
nodes = (
"500 0 LINE",
"500 125 LINE",
"625 125 LINE",
"625 250 LINE",
"750 250 LINE",
"750 125 LINE",
"875 125 LINE",
"875 0 LINE"
);
},
{
closed = 1;
nodes = (
"500 250 LINE",
"500 375 LINE",
"625 375 LINE",
"625 250 LINE"
);
},
{
closed = 1;
nodes = (
"375 375 LINE",
"375 500 LINE",
"500 500 LINE",
"500 375 LINE"
);
},
{
closed = 1;
nodes = (
"375 625 LINE",
"375 750 LINE",
"500 750 LINE",
"500 625 LINE"
);
},
{
closed = 1;
nodes = (
"500 750 LINE",
"500 875 LINE",
"625 875 LINE",
"625 750 LINE"
);
},
{
closed = 1;
nodes = (
"0 0 LINE",
"0 125 LINE",
"125 125 LINE",
"125 1000 LINE",
"0 1000 LINE",
"0 1125 LINE",
"375 1125 LINE",
"375 1000 LINE",
"250 1000 LINE",
"250 625 LINE",
"375 625 LINE",
"375 500 LINE",
"250 500 LINE",
"250 125 LINE",
"375 125 LINE",
"375 0 LINE"
);
},
{
closed = 1;
nodes = (
"625 875 LINE",
"625 1000 LINE",
"500 1000 LINE",
"500 1125 LINE",
"875 1125 LINE",
"875 1000 LINE",
"750 1000 LINE",
"750 875 LINE"
);
}
);
width = 1000;
}
);
note = K;
unicode = 004B;
},
{
glyphname = L;
layers = (
{
layerId = "FB18B4D0-91BB-452D-ABF9-2813DD21CA3B";
paths = (
{
closed = 1;
nodes = (
"0 0 LINE",
"0 125 LINE",
"125 125 LINE",
"125 1000 LINE",
"0 1000 LINE",
"0 1125 LINE",
"375 1125 LINE",
"375 1000 LINE",
"250 1000 LINE",
"250 125 LINE",
"625 125 LINE",
"625 250 LINE",
"750 250 LINE",
"750 0 LINE"
);
}
);
width = 875;
}
);
note = L;
unicode = 004C;
},
{
glyphname = M;
layers = (
{
layerId = "FB18B4D0-91BB-452D-ABF9-2813DD21CA3B";
paths = (
{
closed = 1;
nodes = (
"625 0 LINE",
"625 250 LINE",
"750 250 LINE",
"750 0 LINE"
);
},
{
closed = 1;
nodes = (
"500 250 LINE",
"500 500 LINE",
"625 500 LINE",
"625 250 LINE"
);
},
{
closed = 1;
nodes = (
"750 250 LINE",
"750 500 LINE",
"875 500 LINE",
"875 250 LINE"
);
},
{
closed = 1;
nodes = (
"375 500 LINE",
"375 750 LINE",
"500 750 LINE",
"500 500 LINE"
);
},
{
closed = 1;
nodes = (
"875 500 LINE",
"875 750 LINE",
"1000 750 LINE",
"1000 500 LINE"
);
},
{
closed = 1;
nodes = (
"0 0 LINE",
"0 125 LINE",
"125 125 LINE",
"125 1000 LINE",
"0 1000 LINE",
"0 1125 LINE",
"375 1125 LINE",
"375 750 LINE",
"250 750 LINE",
"250 125 LINE",
"375 125 LINE",
"375 0 LINE"
);
},
{
closed = 1;
nodes = (
"1000 0 LINE",
"1000 125 LINE",
"1125 125 LINE",
"1125 750 LINE",
"1000 750 LINE",
"1000 1125 LINE",
"1375 1125 LINE",
"1375 1000 LINE",
"1250 1000 LINE",
"1250 125 LINE",
"1375 125 LINE",
"1375 0 LINE"
);
}
);
width = 1500;
}
);
note = M;
unicode = 004D;
},
{
glyphname = N;
layers = (
{
layerId = "FB18B4D0-91BB-452D-ABF9-2813DD21CA3B";
paths = (
{
closed = 1;
nodes = (
"500 375 LINE",
"500 625 LINE",
"625 625 LINE",
"625 375 LINE"
);
},
{
closed = 1;
nodes = (
"375 625 LINE",
"375 875 LINE",
"500 875 LINE",
"500 625 LINE"
);
},
{
closed = 1;
nodes = (
"0 0 LINE",
"0 125 LINE",
"125 125 LINE",
"125 1000 LINE",
"0 1000 LINE",
"0 1125 LINE",
"375 1125 LINE",
"375 875 LINE",
"250 875 LINE",
"250 125 LINE",
"375 125 LINE",
"375 0 LINE"
);
},
{
closed = 1;
nodes = (
"750 0 LINE",
"750 125 LINE",
"625 125 LINE",
"625 375 LINE",
"750 375 LINE",
"750 1000 LINE",
"625 1000 LINE",
"625 1125 LINE",
"1000 1125 LINE",
"1000 1000 LINE",
"875 1000 LINE",
"875 0 LINE"
);
}
);
width = 1125;
}
);
note = N;
unicode = 004E;
},
{
glyphname = Ntilde;
layers = (
{
layerId = "FB18B4D0-91BB-452D-ABF9-2813DD21CA3B";
paths = (
{
closed = 1;
nodes = (
"500 375 LINE",
"500 625 LINE",
"625 625 LINE",
"625 375 LINE"
);
},
{
closed = 1;
nodes = (
"375 625 LINE",
"375 875 LINE",
"500 875 LINE",
"500 625 LINE"
);
},
{
closed = 1;
nodes = (
"0 0 LINE",
"0 125 LINE",
"125 125 LINE",
"125 1000 LINE",
"0 1000 LINE",
"0 1125 LINE",
"375 1125 LINE",
"375 875 LINE",
"250 875 LINE",
"250 125 LINE",
"375 125 LINE",
"375 0 LINE"
);
},
{
closed = 1;
nodes = (
"750 0 LINE",
"750 125 LINE",
"625 125 LINE",
"625 375 LINE",
"750 375 LINE",
"750 1000 LINE",
"625 1000 LINE",
"625 1125 LINE",
"1000 1125 LINE",
"1000 1000 LINE",
"875 1000 LINE",
"875 0 LINE"
);
},
{
closed = 1;
nodes = (
"625 1250 LINE",
"625 1375 LINE",
"750 1375 LINE",
"750 1250 LINE"
);
},
{
closed = 1;
nodes = (
"125 1250 LINE",
"125 1500 LINE",
"250 1500 LINE",
"250 1250 LINE"
);
},
{
closed = 1;
nodes = (
"500 1375 LINE",
"500 1500 LINE",
"625 1500 LINE",
"625 1375 LINE"
);
},
{
closed = 1;
nodes = (
"250 1500 LINE",
"250 1625 LINE",
"500 1625 LINE",
"500 1500 LINE"
);
},
{
closed = 1;
nodes = (
"750 1375 LINE",
"750 1625 LINE",
"875 1625 LINE",
"875 1375 LINE"
);
}
);
width = 1125;
}
);
note = Ntilde;
unicode = 00D1;
},
{
glyphname = O;
layers = (
{
layerId = "FB18B4D0-91BB-452D-ABF9-2813DD21CA3B";
paths = (
{
closed = 1;
nodes = (
"250 0 LINE",
"250 125 LINE",
"625 125 LINE",
"625 0 LINE"
);
},
{
closed = 1;
nodes = (
"125 125 LINE",
"125 250 LINE",
"250 250 LINE",
"250 125 LINE"
);
},
{
closed = 1;
nodes = (
"625 125 LINE",
"625 250 LINE",
"750 250 LINE",
"750 125 LINE"
);
},
{
closed = 1;
nodes = (
"0 250 LINE",
"0 875 LINE",
"125 875 LINE",
"125 250 LINE"
);
},
{
closed = 1;
nodes = (
"750 250 LINE",
"750 875 LINE",
"875 875 LINE",
"875 250 LINE"
);
},
{
closed = 1;
nodes = (
"125 875 LINE",
"125 1000 LINE",
"250 1000 LINE",
"250 875 LINE"
);
},
{
closed = 1;
nodes = (
"625 875 LINE",
"625 1000 LINE",
"750 1000 LINE",
"750 875 LINE"
);
},
{
closed = 1;
nodes = (
"250 1000 LINE",
"250 1125 LINE",
"625 1125 LINE",
"625 1000 LINE"
);
}
);
width = 1000;
}
);
note = O;
unicode = 004F;
},
{
glyphname = Oacute;
layers = (
{
layerId = "FB18B4D0-91BB-452D-ABF9-2813DD21CA3B";
paths = (
{
closed = 1;
nodes = (
"250 0 LINE",
"250 125 LINE",
"625 125 LINE",
"625 0 LINE"
);
},
{
closed = 1;
nodes = (
"125 125 LINE",
"125 250 LINE",
"250 250 LINE",
"250 125 LINE"
);
},
{
closed = 1;
nodes = (
"625 125 LINE",
"625 250 LINE",
"750 250 LINE",
"750 125 LINE"
);
},
{
closed = 1;
nodes = (
"0 250 LINE",
"0 875 LINE",
"125 875 LINE",
"125 250 LINE"
);
},
{
closed = 1;
nodes = (
"750 250 LINE",
"750 875 LINE",
"875 875 LINE",
"875 250 LINE"
);
},
{
closed = 1;
nodes = (
"125 875 LINE",
"125 1000 LINE",
"250 1000 LINE",
"250 875 LINE"
);
},
{
closed = 1;
nodes = (
"625 875 LINE",
"625 1000 LINE",
"750 1000 LINE",
"750 875 LINE"
);
},
{
closed = 1;
nodes = (
"250 1000 LINE",
"250 1125 LINE",
"625 1125 LINE",
"625 1000 LINE"
);
},
{
closed = 1;
nodes = (
"375 1250 LINE",
"375 1375 LINE",
"500 1375 LINE",
"500 1250 LINE"
);
},
{
closed = 1;
nodes = (
"500 1375 LINE",
"500 1625 LINE",
"625 1625 LINE",
"625 1375 LINE"
);
}
);
width = 1000;
}
);
note = Oacute;
unicode = 00D3;
},
{
glyphname = Ocircumflex;
layers = (
{
layerId = "FB18B4D0-91BB-452D-ABF9-2813DD21CA3B";
paths = (
{
closed = 1;
nodes = (
"250 0 LINE",
"250 125 LINE",
"625 125 LINE",
"625 0 LINE"
);
},
{
closed = 1;
nodes = (
"125 125 LINE",
"125 250 LINE",
"250 250 LINE",
"250 125 LINE"
);
},
{
closed = 1;
nodes = (
"625 125 LINE",
"625 250 LINE",
"750 250 LINE",
"750 125 LINE"
);
},
{
closed = 1;
nodes = (
"0 250 LINE",
"0 875 LINE",
"125 875 LINE",
"125 250 LINE"
);
},
{
closed = 1;
nodes = (
"750 250 LINE",
"750 875 LINE",
"875 875 LINE",
"875 250 LINE"
);
},
{
closed = 1;
nodes = (
"125 875 LINE",
"125 1000 LINE",
"250 1000 LINE",
"250 875 LINE"
);
},
{
closed = 1;
nodes = (
"625 875 LINE",
"625 1000 LINE",
"750 1000 LINE",
"750 875 LINE"
);
},
{
closed = 1;
nodes = (
"250 1000 LINE",
"250 1125 LINE",
"625 1125 LINE",
"625 1000 LINE"
);
},
{
closed = 1;
nodes = (
"250 1250 LINE",
"250 1375 LINE",
"375 1375 LINE",
"375 1250 LINE"
);
},
{
closed = 1;
nodes = (
"500 1250 LINE",
"500 1375 LINE",
"625 1375 LINE",
"625 1250 LINE"
);
},
{
closed = 1;
nodes = (
"375 1375 LINE",
"375 1500 LINE",
"500 1500 LINE",
"500 1375 LINE"
);
}
);
width = 1000;
}
);
note = Ocircumflex;
unicode = 00D4;
},
{
glyphname = Odieresis;
layers = (
{
layerId = "FB18B4D0-91BB-452D-ABF9-2813DD21CA3B";
paths = (
{
closed = 1;
nodes = (
"250 0 LINE",
"250 125 LINE",
"625 125 LINE",
"625 0 LINE"
);
},
{
closed = 1;
nodes = (
"125 125 LINE",
"125 250 LINE",
"250 250 LINE",
"250 125 LINE"
);
},
{
closed = 1;
nodes = (
"625 125 LINE",
"625 250 LINE",
"750 250 LINE",
"750 125 LINE"
);
},
{
closed = 1;
nodes = (
"0 250 LINE",
"0 875 LINE",
"125 875 LINE",
"125 250 LINE"
);
},
{
closed = 1;
nodes = (
"750 250 LINE",
"750 875 LINE",
"875 875 LINE",
"875 250 LINE"
);
},
{
closed = 1;
nodes = (
"125 875 LINE",
"125 1000 LINE",
"250 1000 LINE",
"250 875 LINE"
);
},
{
closed = 1;
nodes = (
"625 875 LINE",
"625 1000 LINE",
"750 1000 LINE",
"750 875 LINE"
);
},
{
closed = 1;
nodes = (
"250 1000 LINE",
"250 1125 LINE",
"625 1125 LINE",
"625 1000 LINE"
);
},
{
closed = 1;
nodes = (
"250 1250 LINE",
"250 1375 LINE",
"375 1375 LINE",
"375 1250 LINE"
);
},
{
closed = 1;
nodes = (
"500 1250 LINE",
"500 1375 LINE",
"625 1375 LINE",
"625 1250 LINE"
);
}
);
width = 1000;
}
);
note = Odieresis;
unicode = 00D6;
},
{
glyphname = Ograve;
layers = (
{
layerId = "FB18B4D0-91BB-452D-ABF9-2813DD21CA3B";
paths = (
{
closed = 1;
nodes = (
"250 0 LINE",
"250 125 LINE",
"625 125 LINE",
"625 0 LINE"
);
},
{
closed = 1;
nodes = (
"125 125 LINE",
"125 250 LINE",
"250 250 LINE",
"250 125 LINE"
);
},
{
closed = 1;
nodes = (
"625 125 LINE",
"625 250 LINE",
"750 250 LINE",
"750 125 LINE"
);
},
{
closed = 1;
nodes = (
"0 250 LINE",
"0 875 LINE",
"125 875 LINE",
"125 250 LINE"
);
},
{
closed = 1;
nodes = (
"750 250 LINE",
"750 875 LINE",
"875 875 LINE",
"875 250 LINE"
);
},
{
closed = 1;
nodes = (
"125 875 LINE",
"125 1000 LINE",
"250 1000 LINE",
"250 875 LINE"
);
},
{
closed = 1;
nodes = (
"625 875 LINE",
"625 1000 LINE",
"750 1000 LINE",
"750 875 LINE"
);
},
{
closed = 1;
nodes = (
"250 1000 LINE",
"250 1125 LINE",
"625 1125 LINE",
"625 1000 LINE"
);
},
{
closed = 1;
nodes = (
"375 1250 LINE",
"375 1375 LINE",
"500 1375 LINE",
"500 1250 LINE"
);
},
{
closed = 1;
nodes = (
"250 1375 LINE",
"250 1625 LINE",
"375 1625 LINE",
"375 1375 LINE"
);
}
);
width = 1000;
}
);
note = Ograve;
unicode = 00D2;
},
{
glyphname = Oslash;
layers = (
{
layerId = "FB18B4D0-91BB-452D-ABF9-2813DD21CA3B";
paths = (
{
closed = 1;
nodes = (
"0 0 LINE",
"0 125 LINE",
"125 125 LINE",
"125 0 LINE"
);
},
{
closed = 1;
nodes = (
"250 0 LINE",
"250 125 LINE",
"625 125 LINE",
"625 0 LINE"
);
},
{
closed = 1;
nodes = (
"125 125 LINE",
"125 250 LINE",
"250 250 LINE",
"250 125 LINE"
);
},
{
closed = 1;
nodes = (
"625 125 LINE",
"625 250 LINE",
"750 250 LINE",
"750 125 LINE"
);
},
{
closed = 1;
nodes = (
"250 250 LINE",
"250 375 LINE",
"375 375 LINE",
"375 250 LINE"
);
},
{
closed = 1;
nodes = (
"375 375 LINE",
"375 625 LINE",
"500 625 LINE",
"500 375 LINE"
);
},
{
closed = 1;
nodes = (
"500 625 LINE",
"500 750 LINE",
"625 750 LINE",
"625 625 LINE"
);
},
{
closed = 1;
nodes = (
"0 250 LINE",
"0 875 LINE",
"125 875 LINE",
"125 250 LINE"
);
},
{
closed = 1;
nodes = (
"125 875 LINE",
"125 1000 LINE",
"250 1000 LINE",
"250 875 LINE"
);
},
{
closed = 1;
nodes = (
"750 250 LINE",
"750 750 LINE",
"625 750 LINE",
"625 1000 LINE",
"875 1000 LINE",
"875 250 LINE"
);
},
{
closed = 1;
nodes = (
"250 1000 LINE",
"250 1125 LINE",
"625 1125 LINE",
"625 1000 LINE"
);
},
{
closed = 1;
nodes = (
"875 1000 LINE",
"875 1125 LINE",
"1000 1125 LINE",
"1000 1000 LINE"
);
}
);
width = 1125;
}
);
note = Oslash;
unicode = 00D8;
},
{
glyphname = Otilde;
layers = (
{
layerId = "FB18B4D0-91BB-452D-ABF9-2813DD21CA3B";
paths = (
{
closed = 1;
nodes = (
"250 0 LINE",
"250 125 LINE",
"625 125 LINE",
"625 0 LINE"
);
},
{
closed = 1;
nodes = (
"125 125 LINE",
"125 250 LINE",
"250 250 LINE",
"250 125 LINE"
);
},
{
closed = 1;
nodes = (
"625 125 LINE",
"625 250 LINE",
"750 250 LINE",
"750 125 LINE"
);
},
{
closed = 1;
nodes = (
"0 250 LINE",
"0 875 LINE",
"125 875 LINE",
"125 250 LINE"
);
},
{
closed = 1;
nodes = (
"750 250 LINE",
"750 875 LINE",
"875 875 LINE",
"875 250 LINE"
);
},
{
closed = 1;
nodes = (
"125 875 LINE",
"125 1000 LINE",
"250 1000 LINE",
"250 875 LINE"
);
},
{
closed = 1;
nodes = (
"625 875 LINE",
"625 1000 LINE",
"750 1000 LINE",
"750 875 LINE"
);
},
{
closed = 1;
nodes = (
"250 1000 LINE",
"250 1125 LINE",
"625 1125 LINE",
"625 1000 LINE"
);
},
{
closed = 1;
nodes = (
"625 1250 LINE",
"625 1375 LINE",
"750 1375 LINE",
"750 1250 LINE"
);
},
{
closed = 1;
nodes = (
"125 1250 LINE",
"125 1500 LINE",
"250 1500 LINE",
"250 1250 LINE"
);
},
{
closed = 1;
nodes = (
"500 1375 LINE",
"500 1500 LINE",
"625 1500 LINE",
"625 1375 LINE"
);
},
{
closed = 1;
nodes = (
"250 1500 LINE",
"250 1625 LINE",
"500 1625 LINE",
"500 1500 LINE"
);
},
{
closed = 1;
nodes = (
"750 1375 LINE",
"750 1625 LINE",
"875 1625 LINE",
"875 1375 LINE"
);
}
);
width = 1000;
}
);
note = Otilde;
unicode = 00D5;
},
{
glyphname = P;
layers = (
{
layerId = "FB18B4D0-91BB-452D-ABF9-2813DD21CA3B";
paths = (
{
closed = 1;
nodes = (
"625 500 LINE",
"625 625 LINE",
"750 625 LINE",
"750 500 LINE"
);
},
{
closed = 1;
nodes = (
"750 625 LINE",
"750 875 LINE",
"875 875 LINE",
"875 625 LINE"
);
},
{
closed = 1;
nodes = (
"625 875 LINE",
"625 1000 LINE",
"750 1000 LINE",
"750 875 LINE"
);
},
{
closed = 1;
nodes = (
"0 0 LINE",
"0 125 LINE",
"125 125 LINE",
"125 1000 LINE",
"0 1000 LINE",
"0 1125 LINE",
"625 1125 LINE",
"625 1000 LINE",
"250 1000 LINE",
"250 500 LINE",
"625 500 LINE",
"625 375 LINE",
"250 375 LINE",
"250 125 LINE",
"375 125 LINE",
"375 0 LINE"
);
}
);
width = 1000;
}
);
note = P;
unicode = 0050;
},
{
glyphname = Thorn;
layers = (
{
layerId = "FB18B4D0-91BB-452D-ABF9-2813DD21CA3B";
paths = (
{
closed = 1;
nodes = (
"625 250 LINE",
"625 625 LINE",
"750 625 LINE",
"750 250 LINE"
);
},
{
closed = 1;
nodes = (
"0 0 LINE",
"0 875 LINE",
"125 875 LINE",
"125 750 LINE",
"625 750 LINE",
"625 625 LINE",
"125 625 LINE",
"125 250 LINE",
"625 250 LINE",
"625 125 LINE",
"125 125 LINE",
"125 0 LINE"
);
}
);
width = 875;
}
);
note = Thorn;
unicode = 00DE;
},
{
glyphname = Q;
layers = (
{
layerId = "FB18B4D0-91BB-452D-ABF9-2813DD21CA3B";
paths = (
{
closed = 1;
nodes = (
"500 -250 LINE",
"500 -125 LINE",
"750 -125 LINE",
"750 -250 LINE"
);
},
{
closed = 1;
nodes = (
"375 -125 LINE",
"375 0 LINE",
"250 0 LINE",
"250 125 LINE",
"625 125 LINE",
"625 0 LINE",
"500 0 LINE",
"500 -125 LINE"
);
},
{
closed = 1;
nodes = (
"125 125 LINE",
"125 250 LINE",
"250 250 LINE",
"250 125 LINE"
);
},
{
closed = 1;
nodes = (
"625 125 LINE",
"625 250 LINE",
"750 250 LINE",
"750 125 LINE"
);
},
{
closed = 1;
nodes = (
"0 250 LINE",
"0 875 LINE",
"125 875 LINE",
"125 250 LINE"
);
},
{
closed = 1;
nodes = (
"750 250 LINE",
"750 875 LINE",
"875 875 LINE",
"875 250 LINE"
);
},
{
closed = 1;
nodes = (
"125 875 LINE",
"125 1000 LINE",
"250 1000 LINE",
"250 875 LINE"
);
},
{
closed = 1;
nodes = (
"625 875 LINE",
"625 1000 LINE",
"750 1000 LINE",
"750 875 LINE"
);
},
{
closed = 1;
nodes = (
"250 1000 LINE",
"250 1125 LINE",
"625 1125 LINE",
"625 1000 LINE"
);
}
);
width = 1000;
}
);
note = Q;
unicode = 0051;
},
{
glyphname = R;
layers = (
{
layerId = "FB18B4D0-91BB-452D-ABF9-2813DD21CA3B";
paths = (
{
closed = 1;
nodes = (
"625 0 LINE",
"625 250 LINE",
"750 250 LINE",
"750 125 LINE",
"875 125 LINE",
"875 0 LINE"
);
},
{
closed = 1;
nodes = (
"500 250 LINE",
"500 375 LINE",
"625 375 LINE",
"625 250 LINE"
);
},
{
closed = 1;
nodes = (
"625 625 LINE",
"625 1000 LINE",
"750 1000 LINE",
"750 625 LINE"
);
},
{
closed = 1;
nodes = (
"0 0 LINE",
"0 125 LINE",
"125 125 LINE",
"125 1000 LINE",
"0 1000 LINE",
"0 1125 LINE",
"625 1125 LINE",
"625 1000 LINE",
"250 1000 LINE",
"250 625 LINE",
"625 625 LINE",
"625 500 LINE",
"500 500 LINE",
"500 375 LINE",
"375 375 LINE",
"375 500 LINE",
"250 500 LINE",
"250 125 LINE",
"375 125 LINE",
"375 0 LINE"
);
}
);
width = 1000;
}
);
note = R;
unicode = 0052;
},
{
glyphname = S;
layers = (
{
layerId = "FB18B4D0-91BB-452D-ABF9-2813DD21CA3B";
paths = (
{
closed = 1;
nodes = (
"0 0 LINE",
"0 250 LINE",
"125 250 LINE",
"125 125 LINE",
"500 125 LINE",
"500 0 LINE"
);
},
{
closed = 1;
nodes = (
"500 125 LINE",
"500 375 LINE",
"625 375 LINE",
"625 125 LINE"
);
},
{
closed = 1;
nodes = (
"375 375 LINE",
"375 500 LINE",
"500 500 LINE",
"500 375 LINE"
);
},
{
closed = 1;
nodes = (
"250 500 LINE",
"250 625 LINE",
"375 625 LINE",
"375 500 LINE"
);
},
{
closed = 1;
nodes = (
"125 625 LINE",
"125 750 LINE",
"250 750 LINE",
"250 625 LINE"
);
},
{
closed = 1;
nodes = (
"0 750 LINE",
"0 1000 LINE",
"125 1000 LINE",
"125 750 LINE"
);
},
{
closed = 1;
nodes = (
"500 875 LINE",
"500 1000 LINE",
"125 1000 LINE",
"125 1125 LINE",
"625 1125 LINE",
"625 875 LINE"
);
}
);
width = 750;
}
);
note = S;
unicode = 0053;
},
{
glyphname = T;
layers = (
{
layerId = "FB18B4D0-91BB-452D-ABF9-2813DD21CA3B";
paths = (
{
closed = 1;
nodes = (
"250 0 LINE",
"250 125 LINE",
"375 125 LINE",
"375 1000 LINE",
"125 1000 LINE",
"125 875 LINE",
"0 875 LINE",
"0 1125 LINE",
"875 1125 LINE",
"875 875 LINE",
"750 875 LINE",
"750 1000 LINE",
"500 1000 LINE",
"500 125 LINE",
"625 125 LINE",
"625 0 LINE"
);
}
);
width = 1000;
}
);
note = T;
unicode = 0054;
},
{
glyphname = U;
layers = (
{
layerId = "FB18B4D0-91BB-452D-ABF9-2813DD21CA3B";
paths = (
{
closed = 1;
nodes = (
"375 0 LINE",
"375 125 LINE",
"625 125 LINE",
"625 0 LINE"
);
},
{
closed = 1;
nodes = (
"250 125 LINE",
"250 250 LINE",
"375 250 LINE",
"375 125 LINE"
);
},
{
closed = 1;
nodes = (
"625 125 LINE",
"625 250 LINE",
"750 250 LINE",
"750 125 LINE"
);
},
{
closed = 1;
nodes = (
"125 250 LINE",
"125 1000 LINE",
"0 1000 LINE",
"0 1125 LINE",
"375 1125 LINE",
"375 1000 LINE",
"250 1000 LINE",
"250 250 LINE"
);
},
{
closed = 1;
nodes = (
"750 250 LINE",
"750 1000 LINE",
"625 1000 LINE",
"625 1125 LINE",
"1000 1125 LINE",
"1000 1000 LINE",
"875 1000 LINE",
"875 250 LINE"
);
}
);
width = 1125;
}
);
note = U;
unicode = 0055;
},
{
glyphname = Uacute;
layers = (
{
layerId = "FB18B4D0-91BB-452D-ABF9-2813DD21CA3B";
paths = (
{
closed = 1;
nodes = (
"375 0 LINE",
"375 125 LINE",
"625 125 LINE",
"625 0 LINE"
);
},
{
closed = 1;
nodes = (
"250 125 LINE",
"250 250 LINE",
"375 250 LINE",
"375 125 LINE"
);
},
{
closed = 1;
nodes = (
"625 125 LINE",
"625 250 LINE",
"750 250 LINE",
"750 125 LINE"
);
},
{
closed = 1;
nodes = (
"125 250 LINE",
"125 1000 LINE",
"0 1000 LINE",
"0 1125 LINE",
"375 1125 LINE",
"375 1000 LINE",
"250 1000 LINE",
"250 250 LINE"
);
},
{
closed = 1;
nodes = (
"750 250 LINE",
"750 1000 LINE",
"625 1000 LINE",
"625 1125 LINE",
"1000 1125 LINE",
"1000 1000 LINE",
"875 1000 LINE",
"875 250 LINE"
);
},
{
closed = 1;
nodes = (
"500 1250 LINE",
"500 1375 LINE",
"625 1375 LINE",
"625 1250 LINE"
);
},
{
closed = 1;
nodes = (
"625 1375 LINE",
"625 1625 LINE",
"750 1625 LINE",
"750 1375 LINE"
);
}
);
width = 1125;
}
);
note = Uacute;
unicode = 00DA;
},
{
glyphname = Ucircumflex;
layers = (
{
layerId = "FB18B4D0-91BB-452D-ABF9-2813DD21CA3B";
paths = (
{
closed = 1;
nodes = (
"375 0 LINE",
"375 125 LINE",
"625 125 LINE",
"625 0 LINE"
);
},
{
closed = 1;
nodes = (
"250 125 LINE",
"250 250 LINE",
"375 250 LINE",
"375 125 LINE"
);
},
{
closed = 1;
nodes = (
"625 125 LINE",
"625 250 LINE",
"750 250 LINE",
"750 125 LINE"
);
},
{
closed = 1;
nodes = (
"125 250 LINE",
"125 1000 LINE",
"0 1000 LINE",
"0 1125 LINE",
"375 1125 LINE",
"375 1000 LINE",
"250 1000 LINE",
"250 250 LINE"
);
},
{
closed = 1;
nodes = (
"750 250 LINE",
"750 1000 LINE",
"625 1000 LINE",
"625 1125 LINE",
"1000 1125 LINE",
"1000 1000 LINE",
"875 1000 LINE",
"875 250 LINE"
);
},
{
closed = 1;
nodes = (
"250 1250 LINE",
"250 1375 LINE",
"375 1375 LINE",
"375 1250 LINE"
);
},
{
closed = 1;
nodes = (
"500 1250 LINE",
"500 1375 LINE",
"625 1375 LINE",
"625 1250 LINE"
);
},
{
closed = 1;
nodes = (
"375 1375 LINE",
"375 1500 LINE",
"500 1500 LINE",
"500 1375 LINE"
);
}
);
width = 1125;
}
);
note = Ucircumflex;
unicode = 00DB;
},
{
glyphname = Udieresis;
layers = (
{
layerId = "FB18B4D0-91BB-452D-ABF9-2813DD21CA3B";
paths = (
{
closed = 1;
nodes = (
"375 0 LINE",
"375 125 LINE",
"625 125 LINE",
"625 0 LINE"
);
},
{
closed = 1;
nodes = (
"250 125 LINE",
"250 250 LINE",
"375 250 LINE",
"375 125 LINE"
);
},
{
closed = 1;
nodes = (
"625 125 LINE",
"625 250 LINE",
"750 250 LINE",
"750 125 LINE"
);
},
{
closed = 1;
nodes = (
"125 250 LINE",
"125 1000 LINE",
"0 1000 LINE",
"0 1125 LINE",
"375 1125 LINE",
"375 1000 LINE",
"250 1000 LINE",
"250 250 LINE"
);
},
{
closed = 1;
nodes = (
"750 250 LINE",
"750 1000 LINE",
"625 1000 LINE",
"625 1125 LINE",
"1000 1125 LINE",
"1000 1000 LINE",
"875 1000 LINE",
"875 250 LINE"
);
},
{
closed = 1;
nodes = (
"375 1250 LINE",
"375 1375 LINE",
"500 1375 LINE",
"500 1250 LINE"
);
},
{
closed = 1;
nodes = (
"625 1250 LINE",
"625 1375 LINE",
"750 1375 LINE",
"750 1250 LINE"
);
}
);
width = 1125;
}
);
note = Udieresis;
unicode = 00DC;
},
{
glyphname = Ugrave;
layers = (
{
layerId = "FB18B4D0-91BB-452D-ABF9-2813DD21CA3B";
paths = (
{
closed = 1;
nodes = (
"375 0 LINE",
"375 125 LINE",
"625 125 LINE",
"625 0 LINE"
);
},
{
closed = 1;
nodes = (
"250 125 LINE",
"250 250 LINE",
"375 250 LINE",
"375 125 LINE"
);
},
{
closed = 1;
nodes = (
"625 125 LINE",
"625 250 LINE",
"750 250 LINE",
"750 125 LINE"
);
},
{
closed = 1;
nodes = (
"125 250 LINE",
"125 1000 LINE",
"0 1000 LINE",
"0 1125 LINE",
"375 1125 LINE",
"375 1000 LINE",
"250 1000 LINE",
"250 250 LINE"
);
},
{
closed = 1;
nodes = (
"750 250 LINE",
"750 1000 LINE",
"625 1000 LINE",
"625 1125 LINE",
"1000 1125 LINE",
"1000 1000 LINE",
"875 1000 LINE",
"875 250 LINE"
);
},
{
closed = 1;
nodes = (
"500 1250 LINE",
"500 1375 LINE",
"625 1375 LINE",
"625 1250 LINE"
);
},
{
closed = 1;
nodes = (
"375 1375 LINE",
"375 1625 LINE",
"500 1625 LINE",
"500 1375 LINE"
);
}
);
width = 1125;
}
);
note = Ugrave;
unicode = 00D9;
},
{
glyphname = Uring;
layers = (
{
layerId = "FB18B4D0-91BB-452D-ABF9-2813DD21CA3B";
paths = (
{
closed = 1;
nodes = (
"375 0 LINE",
"375 125 LINE",
"625 125 LINE",
"625 0 LINE"
);
},
{
closed = 1;
nodes = (
"250 125 LINE",
"250 250 LINE",
"375 250 LINE",
"375 125 LINE"
);
},
{
closed = 1;
nodes = (
"625 125 LINE",
"625 250 LINE",
"750 250 LINE",
"750 125 LINE"
);
},
{
closed = 1;
nodes = (
"125 250 LINE",
"125 1000 LINE",
"0 1000 LINE",
"0 1125 LINE",
"375 1125 LINE",
"375 1000 LINE",
"250 1000 LINE",
"250 250 LINE"
);
},
{
closed = 1;
nodes = (
"750 250 LINE",
"750 1000 LINE",
"625 1000 LINE",
"625 1125 LINE",
"1000 1125 LINE",
"1000 1000 LINE",
"875 1000 LINE",
"875 250 LINE"
);
}
);
width = 1125;
}
);
note = Uring;
unicode = 016E;
},
{
glyphname = V;
layers = (
{
layerId = "FB18B4D0-91BB-452D-ABF9-2813DD21CA3B";
paths = (
{
closed = 1;
nodes = (
"500 0 LINE",
"500 250 LINE",
"625 250 LINE",
"625 0 LINE"
);
},
{
closed = 1;
nodes = (
"375 250 LINE",
"375 500 LINE",
"500 500 LINE",
"500 250 LINE"
);
},
{
closed = 1;
nodes = (
"625 250 LINE",
"625 500 LINE",
"750 500 LINE",
"750 250 LINE"
);
},
{
closed = 1;
nodes = (
"250 500 LINE",
"250 750 LINE",
"375 750 LINE",
"375 500 LINE"
);
},
{
closed = 1;
nodes = (
"750 500 LINE",
"750 750 LINE",
"875 750 LINE",
"875 500 LINE"
);
},
{
closed = 1;
nodes = (
"125 750 LINE",
"125 1000 LINE",
"0 1000 LINE",
"0 1125 LINE",
"375 1125 LINE",
"375 1000 LINE",
"250 1000 LINE",
"250 750 LINE"
);
},
{
closed = 1;
nodes = (
"875 750 LINE",
"875 1000 LINE",
"750 1000 LINE",
"750 1125 LINE",
"1125 1125 LINE",
"1125 1000 LINE",
"1000 1000 LINE",
"1000 750 LINE"
);
}
);
width = 1250;
}
);
note = V;
unicode = 0056;
},
{
glyphname = W;
layers = (
{
layerId = "FB18B4D0-91BB-452D-ABF9-2813DD21CA3B";
paths = (
{
closed = 1;
nodes = (
"375 0 LINE",
"375 375 LINE",
"500 375 LINE",
"500 0 LINE"
);
},
{
closed = 1;
nodes = (
"875 0 LINE",
"875 375 LINE",
"1000 375 LINE",
"1000 0 LINE"
);
},
{
closed = 1;
nodes = (
"250 375 LINE",
"250 750 LINE",
"375 750 LINE",
"375 375 LINE"
);
},
{
closed = 1;
nodes = (
"500 375 LINE",
"500 750 LINE",
"625 750 LINE",
"625 375 LINE"
);
},
{
closed = 1;
nodes = (
"750 375 LINE",
"750 750 LINE",
"875 750 LINE",
"875 375 LINE"
);
},
{
closed = 1;
nodes = (
"1000 375 LINE",
"1000 750 LINE",
"1125 750 LINE",
"1125 375 LINE"
);
},
{
closed = 1;
nodes = (
"125 750 LINE",
"125 1000 LINE",
"0 1000 LINE",
"0 1125 LINE",
"375 1125 LINE",
"375 1000 LINE",
"250 1000 LINE",
"250 750 LINE"
);
},
{
closed = 1;
nodes = (
"625 750 LINE",
"625 1000 LINE",
"500 1000 LINE",
"500 1125 LINE",
"875 1125 LINE",
"875 1000 LINE",
"750 1000 LINE",
"750 750 LINE"
);
},
{
closed = 1;
nodes = (
"1125 750 LINE",
"1125 1000 LINE",
"1000 1000 LINE",
"1000 1125 LINE",
"1375 1125 LINE",
"1375 1000 LINE",
"1250 1000 LINE",
"1250 750 LINE"
);
}
);
width = 1500;
}
);
note = W;
unicode = 0057;
},
{
glyphname = X;
layers = (
{
layerId = "FB18B4D0-91BB-452D-ABF9-2813DD21CA3B";
paths = (
{
closed = 1;
nodes = (
"0 0 LINE",
"0 125 LINE",
"125 125 LINE",
"125 250 LINE",
"250 250 LINE",
"250 125 LINE",
"375 125 LINE",
"375 0 LINE"
);
},
{
closed = 1;
nodes = (
"500 0 LINE",
"500 125 LINE",
"625 125 LINE",
"625 250 LINE",
"750 250 LINE",
"750 125 LINE",
"875 125 LINE",
"875 0 LINE"
);
},
{
closed = 1;
nodes = (
"250 250 LINE",
"250 500 LINE",
"375 500 LINE",
"375 250 LINE"
);
},
{
closed = 1;
nodes = (
"500 250 LINE",
"500 500 LINE",
"625 500 LINE",
"625 250 LINE"
);
},
{
closed = 1;
nodes = (
"375 500 LINE",
"375 625 LINE",
"500 625 LINE",
"500 500 LINE"
);
},
{
closed = 1;
nodes = (
"250 625 LINE",
"250 875 LINE",
"375 875 LINE",
"375 625 LINE"
);
},
{
closed = 1;
nodes = (
"500 625 LINE",
"500 875 LINE",
"625 875 LINE",
"625 625 LINE"
);
},
{
closed = 1;
nodes = (
"125 875 LINE",
"125 1000 LINE",
"0 1000 LINE",
"0 1125 LINE",
"375 1125 LINE",
"375 1000 LINE",
"250 1000 LINE",
"250 875 LINE"
);
},
{
closed = 1;
nodes = (
"625 875 LINE",
"625 1000 LINE",
"500 1000 LINE",
"500 1125 LINE",
"875 1125 LINE",
"875 1000 LINE",
"750 1000 LINE",
"750 875 LINE"
);
}
);
width = 1000;
}
);
note = X;
unicode = 0058;
},
{
glyphname = Y;
layers = (
{
layerId = "FB18B4D0-91BB-452D-ABF9-2813DD21CA3B";
paths = (
{
closed = 1;
nodes = (
"250 0 LINE",
"250 125 LINE",
"375 125 LINE",
"375 625 LINE",
"500 625 LINE",
"500 125 LINE",
"625 125 LINE",
"625 0 LINE"
);
},
{
closed = 1;
nodes = (
"250 625 LINE",
"250 875 LINE",
"375 875 LINE",
"375 625 LINE"
);
},
{
closed = 1;
nodes = (
"500 625 LINE",
"500 875 LINE",
"625 875 LINE",
"625 625 LINE"
);
},
{
closed = 1;
nodes = (
"125 875 LINE",
"125 1000 LINE",
"0 1000 LINE",
"0 1125 LINE",
"375 1125 LINE",
"375 1000 LINE",
"250 1000 LINE",
"250 875 LINE"
);
},
{
closed = 1;
nodes = (
"625 875 LINE",
"625 1000 LINE",
"500 1000 LINE",
"500 1125 LINE",
"875 1125 LINE",
"875 1000 LINE",
"750 1000 LINE",
"750 875 LINE"
);
}
);
width = 1000;
}
);
note = Y;
unicode = 0059;
},
{
glyphname = Yacute;
layers = (
{
layerId = "FB18B4D0-91BB-452D-ABF9-2813DD21CA3B";
paths = (
{
closed = 1;
nodes = (
"250 0 LINE",
"250 125 LINE",
"375 125 LINE",
"375 625 LINE",
"500 625 LINE",
"500 125 LINE",
"625 125 LINE",
"625 0 LINE"
);
},
{
closed = 1;
nodes = (
"250 625 LINE",
"250 875 LINE",
"375 875 LINE",
"375 625 LINE"
);
},
{
closed = 1;
nodes = (
"500 625 LINE",
"500 875 LINE",
"625 875 LINE",
"625 625 LINE"
);
},
{
closed = 1;
nodes = (
"125 875 LINE",
"125 1000 LINE",
"0 1000 LINE",
"0 1125 LINE",
"375 1125 LINE",
"375 1000 LINE",
"250 1000 LINE",
"250 875 LINE"
);
},
{
closed = 1;
nodes = (
"625 875 LINE",
"625 1000 LINE",
"500 1000 LINE",
"500 1125 LINE",
"875 1125 LINE",
"875 1000 LINE",
"750 1000 LINE",
"750 875 LINE"
);
},
{
closed = 1;
nodes = (
"375 1250 LINE",
"375 1375 LINE",
"500 1375 LINE",
"500 1250 LINE"
);
},
{
closed = 1;
nodes = (
"500 1375 LINE",
"500 1625 LINE",
"625 1625 LINE",
"625 1375 LINE"
);
}
);
width = 1000;
}
);
note = Yacute;
unicode = 00DD;
},
{
glyphname = Ydieresis;
layers = (
{
layerId = "FB18B4D0-91BB-452D-ABF9-2813DD21CA3B";
paths = (
{
closed = 1;
nodes = (
"250 0 LINE",
"250 125 LINE",
"375 125 LINE",
"375 625 LINE",
"500 625 LINE",
"500 125 LINE",
"625 125 LINE",
"625 0 LINE"
);
},
{
closed = 1;
nodes = (
"250 625 LINE",
"250 875 LINE",
"375 875 LINE",
"375 625 LINE"
);
},
{
closed = 1;
nodes = (
"500 625 LINE",
"500 875 LINE",
"625 875 LINE",
"625 625 LINE"
);
},
{
closed = 1;
nodes = (
"125 875 LINE",
"125 1000 LINE",
"0 1000 LINE",
"0 1125 LINE",
"375 1125 LINE",
"375 1000 LINE",
"250 1000 LINE",
"250 875 LINE"
);
},
{
closed = 1;
nodes = (
"625 875 LINE",
"625 1000 LINE",
"500 1000 LINE",
"500 1125 LINE",
"875 1125 LINE",
"875 1000 LINE",
"750 1000 LINE",
"750 875 LINE"
);
},
{
closed = 1;
nodes = (
"250 1250 LINE",
"250 1375 LINE",
"375 1375 LINE",
"375 1250 LINE"
);
},
{
closed = 1;
nodes = (
"500 1250 LINE",
"500 1375 LINE",
"625 1375 LINE",
"625 1250 LINE"
);
}
);
width = 1000;
}
);
note = Ydieresis;
unicode = 0178;
},
{
glyphname = Z;
layers = (
{
layerId = "FB18B4D0-91BB-452D-ABF9-2813DD21CA3B";
paths = (
{
closed = 1;
nodes = (
"0 0 LINE",
"0 250 LINE",
"125 250 LINE",
"125 125 LINE",
"500 125 LINE",
"500 250 LINE",
"625 250 LINE",
"625 0 LINE"
);
},
{
closed = 1;
nodes = (
"125 250 LINE",
"125 500 LINE",
"250 500 LINE",
"250 250 LINE"
);
},
{
closed = 1;
nodes = (
"250 500 LINE",
"250 625 LINE",
"375 625 LINE",
"375 500 LINE"
);
},
{
closed = 1;
nodes = (
"375 625 LINE",
"375 875 LINE",
"500 875 LINE",
"500 625 LINE"
);
},
{
closed = 1;
nodes = (
"0 875 LINE",
"0 1125 LINE",
"625 1125 LINE",
"625 875 LINE",
"500 875 LINE",
"500 1000 LINE",
"125 1000 LINE",
"125 875 LINE"
);
}
);
width = 750;
}
);
note = Z;
unicode = 005A;
},
{
glyphname = a;
layers = (
{
layerId = "FB18B4D0-91BB-452D-ABF9-2813DD21CA3B";
paths = (
{
closed = 1;
nodes = (
"125 0 LINE",
"125 125 LINE",
"500 125 LINE",
"500 0 LINE"
);
},
{
closed = 1;
nodes = (
"625 0 LINE",
"625 125 LINE",
"750 125 LINE",
"750 0 LINE"
);
},
{
closed = 1;
nodes = (
"0 125 LINE",
"0 375 LINE",
"125 375 LINE",
"125 125 LINE"
);
},
{
closed = 1;
nodes = (
"125 375 LINE",
"125 500 LINE",
"375 500 LINE",
"375 375 LINE"
);
},
{
closed = 1;
nodes = (
"0 625 LINE",
"0 750 LINE",
"125 750 LINE",
"125 625 LINE"
);
},
{
closed = 1;
nodes = (
"500 125 LINE",
"500 500 LINE",
"375 500 LINE",
"375 625 LINE",
"500 625 LINE",
"500 750 LINE",
"625 750 LINE",
"625 125 LINE"
);
},
{
closed = 1;
nodes = (
"125 750 LINE",
"125 875 LINE",
"500 875 LINE",
"500 750 LINE"
);
}
);
width = 875;
}
);
note = a;
unicode = 0061;
},
{
glyphname = aacute;
layers = (
{
layerId = "FB18B4D0-91BB-452D-ABF9-2813DD21CA3B";
paths = (
{
closed = 1;
nodes = (
"125 0 LINE",
"125 125 LINE",
"500 125 LINE",
"500 0 LINE"
);
},
{
closed = 1;
nodes = (
"625 0 LINE",
"625 125 LINE",
"750 125 LINE",
"750 0 LINE"
);
},
{
closed = 1;
nodes = (
"0 125 LINE",
"0 375 LINE",
"125 375 LINE",
"125 125 LINE"
);
},
{
closed = 1;
nodes = (
"125 375 LINE",
"125 500 LINE",
"375 500 LINE",
"375 375 LINE"
);
},
{
closed = 1;
nodes = (
"0 625 LINE",
"0 750 LINE",
"125 750 LINE",
"125 625 LINE"
);
},
{
closed = 1;
nodes = (
"500 125 LINE",
"500 500 LINE",
"375 500 LINE",
"375 625 LINE",
"500 625 LINE",
"500 750 LINE",
"625 750 LINE",
"625 125 LINE"
);
},
{
closed = 1;
nodes = (
"125 750 LINE",
"125 875 LINE",
"500 875 LINE",
"500 750 LINE"
);
},
{
closed = 1;
nodes = (
"250 1000 LINE",
"250 1125 LINE",
"375 1125 LINE",
"375 1000 LINE"
);
},
{
closed = 1;
nodes = (
"375 1125 LINE",
"375 1375 LINE",
"500 1375 LINE",
"500 1125 LINE"
);
}
);
width = 875;
}
);
note = aacute;
unicode = 00E1;
},
{
glyphname = acircumflex;
layers = (
{
layerId = "FB18B4D0-91BB-452D-ABF9-2813DD21CA3B";
paths = (
{
closed = 1;
nodes = (
"125 0 LINE",
"125 125 LINE",
"500 125 LINE",
"500 0 LINE"
);
},
{
closed = 1;
nodes = (
"625 0 LINE",
"625 125 LINE",
"750 125 LINE",
"750 0 LINE"
);
},
{
closed = 1;
nodes = (
"0 125 LINE",
"0 375 LINE",
"125 375 LINE",
"125 125 LINE"
);
},
{
closed = 1;
nodes = (
"125 375 LINE",
"125 500 LINE",
"375 500 LINE",
"375 375 LINE"
);
},
{
closed = 1;
nodes = (
"0 625 LINE",
"0 750 LINE",
"125 750 LINE",
"125 625 LINE"
);
},
{
closed = 1;
nodes = (
"500 125 LINE",
"500 500 LINE",
"375 500 LINE",
"375 625 LINE",
"500 625 LINE",
"500 750 LINE",
"625 750 LINE",
"625 125 LINE"
);
},
{
closed = 1;
nodes = (
"125 750 LINE",
"125 875 LINE",
"500 875 LINE",
"500 750 LINE"
);
},
{
closed = 1;
nodes = (
"125 1000 LINE",
"125 1125 LINE",
"250 1125 LINE",
"250 1000 LINE"
);
},
{
closed = 1;
nodes = (
"375 1000 LINE",
"375 1125 LINE",
"500 1125 LINE",
"500 1000 LINE"
);
},
{
closed = 1;
nodes = (
"250 1125 LINE",
"250 1250 LINE",
"375 1250 LINE",
"375 1125 LINE"
);
}
);
width = 875;
}
);
note = acircumflex;
unicode = 00E2;
},
{
glyphname = adieresis;
layers = (
{
layerId = "FB18B4D0-91BB-452D-ABF9-2813DD21CA3B";
paths = (
{
closed = 1;
nodes = (
"125 0 LINE",
"125 125 LINE",
"500 125 LINE",
"500 0 LINE"
);
},
{
closed = 1;
nodes = (
"625 0 LINE",
"625 125 LINE",
"750 125 LINE",
"750 0 LINE"
);
},
{
closed = 1;
nodes = (
"0 125 LINE",
"0 375 LINE",
"125 375 LINE",
"125 125 LINE"
);
},
{
closed = 1;
nodes = (
"125 375 LINE",
"125 500 LINE",
"375 500 LINE",
"375 375 LINE"
);
},
{
closed = 1;
nodes = (
"0 625 LINE",
"0 750 LINE",
"125 750 LINE",
"125 625 LINE"
);
},
{
closed = 1;
nodes = (
"500 125 LINE",
"500 500 LINE",
"375 500 LINE",
"375 625 LINE",
"500 625 LINE",
"500 750 LINE",
"625 750 LINE",
"625 125 LINE"
);
},
{
closed = 1;
nodes = (
"125 750 LINE",
"125 875 LINE",
"500 875 LINE",
"500 750 LINE"
);
},
{
closed = 1;
nodes = (
"125 1000 LINE",
"125 1125 LINE",
"250 1125 LINE",
"250 1000 LINE"
);
},
{
closed = 1;
nodes = (
"375 1000 LINE",
"375 1125 LINE",
"500 1125 LINE",
"500 1000 LINE"
);
}
);
width = 875;
}
);
note = adieresis;
unicode = 00E4;
},
{
glyphname = agrave;
layers = (
{
layerId = "FB18B4D0-91BB-452D-ABF9-2813DD21CA3B";
paths = (
{
closed = 1;
nodes = (
"125 0 LINE",
"125 125 LINE",
"500 125 LINE",
"500 0 LINE"
);
},
{
closed = 1;
nodes = (
"625 0 LINE",
"625 125 LINE",
"750 125 LINE",
"750 0 LINE"
);
},
{
closed = 1;
nodes = (
"0 125 LINE",
"0 375 LINE",
"125 375 LINE",
"125 125 LINE"
);
},
{
closed = 1;
nodes = (
"125 375 LINE",
"125 500 LINE",
"375 500 LINE",
"375 375 LINE"
);
},
{
closed = 1;
nodes = (
"0 625 LINE",
"0 750 LINE",
"125 750 LINE",
"125 625 LINE"
);
},
{
closed = 1;
nodes = (
"500 125 LINE",
"500 500 LINE",
"375 500 LINE",
"375 625 LINE",
"500 625 LINE",
"500 750 LINE",
"625 750 LINE",
"625 125 LINE"
);
},
{
closed = 1;
nodes = (
"125 750 LINE",
"125 875 LINE",
"500 875 LINE",
"500 750 LINE"
);
},
{
closed = 1;
nodes = (
"250 1000 LINE",
"250 1125 LINE",
"375 1125 LINE",
"375 1000 LINE"
);
},
{
closed = 1;
nodes = (
"125 1125 LINE",
"125 1375 LINE",
"250 1375 LINE",
"250 1125 LINE"
);
}
);
width = 875;
}
);
note = agrave;
unicode = 00E0;
},
{
glyphname = aring;
layers = (
{
layerId = "FB18B4D0-91BB-452D-ABF9-2813DD21CA3B";
paths = (
{
closed = 1;
nodes = (
"125 0 LINE",
"125 125 LINE",
"500 125 LINE",
"500 0 LINE"
);
},
{
closed = 1;
nodes = (
"625 0 LINE",
"625 125 LINE",
"750 125 LINE",
"750 0 LINE"
);
},
{
closed = 1;
nodes = (
"0 125 LINE",
"0 375 LINE",
"125 375 LINE",
"125 125 LINE"
);
},
{
closed = 1;
nodes = (
"125 375 LINE",
"125 500 LINE",
"375 500 LINE",
"375 375 LINE"
);
},
{
closed = 1;
nodes = (
"0 625 LINE",
"0 750 LINE",
"125 750 LINE",
"125 625 LINE"
);
},
{
closed = 1;
nodes = (
"500 125 LINE",
"500 500 LINE",
"375 500 LINE",
"375 625 LINE",
"500 625 LINE",
"500 750 LINE",
"625 750 LINE",
"625 125 LINE"
);
},
{
closed = 1;
nodes = (
"125 750 LINE",
"125 875 LINE",
"500 875 LINE",
"500 750 LINE"
);
},
{
closed = 1;
nodes = (
"250 1000 LINE",
"250 1125 LINE",
"375 1125 LINE",
"375 1000 LINE"
);
},
{
closed = 1;
nodes = (
"125 1125 LINE",
"125 1250 LINE",
"250 1250 LINE",
"250 1125 LINE"
);
},
{
closed = 1;
nodes = (
"375 1125 LINE",
"375 1250 LINE",
"500 1250 LINE",
"500 1125 LINE"
);
},
{
closed = 1;
nodes = (
"250 1250 LINE",
"250 1375 LINE",
"375 1375 LINE",
"375 1250 LINE"
);
}
);
width = 875;
}
);
note = aring;
unicode = 00E5;
},
{
glyphname = atilde;
layers = (
{
layerId = "FB18B4D0-91BB-452D-ABF9-2813DD21CA3B";
paths = (
{
closed = 1;
nodes = (
"125 0 LINE",
"125 125 LINE",
"500 125 LINE",
"500 0 LINE"
);
},
{
closed = 1;
nodes = (
"625 0 LINE",
"625 125 LINE",
"750 125 LINE",
"750 0 LINE"
);
},
{
closed = 1;
nodes = (
"0 125 LINE",
"0 375 LINE",
"125 375 LINE",
"125 125 LINE"
);
},
{
closed = 1;
nodes = (
"125 375 LINE",
"125 500 LINE",
"375 500 LINE",
"375 375 LINE"
);
},
{
closed = 1;
nodes = (
"0 625 LINE",
"0 750 LINE",
"125 750 LINE",
"125 625 LINE"
);
},
{
closed = 1;
nodes = (
"500 125 LINE",
"500 500 LINE",
"375 500 LINE",
"375 625 LINE",
"500 625 LINE",
"500 750 LINE",
"625 750 LINE",
"625 125 LINE"
);
},
{
closed = 1;
nodes = (
"125 750 LINE",
"125 875 LINE",
"500 875 LINE",
"500 750 LINE"
);
},
{
closed = 1;
nodes = (
"500 1000 LINE",
"500 1125 LINE",
"625 1125 LINE",
"625 1000 LINE"
);
},
{
closed = 1;
nodes = (
"0 1000 LINE",
"0 1250 LINE",
"125 1250 LINE",
"125 1000 LINE"
);
},
{
closed = 1;
nodes = (
"375 1125 LINE",
"375 1250 LINE",
"500 1250 LINE",
"500 1125 LINE"
);
},
{
closed = 1;
nodes = (
"125 1250 LINE",
"125 1375 LINE",
"375 1375 LINE",
"375 1250 LINE"
);
},
{
closed = 1;
nodes = (
"625 1125 LINE",
"625 1375 LINE",
"750 1375 LINE",
"750 1125 LINE"
);
}
);
width = 875;
}
);
note = atilde;
unicode = 00E3;
},
{
glyphname = ae;
layers = (
{
layerId = "FB18B4D0-91BB-452D-ABF9-2813DD21CA3B";
paths = (
{
closed = 1;
nodes = (
"125 0 LINE",
"125 125 LINE",
"500 125 LINE",
"500 0 LINE"
);
},
{
closed = 1;
nodes = (
"750 0 LINE",
"750 125 LINE",
"1000 125 LINE",
"1000 0 LINE"
);
},
{
closed = 1;
nodes = (
"1000 125 LINE",
"1000 250 LINE",
"1125 250 LINE",
"1125 125 LINE"
);
},
{
closed = 1;
nodes = (
"0 125 LINE",
"0 375 LINE",
"125 375 LINE",
"125 125 LINE"
);
},
{
closed = 1;
nodes = (
"125 375 LINE",
"125 500 LINE",
"375 500 LINE",
"375 375 LINE"
);
},
{
closed = 1;
nodes = (
"0 625 LINE",
"0 750 LINE",
"125 750 LINE",
"125 625 LINE"
);
},
{
closed = 1;
nodes = (
"500 125 LINE",
"500 500 LINE",
"375 500 LINE",
"375 625 LINE",
"500 625 LINE",
"500 750 LINE",
"750 750 LINE",
"750 625 LINE",
"625 625 LINE",
"625 500 LINE",
"1125 500 LINE",
"1125 625 LINE",
"1250 625 LINE",
"1250 375 LINE",
"625 375 LINE",
"625 250 LINE",
"750 250 LINE",
"750 125 LINE"
);
},
{
closed = 1;
nodes = (
"1000 625 LINE",
"1000 750 LINE",
"1125 750 LINE",
"1125 625 LINE"
);
},
{
closed = 1;
nodes = (
"125 750 LINE",
"125 875 LINE",
"500 875 LINE",
"500 750 LINE"
);
},
{
closed = 1;
nodes = (
"750 750 LINE",
"750 875 LINE",
"1000 875 LINE",
"1000 750 LINE"
);
}
);
width = 1375;
}
);
note = ae;
unicode = 00E6;
},
{
glyphname = b;
layers = (
{
layerId = "FB18B4D0-91BB-452D-ABF9-2813DD21CA3B";
paths = (
{
closed = 1;
nodes = (
"250 0 LINE",
"250 125 LINE",
"500 125 LINE",
"500 0 LINE"
);
},
{
closed = 1;
nodes = (
"500 125 LINE",
"500 250 LINE",
"625 250 LINE",
"625 125 LINE"
);
},
{
closed = 1;
nodes = (
"625 250 LINE",
"625 625 LINE",
"750 625 LINE",
"750 250 LINE"
);
},
{
closed = 1;
nodes = (
"500 625 LINE",
"500 750 LINE",
"625 750 LINE",
"625 625 LINE"
);
},
{
closed = 1;
nodes = (
"250 750 LINE",
"250 875 LINE",
"500 875 LINE",
"500 750 LINE"
);
},
{
closed = 1;
nodes = (
"0 0 LINE",
"0 875 LINE",
"-125 875 LINE",
"-125 1000 LINE",
"0 1000 LINE",
"0 1125 LINE",
"125 1125 LINE",
"125 750 LINE",
"250 750 LINE",
"250 625 LINE",
"125 625 LINE",
"125 250 LINE",
"250 250 LINE",
"250 125 LINE",
"125 125 LINE",
"125 0 LINE"
);
}
);
width = 875;
}
);
note = b;
unicode = 0062;
},
{
glyphname = c;
layers = (
{
layerId = "FB18B4D0-91BB-452D-ABF9-2813DD21CA3B";
paths = (
{
closed = 1;
nodes = (
"250 0 LINE",
"250 125 LINE",
"500 125 LINE",
"500 0 LINE"
);
},
{
closed = 1;
nodes = (
"125 125 LINE",
"125 250 LINE",
"250 250 LINE",
"250 125 LINE"
);
},
{
closed = 1;
nodes = (
"500 125 LINE",
"500 250 LINE",
"625 250 LINE",
"625 125 LINE"
);
},
{
closed = 1;
nodes = (
"0 250 LINE",
"0 625 LINE",
"125 625 LINE",
"125 250 LINE"
);
},
{
closed = 1;
nodes = (
"125 625 LINE",
"125 750 LINE",
"250 750 LINE",
"250 625 LINE"
);
},
{
closed = 1;
nodes = (
"500 625 LINE",
"500 750 LINE",
"625 750 LINE",
"625 625 LINE"
);
},
{
closed = 1;
nodes = (
"250 750 LINE",
"250 875 LINE",
"500 875 LINE",
"500 750 LINE"
);
}
);
width = 750;
}
);
note = c;
unicode = 0063;
},
{
glyphname = ccedilla;
layers = (
{
layerId = "FB18B4D0-91BB-452D-ABF9-2813DD21CA3B";
paths = (
{
closed = 1;
nodes = (
"500 -375 LINE",
"500 -250 LINE",
"625 -250 LINE",
"625 -375 LINE"
);
},
{
closed = 1;
nodes = (
"625 -250 LINE",
"625 -125 LINE",
"750 -125 LINE",
"750 -250 LINE"
);
},
{
closed = 1;
nodes = (
"500 -125 LINE",
"500 0 LINE",
"625 0 LINE",
"625 -125 LINE"
);
},
{
closed = 1;
nodes = (
"250 0 LINE",
"250 125 LINE",
"500 125 LINE",
"500 0 LINE"
);
},
{
closed = 1;
nodes = (
"125 125 LINE",
"125 250 LINE",
"250 250 LINE",
"250 125 LINE"
);
},
{
closed = 1;
nodes = (
"500 125 LINE",
"500 250 LINE",
"625 250 LINE",
"625 125 LINE"
);
},
{
closed = 1;
nodes = (
"0 250 LINE",
"0 625 LINE",
"125 625 LINE",
"125 250 LINE"
);
},
{
closed = 1;
nodes = (
"125 625 LINE",
"125 750 LINE",
"250 750 LINE",
"250 625 LINE"
);
},
{
closed = 1;
nodes = (
"500 625 LINE",
"500 750 LINE",
"625 750 LINE",
"625 625 LINE"
);
},
{
closed = 1;
nodes = (
"250 750 LINE",
"250 875 LINE",
"500 875 LINE",
"500 750 LINE"
);
}
);
width = 875;
}
);
note = ccedilla;
unicode = 00E7;
},
{
glyphname = d;
layers = (
{
layerId = "FB18B4D0-91BB-452D-ABF9-2813DD21CA3B";
paths = (
{
closed = 1;
nodes = (
"250 0 LINE",
"250 125 LINE",
"500 125 LINE",
"500 0 LINE"
);
},
{
closed = 1;
nodes = (
"125 125 LINE",
"125 250 LINE",
"250 250 LINE",
"250 125 LINE"
);
},
{
closed = 1;
nodes = (
"0 250 LINE",
"0 625 LINE",
"125 625 LINE",
"125 250 LINE"
);
},
{
closed = 1;
nodes = (
"125 625 LINE",
"125 750 LINE",
"250 750 LINE",
"250 625 LINE"
);
},
{
closed = 1;
nodes = (
"250 750 LINE",
"250 875 LINE",
"500 875 LINE",
"500 750 LINE"
);
},
{
closed = 1;
nodes = (
"625 0 LINE",
"625 125 LINE",
"500 125 LINE",
"500 250 LINE",
"625 250 LINE",
"625 625 LINE",
"500 625 LINE",
"500 750 LINE",
"625 750 LINE",
"625 1000 LINE",
"500 1000 LINE",
"500 1125 LINE",
"750 1125 LINE",
"750 250 LINE",
"875 250 LINE",
"875 125 LINE",
"750 125 LINE",
"750 0 LINE"
);
}
);
width = 1000;
}
);
note = d;
unicode = 0064;
},
{
glyphname = eth;
layers = (
{
layerId = "FB18B4D0-91BB-452D-ABF9-2813DD21CA3B";
paths = (
{
closed = 1;
nodes = (
"125 0 LINE",
"125 125 LINE",
"500 125 LINE",
"500 0 LINE"
);
},
{
closed = 1;
nodes = (
"500 125 LINE",
"500 250 LINE",
"625 250 LINE",
"625 125 LINE"
);
},
{
closed = 1;
nodes = (
"0 125 LINE",
"0 500 LINE",
"125 500 LINE",
"125 125 LINE"
);
},
{
closed = 1;
nodes = (
"125 500 LINE",
"125 625 LINE",
"375 625 LINE",
"375 500 LINE"
);
},
{
closed = 1;
nodes = (
"625 250 LINE",
"625 625 LINE",
"750 625 LINE",
"750 250 LINE"
);
},
{
closed = 1;
nodes = (
"125 750 LINE",
"125 875 LINE",
"250 875 LINE",
"250 750 LINE"
);
},
{
closed = 1;
nodes = (
"375 625 LINE",
"375 750 LINE",
"500 750 LINE",
"500 1000 LINE",
"625 1000 LINE",
"625 625 LINE"
);
},
{
closed = 1;
nodes = (
"250 875 LINE",
"250 1000 LINE",
"125 1000 LINE",
"125 1125 LINE",
"375 1125 LINE",
"375 1250 LINE",
"500 1250 LINE",
"500 1000 LINE",
"375 1000 LINE",
"375 875 LINE"
);
},
{
closed = 1;
nodes = (
"500 1250 LINE",
"500 1375 LINE",
"625 1375 LINE",
"625 1250 LINE"
);
}
);
width = 875;
}
);
note = eth;
unicode = 00F0;
},
{
glyphname = e;
layers = (
{
layerId = "FB18B4D0-91BB-452D-ABF9-2813DD21CA3B";
paths = (
{
closed = 1;
nodes = (
"250 0 LINE",
"250 125 LINE",
"500 125 LINE",
"500 0 LINE"
);
},
{
closed = 1;
nodes = (
"125 125 LINE",
"125 250 LINE",
"250 250 LINE",
"250 125 LINE"
);
},
{
closed = 1;
nodes = (
"500 125 LINE",
"500 250 LINE",
"625 250 LINE",
"625 125 LINE"
);
},
{
closed = 1;
nodes = (
"0 250 LINE",
"0 625 LINE",
"125 625 LINE",
"125 500 LINE",
"625 500 LINE",
"625 625 LINE",
"750 625 LINE",
"750 375 LINE",
"125 375 LINE",
"125 250 LINE"
);
},
{
closed = 1;
nodes = (
"125 625 LINE",
"125 750 LINE",
"250 750 LINE",
"250 625 LINE"
);
},
{
closed = 1;
nodes = (
"500 625 LINE",
"500 750 LINE",
"625 750 LINE",
"625 625 LINE"
);
},
{
closed = 1;
nodes = (
"250 750 LINE",
"250 875 LINE",
"500 875 LINE",
"500 750 LINE"
);
}
);
width = 875;
}
);
note = e;
unicode = 0065;
},
{
glyphname = eacute;
layers = (
{
layerId = "FB18B4D0-91BB-452D-ABF9-2813DD21CA3B";
paths = (
{
closed = 1;
nodes = (
"250 0 LINE",
"250 125 LINE",
"500 125 LINE",
"500 0 LINE"
);
},
{
closed = 1;
nodes = (
"125 125 LINE",
"125 250 LINE",
"250 250 LINE",
"250 125 LINE"
);
},
{
closed = 1;
nodes = (
"500 125 LINE",
"500 250 LINE",
"625 250 LINE",
"625 125 LINE"
);
},
{
closed = 1;
nodes = (
"0 250 LINE",
"0 625 LINE",
"125 625 LINE",
"125 500 LINE",
"625 500 LINE",
"625 625 LINE",
"750 625 LINE",
"750 375 LINE",
"125 375 LINE",
"125 250 LINE"
);
},
{
closed = 1;
nodes = (
"125 625 LINE",
"125 750 LINE",
"250 750 LINE",
"250 625 LINE"
);
},
{
closed = 1;
nodes = (
"500 625 LINE",
"500 750 LINE",
"625 750 LINE",
"625 625 LINE"
);
},
{
closed = 1;
nodes = (
"250 750 LINE",
"250 875 LINE",
"500 875 LINE",
"500 750 LINE"
);
},
{
closed = 1;
nodes = (
"375 1000 LINE",
"375 1125 LINE",
"500 1125 LINE",
"500 1000 LINE"
);
},
{
closed = 1;
nodes = (
"500 1125 LINE",
"500 1375 LINE",
"625 1375 LINE",
"625 1125 LINE"
);
}
);
width = 875;
}
);
note = eacute;
unicode = 00E9;
},
{
glyphname = ecircumflex;
layers = (
{
layerId = "FB18B4D0-91BB-452D-ABF9-2813DD21CA3B";
paths = (
{
closed = 1;
nodes = (
"250 0 LINE",
"250 125 LINE",
"500 125 LINE",
"500 0 LINE"
);
},
{
closed = 1;
nodes = (
"125 125 LINE",
"125 250 LINE",
"250 250 LINE",
"250 125 LINE"
);
},
{
closed = 1;
nodes = (
"500 125 LINE",
"500 250 LINE",
"625 250 LINE",
"625 125 LINE"
);
},
{
closed = 1;
nodes = (
"0 250 LINE",
"0 625 LINE",
"125 625 LINE",
"125 500 LINE",
"625 500 LINE",
"625 625 LINE",
"750 625 LINE",
"750 375 LINE",
"125 375 LINE",
"125 250 LINE"
);
},
{
closed = 1;
nodes = (
"125 625 LINE",
"125 750 LINE",
"250 750 LINE",
"250 625 LINE"
);
},
{
closed = 1;
nodes = (
"500 625 LINE",
"500 750 LINE",
"625 750 LINE",
"625 625 LINE"
);
},
{
closed = 1;
nodes = (
"250 750 LINE",
"250 875 LINE",
"500 875 LINE",
"500 750 LINE"
);
},
{
closed = 1;
nodes = (
"250 1000 LINE",
"250 1125 LINE",
"375 1125 LINE",
"375 1000 LINE"
);
},
{
closed = 1;
nodes = (
"500 1000 LINE",
"500 1125 LINE",
"625 1125 LINE",
"625 1000 LINE"
);
},
{
closed = 1;
nodes = (
"375 1125 LINE",
"375 1250 LINE",
"500 1250 LINE",
"500 1125 LINE"
);
}
);
width = 875;
}
);
note = ecircumflex;
unicode = 00EA;
},
{
glyphname = edieresis;
layers = (
{
layerId = "FB18B4D0-91BB-452D-ABF9-2813DD21CA3B";
paths = (
{
closed = 1;
nodes = (
"250 0 LINE",
"250 125 LINE",
"500 125 LINE",
"500 0 LINE"
);
},
{
closed = 1;
nodes = (
"125 125 LINE",
"125 250 LINE",
"250 250 LINE",
"250 125 LINE"
);
},
{
closed = 1;
nodes = (
"500 125 LINE",
"500 250 LINE",
"625 250 LINE",
"625 125 LINE"
);
},
{
closed = 1;
nodes = (
"0 250 LINE",
"0 625 LINE",
"125 625 LINE",
"125 500 LINE",
"625 500 LINE",
"625 625 LINE",
"750 625 LINE",
"750 375 LINE",
"125 375 LINE",
"125 250 LINE"
);
},
{
closed = 1;
nodes = (
"125 625 LINE",
"125 750 LINE",
"250 750 LINE",
"250 625 LINE"
);
},
{
closed = 1;
nodes = (
"500 625 LINE",
"500 750 LINE",
"625 750 LINE",
"625 625 LINE"
);
},
{
closed = 1;
nodes = (
"250 750 LINE",
"250 875 LINE",
"500 875 LINE",
"500 750 LINE"
);
},
{
closed = 1;
nodes = (
"250 1000 LINE",
"250 1125 LINE",
"375 1125 LINE",
"375 1000 LINE"
);
},
{
closed = 1;
nodes = (
"500 1000 LINE",
"500 1125 LINE",
"625 1125 LINE",
"625 1000 LINE"
);
}
);
width = 875;
}
);
note = edieresis;
unicode = 00EB;
},
{
glyphname = egrave;
layers = (
{
layerId = "FB18B4D0-91BB-452D-ABF9-2813DD21CA3B";
paths = (
{
closed = 1;
nodes = (
"250 0 LINE",
"250 125 LINE",
"500 125 LINE",
"500 0 LINE"
);
},
{
closed = 1;
nodes = (
"125 125 LINE",
"125 250 LINE",
"250 250 LINE",
"250 125 LINE"
);
},
{
closed = 1;
nodes = (
"500 125 LINE",
"500 250 LINE",
"625 250 LINE",
"625 125 LINE"
);
},
{
closed = 1;
nodes = (
"0 250 LINE",
"0 625 LINE",
"125 625 LINE",
"125 500 LINE",
"625 500 LINE",
"625 625 LINE",
"750 625 LINE",
"750 375 LINE",
"125 375 LINE",
"125 250 LINE"
);
},
{
closed = 1;
nodes = (
"125 625 LINE",
"125 750 LINE",
"250 750 LINE",
"250 625 LINE"
);
},
{
closed = 1;
nodes = (
"500 625 LINE",
"500 750 LINE",
"625 750 LINE",
"625 625 LINE"
);
},
{
closed = 1;
nodes = (
"250 750 LINE",
"250 875 LINE",
"500 875 LINE",
"500 750 LINE"
);
},
{
closed = 1;
nodes = (
"375 1000 LINE",
"375 1125 LINE",
"500 1125 LINE",
"500 1000 LINE"
);
},
{
closed = 1;
nodes = (
"250 1125 LINE",
"250 1375 LINE",
"375 1375 LINE",
"375 1125 LINE"
);
}
);
width = 875;
}
);
note = egrave;
unicode = 00E8;
},
{
glyphname = f;
layers = (
{
layerId = "FB18B4D0-91BB-452D-ABF9-2813DD21CA3B";
paths = (
{
closed = 1;
nodes = (
"0 0 LINE",
"0 125 LINE",
"125 125 LINE",
"125 750 LINE",
"0 750 LINE",
"0 875 LINE",
"125 875 LINE",
"125 1000 LINE",
"250 1000 LINE",
"250 875 LINE",
"375 875 LINE",
"375 750 LINE",
"250 750 LINE",
"250 125 LINE",
"375 125 LINE",
"375 0 LINE"
);
},
{
closed = 1;
nodes = (
"250 1000 LINE",
"250 1125 LINE",
"500 1125 LINE",
"500 1000 LINE"
);
}
);
width = 625;
}
);
note = f;
unicode = 0066;
},
{
glyphname = g;
layers = (
{
layerId = "FB18B4D0-91BB-452D-ABF9-2813DD21CA3B";
paths = (
{
closed = 1;
nodes = (
"125 -375 LINE",
"125 -250 LINE",
"625 -250 LINE",
"625 -375 LINE"
);
},
{
closed = 1;
nodes = (
"0 -250 LINE",
"0 0 LINE",
"125 0 LINE",
"125 -250 LINE"
);
},
{
closed = 1;
nodes = (
"625 -250 LINE",
"625 0 LINE",
"750 0 LINE",
"750 -250 LINE"
);
},
{
closed = 1;
nodes = (
"125 0 LINE",
"125 125 LINE",
"625 125 LINE",
"625 0 LINE"
);
},
{
closed = 1;
nodes = (
"0 125 LINE",
"0 250 LINE",
"125 250 LINE",
"125 125 LINE"
);
},
{
closed = 1;
nodes = (
"125 250 LINE",
"125 375 LINE",
"500 375 LINE",
"500 250 LINE"
);
},
{
closed = 1;
nodes = (
"0 375 LINE",
"0 750 LINE",
"125 750 LINE",
"125 375 LINE"
);
},
{
closed = 1;
nodes = (
"500 375 LINE",
"500 750 LINE",
"625 750 LINE",
"625 375 LINE"
);
},
{
closed = 1;
nodes = (
"125 750 LINE",
"125 875 LINE",
"500 875 LINE",
"500 750 LINE"
);
},
{
closed = 1;
nodes = (
"625 750 LINE",
"625 875 LINE",
"750 875 LINE",
"750 750 LINE"
);
}
);
width = 875;
}
);
note = g;
unicode = 0067;
},
{
glyphname = h;
layers = (
{
layerId = "FB18B4D0-91BB-452D-ABF9-2813DD21CA3B";
paths = (
{
closed = 1;
nodes = (
"500 0 LINE",
"500 125 LINE",
"625 125 LINE",
"625 750 LINE",
"750 750 LINE",
"750 125 LINE",
"875 125 LINE",
"875 0 LINE"
);
},
{
closed = 1;
nodes = (
"375 750 LINE",
"375 875 LINE",
"625 875 LINE",
"625 750 LINE"
);
},
{
closed = 1;
nodes = (
"0 0 LINE",
"0 125 LINE",
"125 125 LINE",
"125 875 LINE",
"0 875 LINE",
"0 1000 LINE",
"125 1000 LINE",
"125 1125 LINE",
"250 1125 LINE",
"250 750 LINE",
"375 750 LINE",
"375 625 LINE",
"250 625 LINE",
"250 125 LINE",
"375 125 LINE",
"375 0 LINE"
);
}
);
width = 1000;
}
);
note = h;
unicode = 0068;
},
{
glyphname = i;
layers = (
{
layerId = "FB18B4D0-91BB-452D-ABF9-2813DD21CA3B";
paths = (
{
closed = 1;
nodes = (
"0 0 LINE",
"0 125 LINE",
"125 125 LINE",
"125 625 LINE",
"0 625 LINE",
"0 750 LINE",
"125 750 LINE",
"125 875 LINE",
"250 875 LINE",
"250 125 LINE",
"375 125 LINE",
"375 0 LINE"
);
},
{
closed = 1;
nodes = (
"125 1000 LINE",
"125 1125 LINE",
"250 1125 LINE",
"250 1000 LINE"
);
}
);
width = 500;
}
);
note = i;
unicode = 0069;
},
{
glyphname = iacute;
layers = (
{
layerId = "FB18B4D0-91BB-452D-ABF9-2813DD21CA3B";
paths = (
{
closed = 1;
nodes = (
"0 0 LINE",
"0 125 LINE",
"125 125 LINE",
"125 625 LINE",
"0 625 LINE",
"0 750 LINE",
"125 750 LINE",
"125 875 LINE",
"250 875 LINE",
"250 125 LINE",
"375 125 LINE",
"375 0 LINE"
);
},
{
closed = 1;
nodes = (
"125 1000 LINE",
"125 1125 LINE",
"250 1125 LINE",
"250 1000 LINE"
);
},
{
closed = 1;
nodes = (
"125 1250 LINE",
"125 1375 LINE",
"250 1375 LINE",
"250 1250 LINE"
);
},
{
closed = 1;
nodes = (
"250 1375 LINE",
"250 1625 LINE",
"375 1625 LINE",
"375 1375 LINE"
);
}
);
width = 500;
}
);
note = iacute;
unicode = 00ED;
},
{
glyphname = icircumflex;
layers = (
{
layerId = "FB18B4D0-91BB-452D-ABF9-2813DD21CA3B";
paths = (
{
closed = 1;
nodes = (
"0 0 LINE",
"0 125 LINE",
"125 125 LINE",
"125 625 LINE",
"0 625 LINE",
"0 750 LINE",
"125 750 LINE",
"125 875 LINE",
"250 875 LINE",
"250 125 LINE",
"375 125 LINE",
"375 0 LINE"
);
},
{
closed = 1;
nodes = (
"125 1000 LINE",
"125 1125 LINE",
"250 1125 LINE",
"250 1000 LINE"
);
},
{
closed = 1;
nodes = (
"0 1250 LINE",
"0 1375 LINE",
"125 1375 LINE",
"125 1250 LINE"
);
},
{
closed = 1;
nodes = (
"250 1250 LINE",
"250 1375 LINE",
"375 1375 LINE",
"375 1250 LINE"
);
},
{
closed = 1;
nodes = (
"125 1375 LINE",
"125 1500 LINE",
"250 1500 LINE",
"250 1375 LINE"
);
}
);
width = 500;
}
);
note = icircumflex;
unicode = 00EE;
},
{
glyphname = idieresis;
layers = (
{
layerId = "FB18B4D0-91BB-452D-ABF9-2813DD21CA3B";
paths = (
{
closed = 1;
nodes = (
"0 0 LINE",
"0 125 LINE",
"125 125 LINE",
"125 625 LINE",
"0 625 LINE",
"0 750 LINE",
"125 750 LINE",
"125 875 LINE",
"250 875 LINE",
"250 125 LINE",
"375 125 LINE",
"375 0 LINE"
);
},
{
closed = 1;
nodes = (
"125 1000 LINE",
"125 1125 LINE",
"250 1125 LINE",
"250 1000 LINE"
);
},
{
closed = 1;
nodes = (
"0 1250 LINE",
"0 1375 LINE",
"125 1375 LINE",
"125 1250 LINE"
);
},
{
closed = 1;
nodes = (
"250 1250 LINE",
"250 1375 LINE",
"375 1375 LINE",
"375 1250 LINE"
);
}
);
width = 500;
}
);
note = idieresis;
unicode = 00EF;
},
{
glyphname = igrave;
layers = (
{
layerId = "FB18B4D0-91BB-452D-ABF9-2813DD21CA3B";
paths = (
{
closed = 1;
nodes = (
"0 0 LINE",
"0 125 LINE",
"125 125 LINE",
"125 625 LINE",
"0 625 LINE",
"0 750 LINE",
"125 750 LINE",
"125 875 LINE",
"250 875 LINE",
"250 125 LINE",
"375 125 LINE",
"375 0 LINE"
);
},
{
closed = 1;
nodes = (
"125 1000 LINE",
"125 1125 LINE",
"250 1125 LINE",
"250 1000 LINE"
);
},
{
closed = 1;
nodes = (
"125 1250 LINE",
"125 1375 LINE",
"250 1375 LINE",
"250 1250 LINE"
);
},
{
closed = 1;
nodes = (
"0 1375 LINE",
"0 1625 LINE",
"125 1625 LINE",
"125 1375 LINE"
);
}
);
width = 500;
}
);
note = igrave;
unicode = 00EC;
},
{
glyphname = j;
layers = (
{
layerId = "FB18B4D0-91BB-452D-ABF9-2813DD21CA3B";
paths = (
{
closed = 1;
nodes = (
"0 -375 LINE",
"0 -250 LINE",
"125 -250 LINE",
"125 -375 LINE"
);
},
{
closed = 1;
nodes = (
"125 -250 LINE",
"125 625 LINE",
"0 625 LINE",
"0 750 LINE",
"125 750 LINE",
"125 875 LINE",
"250 875 LINE",
"250 -250 LINE"
);
},
{
closed = 1;
nodes = (
"125 1000 LINE",
"125 1125 LINE",
"250 1125 LINE",
"250 1000 LINE"
);
}
);
width = 375;
}
);
note = j;
unicode = 006A;
},
{
glyphname = k;
layers = (
{
layerId = "FB18B4D0-91BB-452D-ABF9-2813DD21CA3B";
paths = (
{
closed = 1;
nodes = (
"500 0 LINE",
"500 250 LINE",
"625 250 LINE",
"625 125 LINE",
"875 125 LINE",
"875 0 LINE"
);
},
{
closed = 1;
nodes = (
"375 250 LINE",
"375 375 LINE",
"500 375 LINE",
"500 250 LINE"
);
},
{
closed = 1;
nodes = (
"375 500 LINE",
"375 625 LINE",
"500 625 LINE",
"500 500 LINE"
);
},
{
closed = 1;
nodes = (
"500 625 LINE",
"500 875 LINE",
"750 875 LINE",
"750 750 LINE",
"625 750 LINE",
"625 625 LINE"
);
},
{
closed = 1;
nodes = (
"0 0 LINE",
"0 125 LINE",
"125 125 LINE",
"125 875 LINE",
"0 875 LINE",
"0 1000 LINE",
"125 1000 LINE",
"125 1125 LINE",
"250 1125 LINE",
"250 500 LINE",
"375 500 LINE",
"375 375 LINE",
"250 375 LINE",
"250 125 LINE",
"375 125 LINE",
"375 0 LINE"
);
}
);
width = 1000;
}
);
note = k;
unicode = 006B;
},
{
glyphname = l;
layers = (
{
layerId = "FB18B4D0-91BB-452D-ABF9-2813DD21CA3B";
paths = (
{
closed = 1;
nodes = (
"0 0 LINE",
"0 125 LINE",
"125 125 LINE",
"125 875 LINE",
"0 875 LINE",
"0 1000 LINE",
"125 1000 LINE",
"125 1125 LINE",
"250 1125 LINE",
"250 125 LINE",
"375 125 LINE",
"375 0 LINE"
);
}
);
width = 500;
}
);
note = l;
unicode = 006C;
},
{
glyphname = m;
layers = (
{
layerId = "FB18B4D0-91BB-452D-ABF9-2813DD21CA3B";
paths = (
{
closed = 1;
nodes = (
"500 0 LINE",
"500 125 LINE",
"625 125 LINE",
"625 750 LINE",
"875 750 LINE",
"875 625 LINE",
"750 625 LINE",
"750 125 LINE",
"875 125 LINE",
"875 0 LINE"
);
},
{
closed = 1;
nodes = (
"1000 0 LINE",
"1000 125 LINE",
"1125 125 LINE",
"1125 750 LINE",
"1250 750 LINE",
"1250 125 LINE",
"1375 125 LINE",
"1375 0 LINE"
);
},
{
closed = 1;
nodes = (
"0 0 LINE",
"0 125 LINE",
"125 125 LINE",
"125 625 LINE",
"0 625 LINE",
"0 750 LINE",
"125 750 LINE",
"125 875 LINE",
"250 875 LINE",
"250 750 LINE",
"375 750 LINE",
"375 625 LINE",
"250 625 LINE",
"250 125 LINE",
"375 125 LINE",
"375 0 LINE"
);
},
{
closed = 1;
nodes = (
"375 750 LINE",
"375 875 LINE",
"625 875 LINE",
"625 750 LINE"
);
},
{
closed = 1;
nodes = (
"875 750 LINE",
"875 875 LINE",
"1125 875 LINE",
"1125 750 LINE"
);
}
);
width = 1500;
}
);
note = m;
unicode = 006D;
},
{
glyphname = n;
layers = (
{
layerId = "FB18B4D0-91BB-452D-ABF9-2813DD21CA3B";
paths = (
{
closed = 1;
nodes = (
"500 0 LINE",
"500 125 LINE",
"625 125 LINE",
"625 750 LINE",
"750 750 LINE",
"750 125 LINE",
"875 125 LINE",
"875 0 LINE"
);
},
{
closed = 1;
nodes = (
"0 0 LINE",
"0 125 LINE",
"125 125 LINE",
"125 625 LINE",
"0 625 LINE",
"0 750 LINE",
"125 750 LINE",
"125 875 LINE",
"250 875 LINE",
"250 750 LINE",
"375 750 LINE",
"375 625 LINE",
"250 625 LINE",
"250 125 LINE",
"375 125 LINE",
"375 0 LINE"
);
},
{
closed = 1;
nodes = (
"375 750 LINE",
"375 875 LINE",
"625 875 LINE",
"625 750 LINE"
);
}
);
width = 1000;
}
);
note = n;
unicode = 006E;
},
{
glyphname = ntilde;
layers = (
{
layerId = "FB18B4D0-91BB-452D-ABF9-2813DD21CA3B";
paths = (
{
closed = 1;
nodes = (
"500 0 LINE",
"500 125 LINE",
"625 125 LINE",
"625 750 LINE",
"750 750 LINE",
"750 125 LINE",
"875 125 LINE",
"875 0 LINE"
);
},
{
closed = 1;
nodes = (
"0 0 LINE",
"0 125 LINE",
"125 125 LINE",
"125 625 LINE",
"0 625 LINE",
"0 750 LINE",
"125 750 LINE",
"125 875 LINE",
"250 875 LINE",
"250 750 LINE",
"375 750 LINE",
"375 625 LINE",
"250 625 LINE",
"250 125 LINE",
"375 125 LINE",
"375 0 LINE"
);
},
{
closed = 1;
nodes = (
"375 750 LINE",
"375 875 LINE",
"625 875 LINE",
"625 750 LINE"
);
},
{
closed = 1;
nodes = (
"500 1000 LINE",
"500 1125 LINE",
"625 1125 LINE",
"625 1000 LINE"
);
},
{
closed = 1;
nodes = (
"0 1000 LINE",
"0 1250 LINE",
"125 1250 LINE",
"125 1000 LINE"
);
},
{
closed = 1;
nodes = (
"375 1125 LINE",
"375 1250 LINE",
"500 1250 LINE",
"500 1125 LINE"
);
},
{
closed = 1;
nodes = (
"125 1250 LINE",
"125 1375 LINE",
"375 1375 LINE",
"375 1250 LINE"
);
},
{
closed = 1;
nodes = (
"625 1125 LINE",
"625 1375 LINE",
"750 1375 LINE",
"750 1125 LINE"
);
}
);
width = 1000;
}
);
note = ntilde;
unicode = 00F1;
},
{
glyphname = o;
layers = (
{
layerId = "FB18B4D0-91BB-452D-ABF9-2813DD21CA3B";
paths = (
{
closed = 1;
nodes = (
"250 0 LINE",
"250 125 LINE",
"500 125 LINE",
"500 0 LINE"
);
},
{
closed = 1;
nodes = (
"125 125 LINE",
"125 250 LINE",
"250 250 LINE",
"250 125 LINE"
);
},
{
closed = 1;
nodes = (
"500 125 LINE",
"500 250 LINE",
"625 250 LINE",
"625 125 LINE"
);
},
{
closed = 1;
nodes = (
"0 250 LINE",
"0 625 LINE",
"125 625 LINE",
"125 250 LINE"
);
},
{
closed = 1;
nodes = (
"625 250 LINE",
"625 625 LINE",
"750 625 LINE",
"750 250 LINE"
);
},
{
closed = 1;
nodes = (
"125 625 LINE",
"125 750 LINE",
"250 750 LINE",
"250 625 LINE"
);
},
{
closed = 1;
nodes = (
"500 625 LINE",
"500 750 LINE",
"625 750 LINE",
"625 625 LINE"
);
},
{
closed = 1;
nodes = (
"250 750 LINE",
"250 875 LINE",
"500 875 LINE",
"500 750 LINE"
);
}
);
width = 875;
}
);
note = o;
unicode = 006F;
},
{
glyphname = oacute;
layers = (
{
layerId = "FB18B4D0-91BB-452D-ABF9-2813DD21CA3B";
paths = (
{
closed = 1;
nodes = (
"250 0 LINE",
"250 125 LINE",
"500 125 LINE",
"500 0 LINE"
);
},
{
closed = 1;
nodes = (
"125 125 LINE",
"125 250 LINE",
"250 250 LINE",
"250 125 LINE"
);
},
{
closed = 1;
nodes = (
"500 125 LINE",
"500 250 LINE",
"625 250 LINE",
"625 125 LINE"
);
},
{
closed = 1;
nodes = (
"0 250 LINE",
"0 625 LINE",
"125 625 LINE",
"125 250 LINE"
);
},
{
closed = 1;
nodes = (
"625 250 LINE",
"625 625 LINE",
"750 625 LINE",
"750 250 LINE"
);
},
{
closed = 1;
nodes = (
"125 625 LINE",
"125 750 LINE",
"250 750 LINE",
"250 625 LINE"
);
},
{
closed = 1;
nodes = (
"500 625 LINE",
"500 750 LINE",
"625 750 LINE",
"625 625 LINE"
);
},
{
closed = 1;
nodes = (
"250 750 LINE",
"250 875 LINE",
"500 875 LINE",
"500 750 LINE"
);
},
{
closed = 1;
nodes = (
"375 1000 LINE",
"375 1125 LINE",
"500 1125 LINE",
"500 1000 LINE"
);
},
{
closed = 1;
nodes = (
"500 1125 LINE",
"500 1375 LINE",
"625 1375 LINE",
"625 1125 LINE"
);
}
);
width = 875;
}
);
note = oacute;
unicode = 00F3;
},
{
glyphname = ocircumflex;
layers = (
{
layerId = "FB18B4D0-91BB-452D-ABF9-2813DD21CA3B";
paths = (
{
closed = 1;
nodes = (
"250 0 LINE",
"250 125 LINE",
"500 125 LINE",
"500 0 LINE"
);
},
{
closed = 1;
nodes = (
"125 125 LINE",
"125 250 LINE",
"250 250 LINE",
"250 125 LINE"
);
},
{
closed = 1;
nodes = (
"500 125 LINE",
"500 250 LINE",
"625 250 LINE",
"625 125 LINE"
);
},
{
closed = 1;
nodes = (
"0 250 LINE",
"0 625 LINE",
"125 625 LINE",
"125 250 LINE"
);
},
{
closed = 1;
nodes = (
"625 250 LINE",
"625 625 LINE",
"750 625 LINE",
"750 250 LINE"
);
},
{
closed = 1;
nodes = (
"125 625 LINE",
"125 750 LINE",
"250 750 LINE",
"250 625 LINE"
);
},
{
closed = 1;
nodes = (
"500 625 LINE",
"500 750 LINE",
"625 750 LINE",
"625 625 LINE"
);
},
{
closed = 1;
nodes = (
"250 750 LINE",
"250 875 LINE",
"500 875 LINE",
"500 750 LINE"
);
},
{
closed = 1;
nodes = (
"250 1000 LINE",
"250 1125 LINE",
"375 1125 LINE",
"375 1000 LINE"
);
},
{
closed = 1;
nodes = (
"500 1000 LINE",
"500 1125 LINE",
"625 1125 LINE",
"625 1000 LINE"
);
},
{
closed = 1;
nodes = (
"375 1125 LINE",
"375 1250 LINE",
"500 1250 LINE",
"500 1125 LINE"
);
}
);
width = 875;
}
);
note = ocircumflex;
unicode = 00F4;
},
{
glyphname = odieresis;
layers = (
{
layerId = "FB18B4D0-91BB-452D-ABF9-2813DD21CA3B";
paths = (
{
closed = 1;
nodes = (
"250 0 LINE",
"250 125 LINE",
"500 125 LINE",
"500 0 LINE"
);
},
{
closed = 1;
nodes = (
"125 125 LINE",
"125 250 LINE",
"250 250 LINE",
"250 125 LINE"
);
},
{
closed = 1;
nodes = (
"500 125 LINE",
"500 250 LINE",
"625 250 LINE",
"625 125 LINE"
);
},
{
closed = 1;
nodes = (
"0 250 LINE",
"0 625 LINE",
"125 625 LINE",
"125 250 LINE"
);
},
{
closed = 1;
nodes = (
"625 250 LINE",
"625 625 LINE",
"750 625 LINE",
"750 250 LINE"
);
},
{
closed = 1;
nodes = (
"125 625 LINE",
"125 750 LINE",
"250 750 LINE",
"250 625 LINE"
);
},
{
closed = 1;
nodes = (
"500 625 LINE",
"500 750 LINE",
"625 750 LINE",
"625 625 LINE"
);
},
{
closed = 1;
nodes = (
"250 750 LINE",
"250 875 LINE",
"500 875 LINE",
"500 750 LINE"
);
},
{
closed = 1;
nodes = (
"250 1000 LINE",
"250 1125 LINE",
"375 1125 LINE",
"375 1000 LINE"
);
},
{
closed = 1;
nodes = (
"500 1000 LINE",
"500 1125 LINE",
"625 1125 LINE",
"625 1000 LINE"
);
}
);
width = 875;
}
);
note = odieresis;
unicode = 00F6;
},
{
glyphname = ograve;
layers = (
{
layerId = "FB18B4D0-91BB-452D-ABF9-2813DD21CA3B";
paths = (
{
closed = 1;
nodes = (
"250 0 LINE",
"250 125 LINE",
"500 125 LINE",
"500 0 LINE"
);
},
{
closed = 1;
nodes = (
"125 125 LINE",
"125 250 LINE",
"250 250 LINE",
"250 125 LINE"
);
},
{
closed = 1;
nodes = (
"500 125 LINE",
"500 250 LINE",
"625 250 LINE",
"625 125 LINE"
);
},
{
closed = 1;
nodes = (
"0 250 LINE",
"0 625 LINE",
"125 625 LINE",
"125 250 LINE"
);
},
{
closed = 1;
nodes = (
"625 250 LINE",
"625 625 LINE",
"750 625 LINE",
"750 250 LINE"
);
},
{
closed = 1;
nodes = (
"125 625 LINE",
"125 750 LINE",
"250 750 LINE",
"250 625 LINE"
);
},
{
closed = 1;
nodes = (
"500 625 LINE",
"500 750 LINE",
"625 750 LINE",
"625 625 LINE"
);
},
{
closed = 1;
nodes = (
"250 750 LINE",
"250 875 LINE",
"500 875 LINE",
"500 750 LINE"
);
},
{
closed = 1;
nodes = (
"375 1000 LINE",
"375 1125 LINE",
"500 1125 LINE",
"500 1000 LINE"
);
},
{
closed = 1;
nodes = (
"250 1125 LINE",
"250 1375 LINE",
"375 1375 LINE",
"375 1125 LINE"
);
}
);
width = 875;
}
);
note = ograve;
unicode = 00F2;
},
{
glyphname = oslash;
layers = (
{
layerId = "FB18B4D0-91BB-452D-ABF9-2813DD21CA3B";
paths = (
{
closed = 1;
nodes = (
"0 0 LINE",
"0 125 LINE",
"125 125 LINE",
"125 0 LINE"
);
},
{
closed = 1;
nodes = (
"250 0 LINE",
"250 125 LINE",
"500 125 LINE",
"500 0 LINE"
);
},
{
closed = 1;
nodes = (
"125 125 LINE",
"125 250 LINE",
"250 250 LINE",
"250 125 LINE"
);
},
{
closed = 1;
nodes = (
"500 125 LINE",
"500 250 LINE",
"625 250 LINE",
"625 125 LINE"
);
},
{
closed = 1;
nodes = (
"250 250 LINE",
"250 500 LINE",
"375 500 LINE",
"375 250 LINE"
);
},
{
closed = 1;
nodes = (
"0 250 LINE",
"0 625 LINE",
"125 625 LINE",
"125 250 LINE"
);
},
{
closed = 1;
nodes = (
"375 500 LINE",
"375 625 LINE",
"500 625 LINE",
"500 500 LINE"
);
},
{
closed = 1;
nodes = (
"625 250 LINE",
"625 625 LINE",
"750 625 LINE",
"750 250 LINE"
);
},
{
closed = 1;
nodes = (
"125 625 LINE",
"125 750 LINE",
"250 750 LINE",
"250 625 LINE"
);
},
{
closed = 1;
nodes = (
"500 625 LINE",
"500 750 LINE",
"625 750 LINE",
"625 625 LINE"
);
},
{
closed = 1;
nodes = (
"250 750 LINE",
"250 875 LINE",
"500 875 LINE",
"500 750 LINE"
);
},
{
closed = 1;
nodes = (
"625 750 LINE",
"625 875 LINE",
"750 875 LINE",
"750 750 LINE"
);
}
);
width = 875;
}
);
note = oslash;
unicode = 00F8;
},
{
glyphname = otilde;
layers = (
{
layerId = "FB18B4D0-91BB-452D-ABF9-2813DD21CA3B";
paths = (
{
closed = 1;
nodes = (
"250 0 LINE",
"250 125 LINE",
"500 125 LINE",
"500 0 LINE"
);
},
{
closed = 1;
nodes = (
"125 125 LINE",
"125 250 LINE",
"250 250 LINE",
"250 125 LINE"
);
},
{
closed = 1;
nodes = (
"500 125 LINE",
"500 250 LINE",
"625 250 LINE",
"625 125 LINE"
);
},
{
closed = 1;
nodes = (
"0 250 LINE",
"0 625 LINE",
"125 625 LINE",
"125 250 LINE"
);
},
{
closed = 1;
nodes = (
"625 250 LINE",
"625 625 LINE",
"750 625 LINE",
"750 250 LINE"
);
},
{
closed = 1;
nodes = (
"125 625 LINE",
"125 750 LINE",
"250 750 LINE",
"250 625 LINE"
);
},
{
closed = 1;
nodes = (
"500 625 LINE",
"500 750 LINE",
"625 750 LINE",
"625 625 LINE"
);
},
{
closed = 1;
nodes = (
"250 750 LINE",
"250 875 LINE",
"500 875 LINE",
"500 750 LINE"
);
}
);
width = 875;
}
);
note = otilde;
unicode = 00F5;
},
{
glyphname = p;
layers = (
{
layerId = "FB18B4D0-91BB-452D-ABF9-2813DD21CA3B";
paths = (
{
closed = 1;
nodes = (
"375 0 LINE",
"375 125 LINE",
"625 125 LINE",
"625 0 LINE"
);
},
{
closed = 1;
nodes = (
"625 125 LINE",
"625 250 LINE",
"750 250 LINE",
"750 125 LINE"
);
},
{
closed = 1;
nodes = (
"750 250 LINE",
"750 625 LINE",
"875 625 LINE",
"875 250 LINE"
);
},
{
closed = 1;
nodes = (
"625 625 LINE",
"625 750 LINE",
"750 750 LINE",
"750 625 LINE"
);
},
{
closed = 1;
nodes = (
"0 -375 LINE",
"0 -250 LINE",
"125 -250 LINE",
"125 750 LINE",
"0 750 LINE",
"0 875 LINE",
"625 875 LINE",
"625 750 LINE",
"250 750 LINE",
"250 250 LINE",
"375 250 LINE",
"375 125 LINE",
"250 125 LINE",
"250 -250 LINE",
"375 -250 LINE",
"375 -375 LINE"
);
}
);
width = 1000;
}
);
note = p;
unicode = 0070;
},
{
glyphname = thorn;
layers = (
{
layerId = "FB18B4D0-91BB-452D-ABF9-2813DD21CA3B";
paths = (
{
closed = 1;
nodes = (
"625 375 LINE",
"625 875 LINE",
"750 875 LINE",
"750 375 LINE"
);
},
{
closed = 1;
nodes = (
"0 0 LINE",
"0 1250 LINE",
"125 1250 LINE",
"125 1000 LINE",
"625 1000 LINE",
"625 875 LINE",
"125 875 LINE",
"125 375 LINE",
"625 375 LINE",
"625 250 LINE",
"125 250 LINE",
"125 0 LINE"
);
}
);
width = 875;
}
);
note = thorn;
unicode = 00FE;
},
{
glyphname = q;
layers = (
{
layerId = "FB18B4D0-91BB-452D-ABF9-2813DD21CA3B";
paths = (
{
closed = 1;
nodes = (
"250 0 LINE",
"250 125 LINE",
"500 125 LINE",
"500 0 LINE"
);
},
{
closed = 1;
nodes = (
"125 125 LINE",
"125 250 LINE",
"250 250 LINE",
"250 125 LINE"
);
},
{
closed = 1;
nodes = (
"0 250 LINE",
"0 625 LINE",
"125 625 LINE",
"125 250 LINE"
);
},
{
closed = 1;
nodes = (
"125 625 LINE",
"125 750 LINE",
"250 750 LINE",
"250 625 LINE"
);
},
{
closed = 1;
nodes = (
"500 -375 LINE",
"500 -250 LINE",
"625 -250 LINE",
"625 125 LINE",
"500 125 LINE",
"500 250 LINE",
"625 250 LINE",
"625 750 LINE",
"250 750 LINE",
"250 875 LINE",
"875 875 LINE",
"875 750 LINE",
"750 750 LINE",
"750 -250 LINE",
"875 -250 LINE",
"875 -375 LINE"
);
}
);
width = 1000;
}
);
note = q;
unicode = 0071;
},
{
glyphname = r;
layers = (
{
layerId = "FB18B4D0-91BB-452D-ABF9-2813DD21CA3B";
paths = (
{
closed = 1;
nodes = (
"0 0 LINE",
"0 125 LINE",
"125 125 LINE",
"125 625 LINE",
"0 625 LINE",
"0 750 LINE",
"125 750 LINE",
"125 875 LINE",
"250 875 LINE",
"250 750 LINE",
"375 750 LINE",
"375 625 LINE",
"250 625 LINE",
"250 125 LINE",
"375 125 LINE",
"375 0 LINE"
);
},
{
closed = 1;
nodes = (
"375 750 LINE",
"375 875 LINE",
"625 875 LINE",
"625 750 LINE"
);
}
);
width = 750;
}
);
note = r;
unicode = 0072;
},
{
glyphname = s;
layers = (
{
layerId = "FB18B4D0-91BB-452D-ABF9-2813DD21CA3B";
paths = (
{
closed = 1;
nodes = (
"125 0 LINE",
"125 125 LINE",
"500 125 LINE",
"500 0 LINE"
);
},
{
closed = 1;
nodes = (
"0 125 LINE",
"0 250 LINE",
"125 250 LINE",
"125 125 LINE"
);
},
{
closed = 1;
nodes = (
"500 125 LINE",
"500 375 LINE",
"625 375 LINE",
"625 125 LINE"
);
},
{
closed = 1;
nodes = (
"125 375 LINE",
"125 500 LINE",
"500 500 LINE",
"500 375 LINE"
);
},
{
closed = 1;
nodes = (
"0 500 LINE",
"0 750 LINE",
"125 750 LINE",
"125 500 LINE"
);
},
{
closed = 1;
nodes = (
"500 625 LINE",
"500 750 LINE",
"625 750 LINE",
"625 625 LINE"
);
},
{
closed = 1;
nodes = (
"125 750 LINE",
"125 875 LINE",
"500 875 LINE",
"500 750 LINE"
);
}
);
width = 750;
}
);
note = s;
unicode = 0073;
},
{
glyphname = germandbls;
layers = (
{
layerId = "FB18B4D0-91BB-452D-ABF9-2813DD21CA3B";
paths = (
{
closed = 1;
nodes = (
"500 0 LINE",
"500 125 LINE",
"625 125 LINE",
"625 0 LINE"
);
},
{
closed = 1;
nodes = (
"625 125 LINE",
"625 250 LINE",
"750 250 LINE",
"750 125 LINE"
);
},
{
closed = 1;
nodes = (
"750 250 LINE",
"750 500 LINE",
"875 500 LINE",
"875 250 LINE"
);
},
{
closed = 1;
nodes = (
"625 500 LINE",
"625 625 LINE",
"750 625 LINE",
"750 500 LINE"
);
},
{
closed = 1;
nodes = (
"625 750 LINE",
"625 1000 LINE",
"750 1000 LINE",
"750 750 LINE"
);
},
{
closed = 1;
nodes = (
"0 0 LINE",
"0 125 LINE",
"125 125 LINE",
"125 1000 LINE",
"0 1000 LINE",
"0 1125 LINE",
"625 1125 LINE",
"625 1000 LINE",
"250 1000 LINE",
"250 750 LINE",
"625 750 LINE",
"625 625 LINE",
"250 625 LINE",
"250 0 LINE"
);
}
);
width = 1000;
}
);
note = germandbls;
unicode = 00DF;
},
{
glyphname = t;
layers = (
{
layerId = "FB18B4D0-91BB-452D-ABF9-2813DD21CA3B";
paths = (
{
closed = 1;
nodes = (
"250 0 LINE",
"250 125 LINE",
"500 125 LINE",
"500 0 LINE"
);
},
{
closed = 1;
nodes = (
"500 125 LINE",
"500 250 LINE",
"625 250 LINE",
"625 125 LINE"
);
},
{
closed = 1;
nodes = (
"125 125 LINE",
"125 750 LINE",
"0 750 LINE",
"0 875 LINE",
"125 875 LINE",
"125 1125 LINE",
"250 1125 LINE",
"250 875 LINE",
"500 875 LINE",
"500 750 LINE",
"250 750 LINE",
"250 125 LINE"
);
}
);
width = 750;
}
);
note = t;
unicode = 0074;
},
{
glyphname = u;
layers = (
{
layerId = "FB18B4D0-91BB-452D-ABF9-2813DD21CA3B";
paths = (
{
closed = 1;
nodes = (
"250 0 LINE",
"250 125 LINE",
"625 125 LINE",
"625 0 LINE"
);
},
{
closed = 1;
nodes = (
"750 0 LINE",
"750 125 LINE",
"875 125 LINE",
"875 0 LINE"
);
},
{
closed = 1;
nodes = (
"125 125 LINE",
"125 750 LINE",
"0 750 LINE",
"0 875 LINE",
"250 875 LINE",
"250 125 LINE"
);
},
{
closed = 1;
nodes = (
"625 125 LINE",
"625 750 LINE",
"500 750 LINE",
"500 875 LINE",
"750 875 LINE",
"750 125 LINE"
);
}
);
width = 1000;
}
);
note = u;
unicode = 0075;
},
{
glyphname = uacute;
layers = (
{
layerId = "FB18B4D0-91BB-452D-ABF9-2813DD21CA3B";
paths = (
{
closed = 1;
nodes = (
"250 0 LINE",
"250 125 LINE",
"625 125 LINE",
"625 0 LINE"
);
},
{
closed = 1;
nodes = (
"750 0 LINE",
"750 125 LINE",
"875 125 LINE",
"875 0 LINE"
);
},
{
closed = 1;
nodes = (
"125 125 LINE",
"125 750 LINE",
"0 750 LINE",
"0 875 LINE",
"250 875 LINE",
"250 125 LINE"
);
},
{
closed = 1;
nodes = (
"625 125 LINE",
"625 750 LINE",
"500 750 LINE",
"500 875 LINE",
"750 875 LINE",
"750 125 LINE"
);
},
{
closed = 1;
nodes = (
"375 1000 LINE",
"375 1125 LINE",
"500 1125 LINE",
"500 1000 LINE"
);
},
{
closed = 1;
nodes = (
"500 1125 LINE",
"500 1375 LINE",
"625 1375 LINE",
"625 1125 LINE"
);
}
);
width = 1000;
}
);
note = uacute;
unicode = 00FA;
},
{
glyphname = ucircumflex;
layers = (
{
layerId = "FB18B4D0-91BB-452D-ABF9-2813DD21CA3B";
paths = (
{
closed = 1;
nodes = (
"250 0 LINE",
"250 125 LINE",
"625 125 LINE",
"625 0 LINE"
);
},
{
closed = 1;
nodes = (
"750 0 LINE",
"750 125 LINE",
"875 125 LINE",
"875 0 LINE"
);
},
{
closed = 1;
nodes = (
"125 125 LINE",
"125 750 LINE",
"0 750 LINE",
"0 875 LINE",
"250 875 LINE",
"250 125 LINE"
);
},
{
closed = 1;
nodes = (
"625 125 LINE",
"625 750 LINE",
"500 750 LINE",
"500 875 LINE",
"750 875 LINE",
"750 125 LINE"
);
},
{
closed = 1;
nodes = (
"250 1000 LINE",
"250 1125 LINE",
"375 1125 LINE",
"375 1000 LINE"
);
},
{
closed = 1;
nodes = (
"500 1000 LINE",
"500 1125 LINE",
"625 1125 LINE",
"625 1000 LINE"
);
},
{
closed = 1;
nodes = (
"375 1125 LINE",
"375 1250 LINE",
"500 1250 LINE",
"500 1125 LINE"
);
}
);
width = 1000;
}
);
note = ucircumflex;
unicode = 00FB;
},
{
glyphname = udieresis;
layers = (
{
layerId = "FB18B4D0-91BB-452D-ABF9-2813DD21CA3B";
paths = (
{
closed = 1;
nodes = (
"250 0 LINE",
"250 125 LINE",
"625 125 LINE",
"625 0 LINE"
);
},
{
closed = 1;
nodes = (
"750 0 LINE",
"750 125 LINE",
"875 125 LINE",
"875 0 LINE"
);
},
{
closed = 1;
nodes = (
"125 125 LINE",
"125 750 LINE",
"0 750 LINE",
"0 875 LINE",
"250 875 LINE",
"250 125 LINE"
);
},
{
closed = 1;
nodes = (
"625 125 LINE",
"625 750 LINE",
"500 750 LINE",
"500 875 LINE",
"750 875 LINE",
"750 125 LINE"
);
},
{
closed = 1;
nodes = (
"250 1000 LINE",
"250 1125 LINE",
"375 1125 LINE",
"375 1000 LINE"
);
},
{
closed = 1;
nodes = (
"500 1000 LINE",
"500 1125 LINE",
"625 1125 LINE",
"625 1000 LINE"
);
}
);
width = 1000;
}
);
note = udieresis;
unicode = 00FC;
},
{
glyphname = ugrave;
layers = (
{
layerId = "FB18B4D0-91BB-452D-ABF9-2813DD21CA3B";
paths = (
{
closed = 1;
nodes = (
"250 0 LINE",
"250 125 LINE",
"625 125 LINE",
"625 0 LINE"
);
},
{
closed = 1;
nodes = (
"750 0 LINE",
"750 125 LINE",
"875 125 LINE",
"875 0 LINE"
);
},
{
closed = 1;
nodes = (
"125 125 LINE",
"125 750 LINE",
"0 750 LINE",
"0 875 LINE",
"250 875 LINE",
"250 125 LINE"
);
},
{
closed = 1;
nodes = (
"625 125 LINE",
"625 750 LINE",
"500 750 LINE",
"500 875 LINE",
"750 875 LINE",
"750 125 LINE"
);
},
{
closed = 1;
nodes = (
"375 1000 LINE",
"375 1125 LINE",
"500 1125 LINE",
"500 1000 LINE"
);
},
{
closed = 1;
nodes = (
"250 1125 LINE",
"250 1375 LINE",
"375 1375 LINE",
"375 1125 LINE"
);
}
);
width = 1000;
}
);
note = ugrave;
unicode = 00F9;
},
{
glyphname = uring;
layers = (
{
layerId = "FB18B4D0-91BB-452D-ABF9-2813DD21CA3B";
paths = (
{
closed = 1;
nodes = (
"250 0 LINE",
"250 125 LINE",
"625 125 LINE",
"625 0 LINE"
);
},
{
closed = 1;
nodes = (
"750 0 LINE",
"750 125 LINE",
"875 125 LINE",
"875 0 LINE"
);
},
{
closed = 1;
nodes = (
"125 125 LINE",
"125 750 LINE",
"0 750 LINE",
"0 875 LINE",
"250 875 LINE",
"250 125 LINE"
);
},
{
closed = 1;
nodes = (
"625 125 LINE",
"625 750 LINE",
"500 750 LINE",
"500 875 LINE",
"750 875 LINE",
"750 125 LINE"
);
}
);
width = 1000;
}
);
note = uring;
unicode = 016F;
},
{
glyphname = v;
layers = (
{
layerId = "FB18B4D0-91BB-452D-ABF9-2813DD21CA3B";
paths = (
{
closed = 1;
nodes = (
"375 0 LINE",
"375 250 LINE",
"500 250 LINE",
"500 0 LINE"
);
},
{
closed = 1;
nodes = (
"250 250 LINE",
"250 500 LINE",
"375 500 LINE",
"375 250 LINE"
);
},
{
closed = 1;
nodes = (
"500 250 LINE",
"500 500 LINE",
"625 500 LINE",
"625 250 LINE"
);
},
{
closed = 1;
nodes = (
"125 500 LINE",
"125 750 LINE",
"0 750 LINE",
"0 875 LINE",
"375 875 LINE",
"375 750 LINE",
"250 750 LINE",
"250 500 LINE"
);
},
{
closed = 1;
nodes = (
"625 500 LINE",
"625 750 LINE",
"500 750 LINE",
"500 875 LINE",
"875 875 LINE",
"875 750 LINE",
"750 750 LINE",
"750 500 LINE"
);
}
);
width = 1000;
}
);
note = v;
unicode = 0076;
},
{
glyphname = w;
layers = (
{
layerId = "FB18B4D0-91BB-452D-ABF9-2813DD21CA3B";
paths = (
{
closed = 1;
nodes = (
"375 0 LINE",
"375 250 LINE",
"500 250 LINE",
"500 0 LINE"
);
},
{
closed = 1;
nodes = (
"875 0 LINE",
"875 250 LINE",
"1000 250 LINE",
"1000 0 LINE"
);
},
{
closed = 1;
nodes = (
"250 250 LINE",
"250 500 LINE",
"375 500 LINE",
"375 250 LINE"
);
},
{
closed = 1;
nodes = (
"500 250 LINE",
"500 500 LINE",
"625 500 LINE",
"625 250 LINE"
);
},
{
closed = 1;
nodes = (
"750 250 LINE",
"750 500 LINE",
"875 500 LINE",
"875 250 LINE"
);
},
{
closed = 1;
nodes = (
"1000 250 LINE",
"1000 500 LINE",
"1125 500 LINE",
"1125 250 LINE"
);
},
{
closed = 1;
nodes = (
"625 500 LINE",
"625 750 LINE",
"750 750 LINE",
"750 500 LINE"
);
},
{
closed = 1;
nodes = (
"125 500 LINE",
"125 750 LINE",
"0 750 LINE",
"0 875 LINE",
"375 875 LINE",
"375 750 LINE",
"250 750 LINE",
"250 500 LINE"
);
},
{
closed = 1;
nodes = (
"1125 500 LINE",
"1125 750 LINE",
"1000 750 LINE",
"1000 875 LINE",
"1250 875 LINE",
"1250 500 LINE"
);
}
);
width = 1375;
}
);
note = w;
unicode = 0077;
},
{
glyphname = x;
layers = (
{
layerId = "FB18B4D0-91BB-452D-ABF9-2813DD21CA3B";
paths = (
{
closed = 1;
nodes = (
"125 0 LINE",
"125 125 LINE",
"250 125 LINE",
"250 250 LINE",
"375 250 LINE",
"375 125 LINE",
"500 125 LINE",
"500 0 LINE"
);
},
{
closed = 1;
nodes = (
"625 0 LINE",
"625 125 LINE",
"750 125 LINE",
"750 250 LINE",
"875 250 LINE",
"875 125 LINE",
"1000 125 LINE",
"1000 0 LINE"
);
},
{
closed = 1;
nodes = (
"375 250 LINE",
"375 375 LINE",
"500 375 LINE",
"500 250 LINE"
);
},
{
closed = 1;
nodes = (
"625 250 LINE",
"625 375 LINE",
"750 375 LINE",
"750 250 LINE"
);
},
{
closed = 1;
nodes = (
"500 375 LINE",
"500 500 LINE",
"625 500 LINE",
"625 375 LINE"
);
},
{
closed = 1;
nodes = (
"375 500 LINE",
"375 625 LINE",
"500 625 LINE",
"500 500 LINE"
);
},
{
closed = 1;
nodes = (
"625 500 LINE",
"625 625 LINE",
"750 625 LINE",
"750 500 LINE"
);
},
{
closed = 1;
nodes = (
"250 625 LINE",
"250 750 LINE",
"0 750 LINE",
"0 875 LINE",
"500 875 LINE",
"500 750 LINE",
"375 750 LINE",
"375 625 LINE"
);
},
{
closed = 1;
nodes = (
"750 625 LINE",
"750 750 LINE",
"625 750 LINE",
"625 875 LINE",
"1000 875 LINE",
"1000 750 LINE",
"875 750 LINE",
"875 625 LINE"
);
}
);
width = 1125;
}
);
note = x;
unicode = 0078;
},
{
glyphname = y;
layers = (
{
layerId = "FB18B4D0-91BB-452D-ABF9-2813DD21CA3B";
paths = (
{
closed = 1;
nodes = (
"125 -375 LINE",
"125 -125 LINE",
"250 -125 LINE",
"250 0 LINE",
"375 0 LINE",
"375 -250 LINE",
"250 -250 LINE",
"250 -375 LINE"
);
},
{
closed = 1;
nodes = (
"375 0 LINE",
"375 250 LINE",
"500 250 LINE",
"500 0 LINE"
);
},
{
closed = 1;
nodes = (
"250 250 LINE",
"250 500 LINE",
"375 500 LINE",
"375 250 LINE"
);
},
{
closed = 1;
nodes = (
"500 250 LINE",
"500 500 LINE",
"625 500 LINE",
"625 250 LINE"
);
},
{
closed = 1;
nodes = (
"125 500 LINE",
"125 750 LINE",
"0 750 LINE",
"0 875 LINE",
"375 875 LINE",
"375 750 LINE",
"250 750 LINE",
"250 500 LINE"
);
},
{
closed = 1;
nodes = (
"625 500 LINE",
"625 750 LINE",
"500 750 LINE",
"500 875 LINE",
"875 875 LINE",
"875 750 LINE",
"750 750 LINE",
"750 500 LINE"
);
}
);
width = 1000;
}
);
note = y;
unicode = 0079;
},
{
glyphname = yacute;
layers = (
{
layerId = "FB18B4D0-91BB-452D-ABF9-2813DD21CA3B";
paths = (
{
closed = 1;
nodes = (
"125 -375 LINE",
"125 -125 LINE",
"250 -125 LINE",
"250 0 LINE",
"375 0 LINE",
"375 -250 LINE",
"250 -250 LINE",
"250 -375 LINE"
);
},
{
closed = 1;
nodes = (
"375 0 LINE",
"375 250 LINE",
"500 250 LINE",
"500 0 LINE"
);
},
{
closed = 1;
nodes = (
"250 250 LINE",
"250 500 LINE",
"375 500 LINE",
"375 250 LINE"
);
},
{
closed = 1;
nodes = (
"500 250 LINE",
"500 500 LINE",
"625 500 LINE",
"625 250 LINE"
);
},
{
closed = 1;
nodes = (
"125 500 LINE",
"125 750 LINE",
"0 750 LINE",
"0 875 LINE",
"375 875 LINE",
"375 750 LINE",
"250 750 LINE",
"250 500 LINE"
);
},
{
closed = 1;
nodes = (
"625 500 LINE",
"625 750 LINE",
"500 750 LINE",
"500 875 LINE",
"875 875 LINE",
"875 750 LINE",
"750 750 LINE",
"750 500 LINE"
);
},
{
closed = 1;
nodes = (
"375 1000 LINE",
"375 1125 LINE",
"500 1125 LINE",
"500 1000 LINE"
);
},
{
closed = 1;
nodes = (
"500 1125 LINE",
"500 1375 LINE",
"625 1375 LINE",
"625 1125 LINE"
);
}
);
width = 1000;
}
);
note = yacute;
unicode = 00FD;
},
{
glyphname = ydieresis;
layers = (
{
layerId = "FB18B4D0-91BB-452D-ABF9-2813DD21CA3B";
paths = (
{
closed = 1;
nodes = (
"125 -375 LINE",
"125 -125 LINE",
"250 -125 LINE",
"250 0 LINE",
"375 0 LINE",
"375 -250 LINE",
"250 -250 LINE",
"250 -375 LINE"
);
},
{
closed = 1;
nodes = (
"375 0 LINE",
"375 250 LINE",
"500 250 LINE",
"500 0 LINE"
);
},
{
closed = 1;
nodes = (
"250 250 LINE",
"250 500 LINE",
"375 500 LINE",
"375 250 LINE"
);
},
{
closed = 1;
nodes = (
"500 250 LINE",
"500 500 LINE",
"625 500 LINE",
"625 250 LINE"
);
},
{
closed = 1;
nodes = (
"125 500 LINE",
"125 750 LINE",
"0 750 LINE",
"0 875 LINE",
"375 875 LINE",
"375 750 LINE",
"250 750 LINE",
"250 500 LINE"
);
},
{
closed = 1;
nodes = (
"625 500 LINE",
"625 750 LINE",
"500 750 LINE",
"500 875 LINE",
"875 875 LINE",
"875 750 LINE",
"750 750 LINE",
"750 500 LINE"
);
},
{
closed = 1;
nodes = (
"250 1000 LINE",
"250 1125 LINE",
"375 1125 LINE",
"375 1000 LINE"
);
},
{
closed = 1;
nodes = (
"500 1000 LINE",
"500 1125 LINE",
"625 1125 LINE",
"625 1000 LINE"
);
}
);
width = 1000;
}
);
note = ydieresis;
unicode = 00FF;
},
{
glyphname = z;
layers = (
{
layerId = "FB18B4D0-91BB-452D-ABF9-2813DD21CA3B";
paths = (
{
closed = 1;
nodes = (
"0 0 LINE",
"0 250 LINE",
"125 250 LINE",
"125 125 LINE",
"500 125 LINE",
"500 250 LINE",
"625 250 LINE",
"625 0 LINE"
);
},
{
closed = 1;
nodes = (
"125 250 LINE",
"125 375 LINE",
"250 375 LINE",
"250 250 LINE"
);
},
{
closed = 1;
nodes = (
"250 375 LINE",
"250 500 LINE",
"375 500 LINE",
"375 375 LINE"
);
},
{
closed = 1;
nodes = (
"375 500 LINE",
"375 625 LINE",
"500 625 LINE",
"500 500 LINE"
);
},
{
closed = 1;
nodes = (
"0 625 LINE",
"0 875 LINE",
"625 875 LINE",
"625 625 LINE",
"500 625 LINE",
"500 750 LINE",
"125 750 LINE",
"125 625 LINE"
);
}
);
width = 750;
}
);
note = z;
unicode = 007A;
},
{
glyphname = fi;
layers = (
{
layerId = "FB18B4D0-91BB-452D-ABF9-2813DD21CA3B";
paths = (
{
closed = 1;
nodes = (
"125 0 LINE",
"125 625 LINE",
"0 625 LINE",
"0 750 LINE",
"125 750 LINE",
"125 1000 LINE",
"250 1000 LINE",
"250 750 LINE",
"500 750 LINE",
"500 875 LINE",
"625 875 LINE",
"625 125 LINE",
"750 125 LINE",
"750 0 LINE",
"375 0 LINE",
"375 125 LINE",
"500 125 LINE",
"500 625 LINE",
"250 625 LINE",
"250 0 LINE"
);
},
{
closed = 1;
nodes = (
"250 1000 LINE",
"250 1125 LINE",
"375 1125 LINE",
"375 1000 LINE"
);
},
{
closed = 1;
nodes = (
"500 1000 LINE",
"500 1125 LINE",
"625 1125 LINE",
"625 1000 LINE"
);
}
);
width = 875;
}
);
note = uniFB01;
unicode = FB01;
},
{
glyphname = fl;
layers = (
{
layerId = "FB18B4D0-91BB-452D-ABF9-2813DD21CA3B";
paths = (
{
closed = 1;
nodes = (
"125 0 LINE",
"125 625 LINE",
"0 625 LINE",
"0 750 LINE",
"125 750 LINE",
"125 1000 LINE",
"250 1000 LINE",
"250 750 LINE",
"375 750 LINE",
"375 625 LINE",
"250 625 LINE",
"250 0 LINE"
);
},
{
closed = 1;
nodes = (
"500 0 LINE",
"500 1000 LINE",
"250 1000 LINE",
"250 1125 LINE",
"625 1125 LINE",
"625 0 LINE"
);
}
);
width = 750;
}
);
note = uniFB02;
unicode = FB02;
},
{
glyphname = ordfeminine;
layers = (
{
layerId = "FB18B4D0-91BB-452D-ABF9-2813DD21CA3B";
paths = (
{
closed = 1;
nodes = (
"0 625 LINE",
"0 875 LINE",
"250 875 LINE",
"250 1000 LINE",
"375 1000 LINE",
"375 625 LINE"
);
},
{
closed = 1;
nodes = (
"0 1000 LINE",
"0 1125 LINE",
"250 1125 LINE",
"250 1000 LINE"
);
}
);
width = 500;
}
);
note = ordfeminine;
unicode = 00AA;
},
{
glyphname = ordmasculine;
layers = (
{
layerId = "FB18B4D0-91BB-452D-ABF9-2813DD21CA3B";
paths = (
{
closed = 1;
nodes = (
"250 875 LINE",
"250 1000 LINE",
"125 1000 LINE",
"125 875 LINE"
);
},
{
closed = 1;
nodes = (
"0 750 LINE",
"0 1125 LINE",
"375 1125 LINE",
"375 750 LINE"
);
}
);
width = 500;
}
);
note = ordmasculine;
unicode = 00BA;
},
{
glyphname = Alpha;
layers = (
{
layerId = "FB18B4D0-91BB-452D-ABF9-2813DD21CA3B";
paths = (
{
closed = 1;
nodes = (
"0 0 LINE",
"0 500 LINE",
"125 500 LINE",
"125 875 LINE",
"250 875 LINE",
"250 500 LINE",
"625 500 LINE",
"625 875 LINE",
"750 875 LINE",
"750 500 LINE",
"875 500 LINE",
"875 0 LINE",
"750 0 LINE",
"750 375 LINE",
"125 375 LINE",
"125 0 LINE"
);
},
{
closed = 1;
nodes = (
"250 875 LINE",
"250 1125 LINE",
"375 1125 LINE",
"375 875 LINE"
);
},
{
closed = 1;
nodes = (
"500 875 LINE",
"500 1125 LINE",
"625 1125 LINE",
"625 875 LINE"
);
},
{
closed = 1;
nodes = (
"375 1125 LINE",
"375 1250 LINE",
"500 1250 LINE",
"500 1125 LINE"
);
}
);
width = 1000;
}
);
note = Alpha;
unicode = 0391;
},
{
glyphname = Beta;
layers = (
{
layerId = "FB18B4D0-91BB-452D-ABF9-2813DD21CA3B";
paths = (
{
closed = 1;
nodes = (
"750 125 LINE",
"750 625 LINE",
"875 625 LINE",
"875 125 LINE"
);
},
{
closed = 1;
nodes = (
"750 750 LINE",
"750 1125 LINE",
"875 1125 LINE",
"875 750 LINE"
);
},
{
closed = 1;
nodes = (
"0 0 LINE",
"0 1250 LINE",
"750 1250 LINE",
"750 1125 LINE",
"125 1125 LINE",
"125 750 LINE",
"750 750 LINE",
"750 625 LINE",
"125 625 LINE",
"125 125 LINE",
"750 125 LINE",
"750 0 LINE"
);
}
);
width = 1000;
}
);
note = Beta;
unicode = 0392;
},
{
glyphname = Gamma;
layers = (
{
layerId = "FB18B4D0-91BB-452D-ABF9-2813DD21CA3B";
paths = (
{
closed = 1;
nodes = (
"0 0 LINE",
"0 1250 LINE",
"875 1250 LINE",
"875 1125 LINE",
"125 1125 LINE",
"125 0 LINE"
);
}
);
width = 1000;
}
);
note = Gamma;
unicode = 0393;
},
{
glyphname = Delta;
layers = (
{
layerId = "FB18B4D0-91BB-452D-ABF9-2813DD21CA3B";
paths = (
{
closed = 1;
nodes = (
"0 0 LINE",
"0 250 LINE",
"125 250 LINE",
"125 125 LINE",
"750 125 LINE",
"750 250 LINE",
"875 250 LINE",
"875 0 LINE"
);
},
{
closed = 1;
nodes = (
"125 250 LINE",
"125 625 LINE",
"250 625 LINE",
"250 250 LINE"
);
},
{
closed = 1;
nodes = (
"625 250 LINE",
"625 625 LINE",
"750 625 LINE",
"750 250 LINE"
);
},
{
closed = 1;
nodes = (
"250 625 LINE",
"250 1000 LINE",
"375 1000 LINE",
"375 625 LINE"
);
},
{
closed = 1;
nodes = (
"500 625 LINE",
"500 1000 LINE",
"625 1000 LINE",
"625 625 LINE"
);
},
{
closed = 1;
nodes = (
"375 1000 LINE",
"375 1250 LINE",
"500 1250 LINE",
"500 1000 LINE"
);
}
);
width = 1000;
}
);
note = uni394;
unicode = 0394;
},
{
glyphname = Epsilon;
layers = (
{
layerId = "FB18B4D0-91BB-452D-ABF9-2813DD21CA3B";
paths = (
{
closed = 1;
nodes = (
"0 0 LINE",
"0 1250 LINE",
"875 1250 LINE",
"875 1125 LINE",
"125 1125 LINE",
"125 750 LINE",
"750 750 LINE",
"750 625 LINE",
"125 625 LINE",
"125 125 LINE",
"875 125 LINE",
"875 0 LINE"
);
}
);
width = 1000;
}
);
note = Epsilon;
unicode = 0395;
},
{
glyphname = Zeta;
layers = (
{
layerId = "FB18B4D0-91BB-452D-ABF9-2813DD21CA3B";
paths = (
{
closed = 1;
nodes = (
"0 0 LINE",
"0 125 LINE",
"125 125 LINE",
"125 375 LINE",
"250 375 LINE",
"250 125 LINE",
"875 125 LINE",
"875 0 LINE"
);
},
{
closed = 1;
nodes = (
"250 375 LINE",
"250 500 LINE",
"375 500 LINE",
"375 375 LINE"
);
},
{
closed = 1;
nodes = (
"375 500 LINE",
"375 750 LINE",
"500 750 LINE",
"500 500 LINE"
);
},
{
closed = 1;
nodes = (
"500 750 LINE",
"500 875 LINE",
"625 875 LINE",
"625 750 LINE"
);
},
{
closed = 1;
nodes = (
"625 875 LINE",
"625 1125 LINE",
"0 1125 LINE",
"0 1250 LINE",
"875 1250 LINE",
"875 1125 LINE",
"750 1125 LINE",
"750 875 LINE"
);
}
);
width = 1000;
}
);
note = Zeta;
unicode = 0396;
},
{
glyphname = Eta;
layers = (
{
layerId = "FB18B4D0-91BB-452D-ABF9-2813DD21CA3B";
paths = (
{
closed = 1;
nodes = (
"0 0 LINE",
"0 1250 LINE",
"125 1250 LINE",
"125 625 LINE",
"750 625 LINE",
"750 1250 LINE",
"875 1250 LINE",
"875 0 LINE",
"750 0 LINE",
"750 500 LINE",
"125 500 LINE",
"125 0 LINE"
);
}
);
width = 1000;
}
);
note = Eta;
unicode = 0397;
},
{
glyphname = Theta;
layers = (
{
layerId = "FB18B4D0-91BB-452D-ABF9-2813DD21CA3B";
paths = (
{
closed = 1;
nodes = (
"125 0 LINE",
"125 125 LINE",
"750 125 LINE",
"750 0 LINE"
);
},
{
closed = 1;
nodes = (
"250 625 LINE",
"250 750 LINE",
"625 750 LINE",
"625 625 LINE"
);
},
{
closed = 1;
nodes = (
"0 125 LINE",
"0 1125 LINE",
"125 1125 LINE",
"125 125 LINE"
);
},
{
closed = 1;
nodes = (
"750 125 LINE",
"750 1125 LINE",
"875 1125 LINE",
"875 125 LINE"
);
},
{
closed = 1;
nodes = (
"125 1125 LINE",
"125 1250 LINE",
"750 1250 LINE",
"750 1125 LINE"
);
}
);
width = 1000;
}
);
note = Theta;
unicode = 0398;
},
{
glyphname = Iota;
layers = (
{
layerId = "FB18B4D0-91BB-452D-ABF9-2813DD21CA3B";
paths = (
{
closed = 1;
nodes = (
"0 0 LINE",
"0 1250 LINE",
"125 1250 LINE",
"125 0 LINE"
);
}
);
width = 250;
}
);
note = Iota;
unicode = 0399;
},
{
glyphname = Kappa;
layers = (
{
layerId = "FB18B4D0-91BB-452D-ABF9-2813DD21CA3B";
paths = (
{
closed = 1;
nodes = (
"750 0 LINE",
"750 125 LINE",
"875 125 LINE",
"875 0 LINE"
);
},
{
closed = 1;
nodes = (
"625 125 LINE",
"625 375 LINE",
"750 375 LINE",
"750 125 LINE"
);
},
{
closed = 1;
nodes = (
"500 375 LINE",
"500 625 LINE",
"625 625 LINE",
"625 375 LINE"
);
},
{
closed = 1;
nodes = (
"250 625 LINE",
"250 750 LINE",
"375 750 LINE",
"375 875 LINE",
"500 875 LINE",
"500 625 LINE"
);
},
{
closed = 1;
nodes = (
"500 875 LINE",
"500 1000 LINE",
"625 1000 LINE",
"625 875 LINE"
);
},
{
closed = 1;
nodes = (
"625 1000 LINE",
"625 1125 LINE",
"750 1125 LINE",
"750 1000 LINE"
);
},
{
closed = 1;
nodes = (
"0 0 LINE",
"0 1250 LINE",
"125 1250 LINE",
"125 625 LINE",
"250 625 LINE",
"250 500 LINE",
"125 500 LINE",
"125 0 LINE"
);
},
{
closed = 1;
nodes = (
"750 1125 LINE",
"750 1250 LINE",
"875 1250 LINE",
"875 1125 LINE"
);
}
);
width = 1000;
}
);
note = Kappa;
unicode = 039A;
},
{
glyphname = Lambda;
layers = (
{
layerId = "FB18B4D0-91BB-452D-ABF9-2813DD21CA3B";
paths = (
{
closed = 1;
nodes = (
"0 0 LINE",
"0 250 LINE",
"125 250 LINE",
"125 0 LINE"
);
},
{
closed = 1;
nodes = (
"750 0 LINE",
"750 250 LINE",
"875 250 LINE",
"875 0 LINE"
);
},
{
closed = 1;
nodes = (
"125 250 LINE",
"125 625 LINE",
"250 625 LINE",
"250 250 LINE"
);
},
{
closed = 1;
nodes = (
"625 250 LINE",
"625 625 LINE",
"750 625 LINE",
"750 250 LINE"
);
},
{
closed = 1;
nodes = (
"250 625 LINE",
"250 1000 LINE",
"375 1000 LINE",
"375 625 LINE"
);
},
{
closed = 1;
nodes = (
"500 625 LINE",
"500 1000 LINE",
"625 1000 LINE",
"625 625 LINE"
);
},
{
closed = 1;
nodes = (
"375 1000 LINE",
"375 1250 LINE",
"500 1250 LINE",
"500 1000 LINE"
);
}
);
width = 1000;
}
);
note = Lambda;
unicode = 039B;
},
{
glyphname = Mu;
layers = (
{
layerId = "FB18B4D0-91BB-452D-ABF9-2813DD21CA3B";
paths = (
{
closed = 1;
nodes = (
"375 625 LINE",
"375 750 LINE",
"500 750 LINE",
"500 625 LINE"
);
},
{
closed = 1;
nodes = (
"250 750 LINE",
"250 875 LINE",
"375 875 LINE",
"375 750 LINE"
);
},
{
closed = 1;
nodes = (
"500 750 LINE",
"500 875 LINE",
"625 875 LINE",
"625 750 LINE"
);
},
{
closed = 1;
nodes = (
"0 0 LINE",
"0 1250 LINE",
"125 1250 LINE",
"125 1125 LINE",
"250 1125 LINE",
"250 875 LINE",
"125 875 LINE",
"125 0 LINE"
);
},
{
closed = 1;
nodes = (
"750 0 LINE",
"750 875 LINE",
"625 875 LINE",
"625 1125 LINE",
"750 1125 LINE",
"750 1250 LINE",
"875 1250 LINE",
"875 0 LINE"
);
}
);
width = 1000;
}
);
note = Mu;
unicode = 039C;
},
{
glyphname = Nu;
layers = (
{
layerId = "FB18B4D0-91BB-452D-ABF9-2813DD21CA3B";
paths = (
{
closed = 1;
nodes = (
"500 375 LINE",
"500 500 LINE",
"625 500 LINE",
"625 375 LINE"
);
},
{
closed = 1;
nodes = (
"375 500 LINE",
"375 750 LINE",
"500 750 LINE",
"500 500 LINE"
);
},
{
closed = 1;
nodes = (
"250 750 LINE",
"250 875 LINE",
"375 875 LINE",
"375 750 LINE"
);
},
{
closed = 1;
nodes = (
"0 0 LINE",
"0 1250 LINE",
"125 1250 LINE",
"125 1125 LINE",
"250 1125 LINE",
"250 875 LINE",
"125 875 LINE",
"125 0 LINE"
);
},
{
closed = 1;
nodes = (
"750 0 LINE",
"750 125 LINE",
"625 125 LINE",
"625 375 LINE",
"750 375 LINE",
"750 1250 LINE",
"875 1250 LINE",
"875 0 LINE"
);
}
);
width = 1000;
}
);
note = Nu;
unicode = 039D;
},
{
glyphname = Xi;
layers = (
{
layerId = "FB18B4D0-91BB-452D-ABF9-2813DD21CA3B";
paths = (
{
closed = 1;
nodes = (
"0 0 LINE",
"0 125 LINE",
"750 125 LINE",
"750 0 LINE"
);
},
{
closed = 1;
nodes = (
"125 625 LINE",
"125 750 LINE",
"625 750 LINE",
"625 625 LINE"
);
},
{
closed = 1;
nodes = (
"0 1125 LINE",
"0 1250 LINE",
"750 1250 LINE",
"750 1125 LINE"
);
}
);
width = 875;
}
);
note = Xi;
unicode = 039E;
},
{
glyphname = Omicron;
layers = (
{
layerId = "FB18B4D0-91BB-452D-ABF9-2813DD21CA3B";
paths = (
{
closed = 1;
nodes = (
"125 0 LINE",
"125 125 LINE",
"750 125 LINE",
"750 0 LINE"
);
},
{
closed = 1;
nodes = (
"0 125 LINE",
"0 1125 LINE",
"125 1125 LINE",
"125 125 LINE"
);
},
{
closed = 1;
nodes = (
"750 125 LINE",
"750 1125 LINE",
"875 1125 LINE",
"875 125 LINE"
);
},
{
closed = 1;
nodes = (
"125 1125 LINE",
"125 1250 LINE",
"750 1250 LINE",
"750 1125 LINE"
);
}
);
width = 1000;
}
);
note = Omicron;
unicode = 039F;
},
{
glyphname = Pi;
layers = (
{
layerId = "FB18B4D0-91BB-452D-ABF9-2813DD21CA3B";
paths = (
{
closed = 1;
nodes = (
"0 0 LINE",
"0 1250 LINE",
"875 1250 LINE",
"875 0 LINE",
"750 0 LINE",
"750 1125 LINE",
"125 1125 LINE",
"125 0 LINE"
);
}
);
width = 1000;
}
);
note = Pi;
unicode = 03A0;
},
{
glyphname = Rho;
layers = (
{
layerId = "FB18B4D0-91BB-452D-ABF9-2813DD21CA3B";
paths = (
{
closed = 1;
nodes = (
"750 750 LINE",
"750 1125 LINE",
"875 1125 LINE",
"875 750 LINE"
);
},
{
closed = 1;
nodes = (
"0 0 LINE",
"0 1250 LINE",
"750 1250 LINE",
"750 1125 LINE",
"125 1125 LINE",
"125 750 LINE",
"750 750 LINE",
"750 625 LINE",
"125 625 LINE",
"125 0 LINE"
);
}
);
width = 1000;
}
);
note = Rho;
unicode = 03A1;
},
{
glyphname = Sigma;
layers = (
{
layerId = "FB18B4D0-91BB-452D-ABF9-2813DD21CA3B";
paths = (
{
closed = 1;
nodes = (
"0 0 LINE",
"0 375 LINE",
"125 375 LINE",
"125 125 LINE",
"875 125 LINE",
"875 0 LINE"
);
},
{
closed = 1;
nodes = (
"125 375 LINE",
"125 500 LINE",
"250 500 LINE",
"250 375 LINE"
);
},
{
closed = 1;
nodes = (
"250 500 LINE",
"250 625 LINE",
"375 625 LINE",
"375 500 LINE"
);
},
{
closed = 1;
nodes = (
"375 625 LINE",
"375 750 LINE",
"500 750 LINE",
"500 625 LINE"
);
},
{
closed = 1;
nodes = (
"250 750 LINE",
"250 875 LINE",
"375 875 LINE",
"375 750 LINE"
);
},
{
closed = 1;
nodes = (
"125 875 LINE",
"125 1000 LINE",
"250 1000 LINE",
"250 875 LINE"
);
},
{
closed = 1;
nodes = (
"0 1000 LINE",
"0 1250 LINE",
"875 1250 LINE",
"875 1125 LINE",
"125 1125 LINE",
"125 1000 LINE"
);
}
);
width = 1000;
}
);
note = Sigma;
unicode = 03A3;
},
{
glyphname = Tau;
layers = (
{
layerId = "FB18B4D0-91BB-452D-ABF9-2813DD21CA3B";
paths = (
{
closed = 1;
nodes = (
"375 0 LINE",
"375 1125 LINE",
"0 1125 LINE",
"0 1250 LINE",
"875 1250 LINE",
"875 1125 LINE",
"500 1125 LINE",
"500 0 LINE"
);
}
);
width = 1000;
}
);
note = Tau;
unicode = 03A4;
},
{
glyphname = Upsilon;
layers = (
{
layerId = "FB18B4D0-91BB-452D-ABF9-2813DD21CA3B";
paths = (
{
closed = 1;
nodes = (
"375 0 LINE",
"375 875 LINE",
"500 875 LINE",
"500 0 LINE"
);
},
{
closed = 1;
nodes = (
"250 875 LINE",
"250 1000 LINE",
"375 1000 LINE",
"375 875 LINE"
);
},
{
closed = 1;
nodes = (
"500 875 LINE",
"500 1000 LINE",
"625 1000 LINE",
"625 875 LINE"
);
},
{
closed = 1;
nodes = (
"125 1000 LINE",
"125 1125 LINE",
"250 1125 LINE",
"250 1000 LINE"
);
},
{
closed = 1;
nodes = (
"625 1000 LINE",
"625 1125 LINE",
"750 1125 LINE",
"750 1000 LINE"
);
},
{
closed = 1;
nodes = (
"0 1125 LINE",
"0 1250 LINE",
"125 1250 LINE",
"125 1125 LINE"
);
},
{
closed = 1;
nodes = (
"750 1125 LINE",
"750 1250 LINE",
"875 1250 LINE",
"875 1125 LINE"
);
}
);
width = 1000;
}
);
note = Upsilon;
unicode = 03A5;
},
{
glyphname = Phi;
layers = (
{
layerId = "FB18B4D0-91BB-452D-ABF9-2813DD21CA3B";
paths = (
{
closed = 1;
nodes = (
"0 375 LINE",
"0 875 LINE",
"125 875 LINE",
"125 375 LINE"
);
},
{
closed = 1;
nodes = (
"750 375 LINE",
"750 875 LINE",
"875 875 LINE",
"875 375 LINE"
);
},
{
closed = 1;
nodes = (
"375 0 LINE",
"375 250 LINE",
"125 250 LINE",
"125 375 LINE",
"375 375 LINE",
"375 875 LINE",
"125 875 LINE",
"125 1000 LINE",
"375 1000 LINE",
"375 1250 LINE",
"500 1250 LINE",
"500 1000 LINE",
"750 1000 LINE",
"750 875 LINE",
"500 875 LINE",
"500 375 LINE",
"750 375 LINE",
"750 250 LINE",
"500 250 LINE",
"500 0 LINE"
);
}
);
width = 1000;
}
);
note = Phi;
unicode = 03A6;
},
{
glyphname = Chi;
layers = (
{
layerId = "FB18B4D0-91BB-452D-ABF9-2813DD21CA3B";
paths = (
{
closed = 1;
nodes = (
"0 0 LINE",
"0 125 LINE",
"125 125 LINE",
"125 0 LINE"
);
},
{
closed = 1;
nodes = (
"750 0 LINE",
"750 125 LINE",
"875 125 LINE",
"875 0 LINE"
);
},
{
closed = 1;
nodes = (
"125 125 LINE",
"125 375 LINE",
"250 375 LINE",
"250 125 LINE"
);
},
{
closed = 1;
nodes = (
"625 125 LINE",
"625 375 LINE",
"750 375 LINE",
"750 125 LINE"
);
},
{
closed = 1;
nodes = (
"250 375 LINE",
"250 500 LINE",
"375 500 LINE",
"375 375 LINE"
);
},
{
closed = 1;
nodes = (
"500 375 LINE",
"500 500 LINE",
"625 500 LINE",
"625 375 LINE"
);
},
{
closed = 1;
nodes = (
"375 500 LINE",
"375 750 LINE",
"500 750 LINE",
"500 500 LINE"
);
},
{
closed = 1;
nodes = (
"250 750 LINE",
"250 875 LINE",
"375 875 LINE",
"375 750 LINE"
);
},
{
closed = 1;
nodes = (
"500 750 LINE",
"500 875 LINE",
"625 875 LINE",
"625 750 LINE"
);
},
{
closed = 1;
nodes = (
"125 875 LINE",
"125 1125 LINE",
"250 1125 LINE",
"250 875 LINE"
);
},
{
closed = 1;
nodes = (
"625 875 LINE",
"625 1125 LINE",
"750 1125 LINE",
"750 875 LINE"
);
},
{
closed = 1;
nodes = (
"0 1125 LINE",
"0 1250 LINE",
"125 1250 LINE",
"125 1125 LINE"
);
},
{
closed = 1;
nodes = (
"750 1125 LINE",
"750 1250 LINE",
"875 1250 LINE",
"875 1125 LINE"
);
}
);
width = 1000;
}
);
note = Chi;
unicode = 03A7;
},
{
glyphname = Psi;
layers = (
{
layerId = "FB18B4D0-91BB-452D-ABF9-2813DD21CA3B";
paths = (
{
closed = 1;
nodes = (
"0 750 LINE",
"0 1250 LINE",
"125 1250 LINE",
"125 750 LINE"
);
},
{
closed = 1;
nodes = (
"375 0 LINE",
"375 625 LINE",
"125 625 LINE",
"125 750 LINE",
"375 750 LINE",
"375 1250 LINE",
"500 1250 LINE",
"500 750 LINE",
"750 750 LINE",
"750 625 LINE",
"500 625 LINE",
"500 0 LINE"
);
},
{
closed = 1;
nodes = (
"750 750 LINE",
"750 1250 LINE",
"875 1250 LINE",
"875 750 LINE"
);
}
);
width = 1000;
}
);
note = Psi;
unicode = 03A8;
},
{
glyphname = Omega;
layers = (
{
layerId = "FB18B4D0-91BB-452D-ABF9-2813DD21CA3B";
paths = (
{
closed = 1;
nodes = (
"0 0 LINE",
"0 125 LINE",
"250 125 LINE",
"250 250 LINE",
"375 250 LINE",
"375 0 LINE"
);
},
{
closed = 1;
nodes = (
"500 0 LINE",
"500 250 LINE",
"625 250 LINE",
"625 125 LINE",
"875 125 LINE",
"875 0 LINE"
);
},
{
closed = 1;
nodes = (
"125 250 LINE",
"125 375 LINE",
"250 375 LINE",
"250 250 LINE"
);
},
{
closed = 1;
nodes = (
"625 250 LINE",
"625 375 LINE",
"750 375 LINE",
"750 250 LINE"
);
},
{
closed = 1;
nodes = (
"0 375 LINE",
"0 1125 LINE",
"125 1125 LINE",
"125 375 LINE"
);
},
{
closed = 1;
nodes = (
"750 375 LINE",
"750 1125 LINE",
"875 1125 LINE",
"875 375 LINE"
);
},
{
closed = 1;
nodes = (
"125 1125 LINE",
"125 1250 LINE",
"750 1250 LINE",
"750 1125 LINE"
);
}
);
width = 1000;
}
);
note = uni3A9;
unicode = 03A9;
},
{
glyphname = "alef-hb";
layers = (
{
layerId = "FB18B4D0-91BB-452D-ABF9-2813DD21CA3B";
paths = (
{
closed = 1;
nodes = (
"625 0 LINE",
"625 125 LINE",
"750 125 LINE",
"750 0 LINE"
);
},
{
closed = 1;
nodes = (
"500 125 LINE",
"500 250 LINE",
"625 250 LINE",
"625 125 LINE"
);
},
{
closed = 1;
nodes = (
"0 0 LINE",
"0 375 LINE",
"125 375 LINE",
"125 0 LINE"
);
},
{
closed = 1;
nodes = (
"375 250 LINE",
"375 375 LINE",
"500 375 LINE",
"500 250 LINE"
);
},
{
closed = 1;
nodes = (
"125 375 LINE",
"125 625 LINE",
"250 625 LINE",
"250 500 LINE",
"375 500 LINE",
"375 375 LINE"
);
},
{
closed = 1;
nodes = (
"0 625 LINE",
"0 750 LINE",
"125 750 LINE",
"125 625 LINE"
);
},
{
closed = 1;
nodes = (
"500 375 LINE",
"500 750 LINE",
"625 750 LINE",
"625 375 LINE"
);
}
);
width = 875;
}
);
note = uni5D0;
unicode = 05D0;
},
{
glyphname = "bet-hb";
layers = (
{
layerId = "FB18B4D0-91BB-452D-ABF9-2813DD21CA3B";
paths = (
{
closed = 1;
nodes = (
"0 0 LINE",
"0 125 LINE",
"500 125 LINE",
"500 625 LINE",
"625 625 LINE",
"625 125 LINE",
"750 125 LINE",
"750 0 LINE"
);
},
{
closed = 1;
nodes = (
"0 625 LINE",
"0 750 LINE",
"500 750 LINE",
"500 625 LINE"
);
}
);
width = 875;
}
);
note = uni5D1;
unicode = 05D1;
},
{
glyphname = "gimel-hb";
layers = (
{
layerId = "FB18B4D0-91BB-452D-ABF9-2813DD21CA3B";
paths = (
{
closed = 1;
nodes = (
"375 0 LINE",
"375 125 LINE",
"500 125 LINE",
"500 0 LINE"
);
},
{
closed = 1;
nodes = (
"0 0 LINE",
"0 250 LINE",
"125 250 LINE",
"125 0 LINE"
);
},
{
closed = 1;
nodes = (
"250 125 LINE",
"250 250 LINE",
"125 250 LINE",
"125 375 LINE",
"250 375 LINE",
"250 625 LINE",
"375 625 LINE",
"375 125 LINE"
);
},
{
closed = 1;
nodes = (
"0 625 LINE",
"0 750 LINE",
"250 750 LINE",
"250 625 LINE"
);
}
);
width = 625;
}
);
note = uni5D2;
unicode = 05D2;
},
{
glyphname = "dalet-hb";
layers = (
{
layerId = "FB18B4D0-91BB-452D-ABF9-2813DD21CA3B";
paths = (
{
closed = 1;
nodes = (
"500 0 LINE",
"500 625 LINE",
"0 625 LINE",
"0 750 LINE",
"750 750 LINE",
"750 625 LINE",
"625 625 LINE",
"625 0 LINE"
);
}
);
width = 875;
}
);
note = uni5D3;
unicode = 05D3;
},
{
glyphname = "he-hb";
layers = (
{
layerId = "FB18B4D0-91BB-452D-ABF9-2813DD21CA3B";
paths = (
{
closed = 1;
nodes = (
"125 0 LINE",
"125 500 LINE",
"250 500 LINE",
"250 0 LINE"
);
},
{
closed = 1;
nodes = (
"625 0 LINE",
"625 625 LINE",
"750 625 LINE",
"750 0 LINE"
);
},
{
closed = 1;
nodes = (
"0 625 LINE",
"0 750 LINE",
"625 750 LINE",
"625 625 LINE"
);
}
);
width = 875;
}
);
note = uni5D4;
unicode = 05D4;
},
{
glyphname = "vav-hb";
layers = (
{
layerId = "FB18B4D0-91BB-452D-ABF9-2813DD21CA3B";
paths = (
{
closed = 1;
nodes = (
"0 0 LINE",
"0 750 LINE",
"125 750 LINE",
"125 0 LINE"
);
}
);
width = 250;
}
);
note = uni5D5;
unicode = 05D5;
},
{
glyphname = "zayin-hb";
layers = (
{
layerId = "FB18B4D0-91BB-452D-ABF9-2813DD21CA3B";
paths = (
{
closed = 1;
nodes = (
"0 0 LINE",
"0 500 LINE",
"125 500 LINE",
"125 0 LINE"
);
},
{
closed = 1;
nodes = (
"125 500 LINE",
"125 625 LINE",
"0 625 LINE",
"0 750 LINE",
"375 750 LINE",
"375 625 LINE",
"250 625 LINE",
"250 500 LINE"
);
}
);
width = 500;
}
);
note = uni5D6;
unicode = 05D6;
},
{
glyphname = "het-hb";
layers = (
{
layerId = "FB18B4D0-91BB-452D-ABF9-2813DD21CA3B";
paths = (
{
closed = 1;
nodes = (
"625 0 LINE",
"625 625 LINE",
"750 625 LINE",
"750 0 LINE"
);
},
{
closed = 1;
nodes = (
"0 0 LINE",
"0 750 LINE",
"625 750 LINE",
"625 625 LINE",
"125 625 LINE",
"125 0 LINE"
);
}
);
width = 875;
}
);
note = uni5D7;
unicode = 05D7;
},
{
glyphname = "tet-hb";
layers = (
{
layerId = "FB18B4D0-91BB-452D-ABF9-2813DD21CA3B";
paths = (
{
closed = 1;
nodes = (
"125 0 LINE",
"125 125 LINE",
"625 125 LINE",
"625 0 LINE"
);
},
{
closed = 1;
nodes = (
"375 500 LINE",
"375 625 LINE",
"500 625 LINE",
"500 500 LINE"
);
},
{
closed = 1;
nodes = (
"625 125 LINE",
"625 625 LINE",
"750 625 LINE",
"750 125 LINE"
);
},
{
closed = 1;
nodes = (
"0 125 LINE",
"0 750 LINE",
"125 750 LINE",
"125 125 LINE"
);
},
{
closed = 1;
nodes = (
"500 625 LINE",
"500 750 LINE",
"625 750 LINE",
"625 625 LINE"
);
}
);
width = 875;
}
);
note = uni5D8;
unicode = 05D8;
},
{
glyphname = "yod-hb";
layers = (
{
layerId = "FB18B4D0-91BB-452D-ABF9-2813DD21CA3B";
paths = (
{
closed = 1;
nodes = (
"0 500 LINE",
"0 750 LINE",
"125 750 LINE",
"125 500 LINE"
);
}
);
width = 250;
}
);
note = uni5D9;
unicode = 05D9;
},
{
glyphname = "finalkaf-hb";
layers = (
{
layerId = "FB18B4D0-91BB-452D-ABF9-2813DD21CA3B";
paths = (
{
closed = 1;
nodes = (
"375 -125 LINE",
"375 625 LINE",
"500 625 LINE",
"500 -125 LINE"
);
},
{
closed = 1;
nodes = (
"0 625 LINE",
"0 750 LINE",
"375 750 LINE",
"375 625 LINE"
);
}
);
width = 625;
}
);
note = uni5DA;
unicode = 05DA;
},
{
glyphname = "kaf-hb";
layers = (
{
layerId = "FB18B4D0-91BB-452D-ABF9-2813DD21CA3B";
paths = (
{
closed = 1;
nodes = (
"125 0 LINE",
"125 125 LINE",
"500 125 LINE",
"500 0 LINE"
);
},
{
closed = 1;
nodes = (
"0 125 LINE",
"0 250 LINE",
"125 250 LINE",
"125 125 LINE"
);
},
{
closed = 1;
nodes = (
"0 500 LINE",
"0 625 LINE",
"125 625 LINE",
"125 500 LINE"
);
},
{
closed = 1;
nodes = (
"500 125 LINE",
"500 625 LINE",
"625 625 LINE",
"625 125 LINE"
);
},
{
closed = 1;
nodes = (
"125 625 LINE",
"125 750 LINE",
"500 750 LINE",
"500 625 LINE"
);
}
);
width = 750;
}
);
note = uni5DB;
unicode = 05DB;
},
{
glyphname = "lamed-hb";
layers = (
{
layerId = "FB18B4D0-91BB-452D-ABF9-2813DD21CA3B";
paths = (
{
closed = 1;
nodes = (
"125 0 LINE",
"125 375 LINE",
"250 375 LINE",
"250 0 LINE"
);
},
{
closed = 1;
nodes = (
"250 375 LINE",
"250 500 LINE",
"375 500 LINE",
"375 375 LINE"
);
},
{
closed = 1;
nodes = (
"375 500 LINE",
"375 625 LINE",
"0 625 LINE",
"0 875 LINE",
"125 875 LINE",
"125 750 LINE",
"500 750 LINE",
"500 500 LINE"
);
}
);
width = 625;
}
);
note = uni5DC;
unicode = 05DC;
},
{
glyphname = "finalmem-hb";
layers = (
{
layerId = "FB18B4D0-91BB-452D-ABF9-2813DD21CA3B";
paths = (
{
closed = 1;
nodes = (
"500 500 LINE",
"500 625 LINE",
"625 625 LINE",
"625 500 LINE"
);
},
{
closed = 1;
nodes = (
"0 0 LINE",
"0 750 LINE",
"500 750 LINE",
"500 625 LINE",
"125 625 LINE",
"125 125 LINE",
"625 125 LINE",
"625 500 LINE",
"750 500 LINE",
"750 0 LINE"
);
}
);
width = 875;
}
);
note = uni5DD;
unicode = 05DD;
},
{
glyphname = "mem-hb";
layers = (
{
layerId = "FB18B4D0-91BB-452D-ABF9-2813DD21CA3B";
paths = (
{
closed = 1;
nodes = (
"0 0 LINE",
"0 500 LINE",
"125 500 LINE",
"125 0 LINE"
);
},
{
closed = 1;
nodes = (
"125 500 LINE",
"125 625 LINE",
"250 625 LINE",
"250 500 LINE"
);
},
{
closed = 1;
nodes = (
"375 0 LINE",
"375 125 LINE",
"625 125 LINE",
"625 625 LINE",
"750 625 LINE",
"750 0 LINE"
);
},
{
closed = 1;
nodes = (
"0 625 LINE",
"0 750 LINE",
"125 750 LINE",
"125 625 LINE"
);
},
{
closed = 1;
nodes = (
"250 625 LINE",
"250 750 LINE",
"625 750 LINE",
"625 625 LINE"
);
}
);
width = 875;
}
);
note = uni5DE;
unicode = 05DE;
},
{
glyphname = "finalnun-hb";
layers = (
{
layerId = "FB18B4D0-91BB-452D-ABF9-2813DD21CA3B";
paths = (
{
closed = 1;
nodes = (
"0 -125 LINE",
"0 750 LINE",
"125 750 LINE",
"125 -125 LINE"
);
}
);
width = 250;
}
);
note = uni5DF;
unicode = 05DF;
},
{
glyphname = "nun-hb";
layers = (
{
layerId = "FB18B4D0-91BB-452D-ABF9-2813DD21CA3B";
paths = (
{
closed = 1;
nodes = (
"0 0 LINE",
"0 125 LINE",
"125 125 LINE",
"125 625 LINE",
"250 625 LINE",
"250 0 LINE"
);
},
{
closed = 1;
nodes = (
"0 625 LINE",
"0 750 LINE",
"125 750 LINE",
"125 625 LINE"
);
}
);
width = 375;
}
);
note = uni5E0;
unicode = 05E0;
},
{
glyphname = "samekh-hb";
layers = (
{
layerId = "FB18B4D0-91BB-452D-ABF9-2813DD21CA3B";
paths = (
{
closed = 1;
nodes = (
"125 0 LINE",
"125 125 LINE",
"625 125 LINE",
"625 0 LINE"
);
},
{
closed = 1;
nodes = (
"0 125 LINE",
"0 625 LINE",
"125 625 LINE",
"125 125 LINE"
);
},
{
closed = 1;
nodes = (
"625 125 LINE",
"625 625 LINE",
"750 625 LINE",
"750 125 LINE"
);
},
{
closed = 1;
nodes = (
"125 625 LINE",
"125 750 LINE",
"625 750 LINE",
"625 625 LINE"
);
}
);
width = 875;
}
);
note = uni5E1;
unicode = 05E1;
},
{
glyphname = "ayin-hb";
layers = (
{
layerId = "FB18B4D0-91BB-452D-ABF9-2813DD21CA3B";
paths = (
{
closed = 1;
nodes = (
"500 125 LINE",
"500 250 LINE",
"625 250 LINE",
"625 125 LINE"
);
},
{
closed = 1;
nodes = (
"0 0 LINE",
"0 125 LINE",
"250 125 LINE",
"250 375 LINE",
"375 375 LINE",
"375 125 LINE",
"500 125 LINE",
"500 0 LINE"
);
},
{
closed = 1;
nodes = (
"125 375 LINE",
"125 625 LINE",
"250 625 LINE",
"250 375 LINE"
);
},
{
closed = 1;
nodes = (
"0 625 LINE",
"0 750 LINE",
"125 750 LINE",
"125 625 LINE"
);
},
{
closed = 1;
nodes = (
"625 250 LINE",
"625 750 LINE",
"750 750 LINE",
"750 250 LINE"
);
}
);
width = 875;
}
);
note = uni5E2;
unicode = 05E2;
},
{
glyphname = "finalpe-hb";
layers = (
{
layerId = "FB18B4D0-91BB-452D-ABF9-2813DD21CA3B";
paths = (
{
closed = 1;
nodes = (
"125 375 LINE",
"125 500 LINE",
"250 500 LINE",
"250 375 LINE"
);
},
{
closed = 1;
nodes = (
"0 500 LINE",
"0 625 LINE",
"125 625 LINE",
"125 500 LINE"
);
},
{
closed = 1;
nodes = (
"500 -125 LINE",
"500 625 LINE",
"625 625 LINE",
"625 -125 LINE"
);
},
{
closed = 1;
nodes = (
"125 625 LINE",
"125 750 LINE",
"500 750 LINE",
"500 625 LINE"
);
}
);
width = 750;
}
);
note = uni5E3;
unicode = 05E3;
},
{
glyphname = "pe-hb";
layers = (
{
layerId = "FB18B4D0-91BB-452D-ABF9-2813DD21CA3B";
paths = (
{
closed = 1;
nodes = (
"125 0 LINE",
"125 125 LINE",
"625 125 LINE",
"625 0 LINE"
);
},
{
closed = 1;
nodes = (
"125 375 LINE",
"125 500 LINE",
"250 500 LINE",
"250 375 LINE"
);
},
{
closed = 1;
nodes = (
"0 500 LINE",
"0 625 LINE",
"125 625 LINE",
"125 500 LINE"
);
},
{
closed = 1;
nodes = (
"625 125 LINE",
"625 625 LINE",
"750 625 LINE",
"750 125 LINE"
);
},
{
closed = 1;
nodes = (
"125 625 LINE",
"125 750 LINE",
"625 750 LINE",
"625 625 LINE"
);
}
);
width = 875;
}
);
note = uni5E4;
unicode = 05E4;
},
{
glyphname = "finaltsadi-hb";
layers = (
{
layerId = "FB18B4D0-91BB-452D-ABF9-2813DD21CA3B";
paths = (
{
closed = 1;
nodes = (
"250 -125 LINE",
"250 500 LINE",
"500 500 LINE",
"500 375 LINE",
"375 375 LINE",
"375 -125 LINE"
);
},
{
closed = 1;
nodes = (
"125 500 LINE",
"125 625 LINE",
"250 625 LINE",
"250 500 LINE"
);
},
{
closed = 1;
nodes = (
"0 625 LINE",
"0 750 LINE",
"125 750 LINE",
"125 625 LINE"
);
},
{
closed = 1;
nodes = (
"500 500 LINE",
"500 750 LINE",
"625 750 LINE",
"625 500 LINE"
);
}
);
width = 750;
}
);
note = uni5E5;
unicode = 05E5;
},
{
glyphname = "tsadi-hb";
layers = (
{
layerId = "FB18B4D0-91BB-452D-ABF9-2813DD21CA3B";
paths = (
{
closed = 1;
nodes = (
"0 0 LINE",
"0 125 LINE",
"500 125 LINE",
"500 250 LINE",
"375 250 LINE",
"375 375 LINE",
"625 375 LINE",
"625 125 LINE",
"750 125 LINE",
"750 0 LINE"
);
},
{
closed = 1;
nodes = (
"250 375 LINE",
"250 500 LINE",
"375 500 LINE",
"375 375 LINE"
);
},
{
closed = 1;
nodes = (
"125 500 LINE",
"125 625 LINE",
"250 625 LINE",
"250 500 LINE"
);
},
{
closed = 1;
nodes = (
"0 625 LINE",
"0 750 LINE",
"125 750 LINE",
"125 625 LINE"
);
},
{
closed = 1;
nodes = (
"625 375 LINE",
"625 750 LINE",
"750 750 LINE",
"750 375 LINE"
);
}
);
width = 875;
}
);
note = uni5E6;
unicode = 05E6;
},
{
glyphname = "qof-hb";
layers = (
{
layerId = "FB18B4D0-91BB-452D-ABF9-2813DD21CA3B";
paths = (
{
closed = 1;
nodes = (
"500 0 LINE",
"500 375 LINE",
"625 375 LINE",
"625 0 LINE"
);
},
{
closed = 1;
nodes = (
"0 -125 LINE",
"0 500 LINE",
"125 500 LINE",
"125 -125 LINE"
);
},
{
closed = 1;
nodes = (
"625 375 LINE",
"625 625 LINE",
"0 625 LINE",
"0 750 LINE",
"750 750 LINE",
"750 375 LINE"
);
}
);
width = 875;
}
);
note = uni5E7;
unicode = 05E7;
},
{
glyphname = "resh-hb";
layers = (
{
layerId = "FB18B4D0-91BB-452D-ABF9-2813DD21CA3B";
paths = (
{
closed = 1;
nodes = (
"375 0 LINE",
"375 625 LINE",
"500 625 LINE",
"500 0 LINE"
);
},
{
closed = 1;
nodes = (
"0 625 LINE",
"0 750 LINE",
"375 750 LINE",
"375 625 LINE"
);
}
);
width = 625;
}
);
note = uni5E8;
unicode = 05E8;
},
{
glyphname = "shin-hb";
layers = (
{
layerId = "FB18B4D0-91BB-452D-ABF9-2813DD21CA3B";
paths = (
{
closed = 1;
nodes = (
"125 0 LINE",
"125 125 LINE",
"625 125 LINE",
"625 0 LINE"
);
},
{
closed = 1;
nodes = (
"0 125 LINE",
"0 750 LINE",
"125 750 LINE",
"125 375 LINE",
"375 375 LINE",
"375 250 LINE",
"125 250 LINE",
"125 125 LINE"
);
},
{
closed = 1;
nodes = (
"375 375 LINE",
"375 750 LINE",
"500 750 LINE",
"500 375 LINE"
);
},
{
closed = 1;
nodes = (
"625 125 LINE",
"625 750 LINE",
"750 750 LINE",
"750 125 LINE"
);
}
);
width = 875;
}
);
note = uni5E9;
unicode = 05E9;
},
{
glyphname = "tav-hb";
layers = (
{
layerId = "FB18B4D0-91BB-452D-ABF9-2813DD21CA3B";
paths = (
{
closed = 1;
nodes = (
"625 0 LINE",
"625 625 LINE",
"750 625 LINE",
"750 0 LINE"
);
},
{
closed = 1;
nodes = (
"0 0 LINE",
"0 125 LINE",
"125 125 LINE",
"125 625 LINE",
"0 625 LINE",
"0 750 LINE",
"625 750 LINE",
"625 625 LINE",
"250 625 LINE",
"250 0 LINE"
);
}
);
width = 875;
}
);
note = uni5EA;
unicode = 05EA;
},
{
glyphname = zero;
layers = (
{
layerId = "FB18B4D0-91BB-452D-ABF9-2813DD21CA3B";
paths = (
{
closed = 1;
nodes = (
"250 0 LINE",
"250 125 LINE",
"500 125 LINE",
"500 0 LINE"
);
},
{
closed = 1;
nodes = (
"125 125 LINE",
"125 250 LINE",
"250 250 LINE",
"250 125 LINE"
);
},
{
closed = 1;
nodes = (
"500 125 LINE",
"500 250 LINE",
"625 250 LINE",
"625 125 LINE"
);
},
{
closed = 1;
nodes = (
"0 250 LINE",
"0 875 LINE",
"125 875 LINE",
"125 250 LINE"
);
},
{
closed = 1;
nodes = (
"625 250 LINE",
"625 875 LINE",
"750 875 LINE",
"750 250 LINE"
);
},
{
closed = 1;
nodes = (
"125 875 LINE",
"125 1000 LINE",
"250 1000 LINE",
"250 875 LINE"
);
},
{
closed = 1;
nodes = (
"500 875 LINE",
"500 1000 LINE",
"625 1000 LINE",
"625 875 LINE"
);
},
{
closed = 1;
nodes = (
"250 1000 LINE",
"250 1125 LINE",
"500 1125 LINE",
"500 1000 LINE"
);
}
);
width = 875;
}
);
note = zero;
unicode = 0030;
},
{
glyphname = one;
layers = (
{
layerId = "FB18B4D0-91BB-452D-ABF9-2813DD21CA3B";
paths = (
{
closed = 1;
nodes = (
"0 0 LINE",
"0 125 LINE",
"125 125 LINE",
"125 875 LINE",
"0 875 LINE",
"0 1000 LINE",
"125 1000 LINE",
"125 1125 LINE",
"250 1125 LINE",
"250 125 LINE",
"375 125 LINE",
"375 0 LINE"
);
}
);
width = 500;
}
);
note = one;
unicode = 0031;
},
{
glyphname = two;
layers = (
{
layerId = "FB18B4D0-91BB-452D-ABF9-2813DD21CA3B";
paths = (
{
closed = 1;
nodes = (
"0 0 LINE",
"0 250 LINE",
"125 250 LINE",
"125 125 LINE",
"625 125 LINE",
"625 0 LINE"
);
},
{
closed = 1;
nodes = (
"125 250 LINE",
"125 375 LINE",
"250 375 LINE",
"250 250 LINE"
);
},
{
closed = 1;
nodes = (
"250 375 LINE",
"250 500 LINE",
"375 500 LINE",
"375 375 LINE"
);
},
{
closed = 1;
nodes = (
"375 500 LINE",
"375 625 LINE",
"500 625 LINE",
"500 500 LINE"
);
},
{
closed = 1;
nodes = (
"0 875 LINE",
"0 1000 LINE",
"125 1000 LINE",
"125 875 LINE"
);
},
{
closed = 1;
nodes = (
"500 625 LINE",
"500 1000 LINE",
"625 1000 LINE",
"625 625 LINE"
);
},
{
closed = 1;
nodes = (
"125 1000 LINE",
"125 1125 LINE",
"500 1125 LINE",
"500 1000 LINE"
);
}
);
width = 750;
}
);
note = two;
unicode = 0032;
},
{
glyphname = four;
layers = (
{
layerId = "FB18B4D0-91BB-452D-ABF9-2813DD21CA3B";
paths = (
{
closed = 1;
nodes = (
"125 625 LINE",
"125 750 LINE",
"250 750 LINE",
"250 625 LINE"
);
},
{
closed = 1;
nodes = (
"375 0 LINE",
"375 125 LINE",
"500 125 LINE",
"500 375 LINE",
"0 375 LINE",
"0 625 LINE",
"125 625 LINE",
"125 500 LINE",
"500 500 LINE",
"500 750 LINE",
"625 750 LINE",
"625 500 LINE",
"750 500 LINE",
"750 375 LINE",
"625 375 LINE",
"625 125 LINE",
"750 125 LINE",
"750 0 LINE"
);
},
{
closed = 1;
nodes = (
"250 750 LINE",
"250 875 LINE",
"375 875 LINE",
"375 750 LINE"
);
},
{
closed = 1;
nodes = (
"375 875 LINE",
"375 1000 LINE",
"500 1000 LINE",
"500 875 LINE"
);
},
{
closed = 1;
nodes = (
"500 1000 LINE",
"500 1125 LINE",
"625 1125 LINE",
"625 1000 LINE"
);
}
);
width = 875;
}
);
note = four;
unicode = 0034;
},
{
glyphname = five;
lastChange = "2025-11-13 20:14:36 +0000";
layers = (
{
components = (
{
name = pixel;
transform = "{1, 0, 0, 1, 0, 750}";
},
{
name = pixel;
transform = "{1, 0, 0, 1, 375, 0}";
},
{
name = pixel;
transform = "{1, 0, 0, 1, 250, 0}";
},
{
name = pixel;
transform = "{1, 0, 0, 1, 625, 375}";
},
{
name = pixel;
transform = "{1, 0, 0, 1, 625, 250}";
},
{
name = pixel;
transform = "{1, 0, 0, 1, 500, 125}";
},
{
name = pixel;
transform = "{1, 0, 0, 1, 500, 500}";
},
{
name = pixel;
transform = "{1, 0, 0, 1, 375, 625}";
},
{
name = pixel;
transform = "{1, 0, 0, 1, 250, 625}";
},
{
name = pixel;
transform = "{1, 0, 0, 1, 125, 625}";
},
{
name = pixel;
transform = "{1, 0, 0, 1, 0, 875}";
},
{
name = pixel;
transform = "{1, 0, 0, 1, 125, 1000}";
},
{
name = pixel;
transform = "{1, 0, 0, 1, 250, 1000}";
},
{
name = pixel;
transform = "{1, 0, 0, 1, 375, 1000}";
},
{
name = pixel;
transform = "{1, 0, 0, 1, 500, 1000}";
},
{
name = pixel;
transform = "{1, 0, 0, 1, 0, 125}";
},
{
name = pixel;
transform = "{1, 0, 0, 1, 125, 0}";
},
{
name = pixel;
transform = "{1, 0, 0, 1, 0, 1000}";
}
);
layerId = "FB18B4D0-91BB-452D-ABF9-2813DD21CA3B";
paths = (
{
closed = 1;
nodes = (
"125 1000 LINE",
"625 1000 LINE",
"625 1125 LINE",
"125 1125 LINE"
);
},
{
closed = 1;
nodes = (
"0 750 LINE",
"125 750 LINE",
"125 1125 LINE",
"0 1125 LINE"
);
},
{
closed = 1;
nodes = (
"125 625 LINE",
"500 625 LINE",
"500 750 LINE",
"125 750 LINE"
);
},
{
closed = 1;
nodes = (
"500 500 LINE",
"625 500 LINE",
"625 625 LINE",
"500 625 LINE"
);
},
{
closed = 1;
nodes = (
"625 250 LINE",
"750 250 LINE",
"750 500 LINE",
"625 500 LINE"
);
},
{
closed = 1;
nodes = (
"500 125 LINE",
"625 125 LINE",
"625 250 LINE",
"500 250 LINE"
);
},
{
closed = 1;
nodes = (
"125 0 LINE",
"500 0 LINE",
"500 125 LINE",
"125 125 LINE"
);
},
{
closed = 1;
nodes = (
"0 125 LINE",
"125 125 LINE",
"125 250 LINE",
"0 250 LINE"
);
}
);
width = 875;
}
);
note = five;
unicode = 0035;
},
{
glyphname = six;
lastChange = "2025-11-13 20:12:37 +0000";
layers = (
{
layerId = "FB18B4D0-91BB-452D-ABF9-2813DD21CA3B";
paths = (
{
closed = 1;
nodes = (
"500 1125 LINE",
"500 1000 LINE",
"250 1000 LINE",
"250 1125 LINE"
);
},
{
closed = 1;
nodes = (
"250 1000 LINE",
"250 875 LINE",
"125 875 LINE",
"125 1000 LINE"
);
},
{
closed = 1;
nodes = (
"500 750 LINE",
"500 625 LINE",
"250 625 LINE",
"250 750 LINE"
);
},
{
closed = 1;
nodes = (
"625 625 LINE",
"625 500 LINE",
"500 500 LINE",
"500 625 LINE"
);
},
{
closed = 1;
nodes = (
"750 500 LINE",
"750 250 LINE",
"625 250 LINE",
"625 500 LINE"
);
},
{
closed = 1;
nodes = (
"125 875 LINE",
"125 625 LINE",
"250 625 LINE",
"250 500 LINE",
"125 500 LINE",
"125 250 LINE",
"0 250 LINE",
"0 875 LINE"
);
},
{
closed = 1;
nodes = (
"625 250 LINE",
"625 125 LINE",
"500 125 LINE",
"500 250 LINE"
);
},
{
closed = 1;
nodes = (
"250 250 LINE",
"250 125 LINE",
"125 125 LINE",
"125 250 LINE"
);
},
{
closed = 1;
nodes = (
"500 125 LINE",
"500 0 LINE",
"250 0 LINE",
"250 125 LINE"
);
},
{
closed = 1;
nodes = (
"500 875 LINE",
"625 875 LINE",
"625 1000 LINE",
"500 1000 LINE"
);
}
);
width = 875;
}
);
note = six;
unicode = 0036;
},
{
glyphname = seven;
layers = (
{
layerId = "FB18B4D0-91BB-452D-ABF9-2813DD21CA3B";
paths = (
{
closed = 1;
nodes = (
"250 0 LINE",
"250 375 LINE",
"375 375 LINE",
"375 0 LINE"
);
},
{
closed = 1;
nodes = (
"375 375 LINE",
"375 625 LINE",
"500 625 LINE",
"500 375 LINE"
);
},
{
closed = 1;
nodes = (
"500 625 LINE",
"500 875 LINE",
"625 875 LINE",
"625 625 LINE"
);
},
{
closed = 1;
nodes = (
"0 875 LINE",
"0 1125 LINE",
"750 1125 LINE",
"750 875 LINE",
"625 875 LINE",
"625 1000 LINE",
"125 1000 LINE",
"125 875 LINE"
);
}
);
width = 875;
}
);
note = seven;
unicode = 0037;
},
{
glyphname = eight;
lastChange = "2025-11-13 16:37:50 +0000";
layers = (
{
layerId = "FB18B4D0-91BB-452D-ABF9-2813DD21CA3B";
paths = (
{
closed = 1;
nodes = (
"250 0 LINE",
"250 125 LINE",
"500 125 LINE",
"500 0 LINE"
);
},
{
closed = 1;
nodes = (
"125 125 LINE",
"125 250 LINE",
"250 250 LINE",
"250 125 LINE"
);
},
{
closed = 1;
nodes = (
"500 125 LINE",
"500 250 LINE",
"625 250 LINE",
"625 125 LINE"
);
},
{
closed = 1;
nodes = (
"0 250 LINE",
"0 500 LINE",
"125 500 LINE",
"125 250 LINE"
);
},
{
closed = 1;
nodes = (
"625 250 LINE",
"625 500 LINE",
"750 500 LINE",
"750 250 LINE"
);
},
{
closed = 1;
nodes = (
"125 500 LINE",
"125 625 LINE",
"250 625 LINE",
"250 500 LINE"
);
},
{
closed = 1;
nodes = (
"500 500 LINE",
"500 625 LINE",
"625 625 LINE",
"625 500 LINE"
);
},
{
closed = 1;
nodes = (
"250 625 LINE",
"250 750 LINE",
"500 750 LINE",
"500 625 LINE"
);
},
{
closed = 1;
nodes = (
"125 750 LINE",
"125 1000 LINE",
"250 1000 LINE",
"250 750 LINE"
);
},
{
closed = 1;
nodes = (
"500 750 LINE",
"500 1000 LINE",
"625 1000 LINE",
"625 750 LINE"
);
},
{
closed = 1;
nodes = (
"250 1000 LINE",
"250 1125 LINE",
"500 1125 LINE",
"500 1000 LINE"
);
}
);
width = 875;
}
);
note = eight;
unicode = 0038;
},
{
glyphname = nine;
lastChange = "2025-11-13 20:12:52 +0000";
layers = (
{
layerId = "FB18B4D0-91BB-452D-ABF9-2813DD21CA3B";
paths = (
{
closed = 1;
nodes = (
"250 0 LINE",
"250 125 LINE",
"500 125 LINE",
"500 0 LINE"
);
},
{
closed = 1;
nodes = (
"500 125 LINE",
"500 250 LINE",
"625 250 LINE",
"625 125 LINE"
);
},
{
closed = 1;
nodes = (
"250 375 LINE",
"250 500 LINE",
"500 500 LINE",
"500 375 LINE"
);
},
{
closed = 1;
nodes = (
"125 500 LINE",
"125 625 LINE",
"250 625 LINE",
"250 500 LINE"
);
},
{
closed = 1;
nodes = (
"0 625 LINE",
"0 875 LINE",
"125 875 LINE",
"125 625 LINE"
);
},
{
closed = 1;
nodes = (
"625 250 LINE",
"625 500 LINE",
"500 500 LINE",
"500 625 LINE",
"625 625 LINE",
"625 875 LINE",
"750 875 LINE",
"750 250 LINE"
);
},
{
closed = 1;
nodes = (
"125 875 LINE",
"125 1000 LINE",
"250 1000 LINE",
"250 875 LINE"
);
},
{
closed = 1;
nodes = (
"500 875 LINE",
"500 1000 LINE",
"625 1000 LINE",
"625 875 LINE"
);
},
{
closed = 1;
nodes = (
"250 1000 LINE",
"250 1125 LINE",
"500 1125 LINE",
"500 1000 LINE"
);
},
{
closed = 1;
nodes = (
"125 125 LINE",
"250 125 LINE",
"250 250 LINE",
"125 250 LINE"
);
}
);
width = 875;
}
);
note = nine;
unicode = 0039;
},
{
glyphname = onesuperior;
layers = (
{
layerId = "FB18B4D0-91BB-452D-ABF9-2813DD21CA3B";
paths = (
{
closed = 1;
nodes = (
"125 750 LINE",
"125 1000 LINE",
"0 1000 LINE",
"0 1125 LINE",
"250 1125 LINE",
"250 750 LINE"
);
}
);
width = 375;
}
);
note = uniB9;
unicode = 00B9;
},
{
glyphname = twosuperior;
layers = (
{
layerId = "FB18B4D0-91BB-452D-ABF9-2813DD21CA3B";
paths = (
{
closed = 1;
nodes = (
"125 750 LINE",
"125 1000 LINE",
"0 1000 LINE",
"0 1125 LINE",
"250 1125 LINE",
"250 875 LINE",
"375 875 LINE",
"375 750 LINE"
);
}
);
width = 500;
}
);
note = uniB2;
unicode = 00B2;
},
{
glyphname = threesuperior;
layers = (
{
layerId = "FB18B4D0-91BB-452D-ABF9-2813DD21CA3B";
paths = (
{
closed = 1;
nodes = (
"0 750 LINE",
"0 875 LINE",
"125 875 LINE",
"125 1000 LINE",
"0 1000 LINE",
"0 1125 LINE",
"375 1125 LINE",
"375 750 LINE"
);
}
);
width = 500;
}
);
note = uniB3;
unicode = 00B3;
},
{
glyphname = fraction;
layers = (
{
layerId = "FB18B4D0-91BB-452D-ABF9-2813DD21CA3B";
paths = (
{
closed = 1;
nodes = (
"0 0 LINE",
"0 125 LINE",
"125 125 LINE",
"125 0 LINE"
);
},
{
closed = 1;
nodes = (
"125 125 LINE",
"125 250 LINE",
"250 250 LINE",
"250 125 LINE"
);
},
{
closed = 1;
nodes = (
"250 250 LINE",
"250 375 LINE",
"375 375 LINE",
"375 250 LINE"
);
},
{
closed = 1;
nodes = (
"375 375 LINE",
"375 500 LINE",
"500 500 LINE",
"500 375 LINE"
);
},
{
closed = 1;
nodes = (
"500 500 LINE",
"500 625 LINE",
"625 625 LINE",
"625 500 LINE"
);
},
{
closed = 1;
nodes = (
"625 625 LINE",
"625 750 LINE",
"750 750 LINE",
"750 625 LINE"
);
},
{
closed = 1;
nodes = (
"750 750 LINE",
"750 875 LINE",
"875 875 LINE",
"875 750 LINE"
);
},
{
closed = 1;
nodes = (
"875 875 LINE",
"875 1000 LINE",
"1000 1000 LINE",
"1000 875 LINE"
);
},
{
closed = 1;
nodes = (
"1000 1000 LINE",
"1000 1125 LINE",
"1125 1125 LINE",
"1125 1000 LINE"
);
}
);
width = 1250;
}
);
note = fraction;
unicode = 2044;
},
{
glyphname = onehalf;
layers = (
{
layerId = "FB18B4D0-91BB-452D-ABF9-2813DD21CA3B";
paths = (
{
closed = 1;
nodes = (
"0 0 LINE",
"0 125 LINE",
"125 125 LINE",
"125 0 LINE"
);
},
{
closed = 1;
nodes = (
"125 125 LINE",
"125 250 LINE",
"250 250 LINE",
"250 125 LINE"
);
},
{
closed = 1;
nodes = (
"250 250 LINE",
"250 375 LINE",
"375 375 LINE",
"375 250 LINE"
);
},
{
closed = 1;
nodes = (
"750 0 LINE",
"750 250 LINE",
"625 250 LINE",
"625 375 LINE",
"875 375 LINE",
"875 125 LINE",
"1000 125 LINE",
"1000 0 LINE"
);
},
{
closed = 1;
nodes = (
"375 375 LINE",
"375 500 LINE",
"500 500 LINE",
"500 375 LINE"
);
},
{
closed = 1;
nodes = (
"500 500 LINE",
"500 625 LINE",
"625 625 LINE",
"625 500 LINE"
);
},
{
closed = 1;
nodes = (
"625 625 LINE",
"625 750 LINE",
"750 750 LINE",
"750 625 LINE"
);
},
{
closed = 1;
nodes = (
"125 625 LINE",
"125 875 LINE",
"250 875 LINE",
"250 625 LINE"
);
},
{
closed = 1;
nodes = (
"750 750 LINE",
"750 875 LINE",
"875 875 LINE",
"875 750 LINE"
);
}
);
width = 1125;
}
);
note = onehalf;
unicode = 00BD;
},
{
glyphname = onequarter;
layers = (
{
layerId = "FB18B4D0-91BB-452D-ABF9-2813DD21CA3B";
paths = (
{
closed = 1;
nodes = (
"0 0 LINE",
"0 125 LINE",
"125 125 LINE",
"125 0 LINE"
);
},
{
closed = 1;
nodes = (
"125 125 LINE",
"125 250 LINE",
"250 250 LINE",
"250 125 LINE"
);
},
{
closed = 1;
nodes = (
"250 250 LINE",
"250 375 LINE",
"375 375 LINE",
"375 250 LINE"
);
},
{
closed = 1;
nodes = (
"875 0 LINE",
"875 125 LINE",
"625 125 LINE",
"625 375 LINE",
"750 375 LINE",
"750 250 LINE",
"875 250 LINE",
"875 375 LINE",
"1000 375 LINE",
"1000 0 LINE"
);
},
{
closed = 1;
nodes = (
"375 375 LINE",
"375 500 LINE",
"500 500 LINE",
"500 375 LINE"
);
},
{
closed = 1;
nodes = (
"500 500 LINE",
"500 625 LINE",
"625 625 LINE",
"625 500 LINE"
);
},
{
closed = 1;
nodes = (
"625 625 LINE",
"625 750 LINE",
"750 750 LINE",
"750 625 LINE"
);
},
{
closed = 1;
nodes = (
"125 625 LINE",
"125 875 LINE",
"250 875 LINE",
"250 625 LINE"
);
},
{
closed = 1;
nodes = (
"750 750 LINE",
"750 875 LINE",
"875 875 LINE",
"875 750 LINE"
);
}
);
width = 1125;
}
);
note = onequarter;
unicode = 00BC;
},
{
glyphname = threequarters;
layers = (
{
layerId = "FB18B4D0-91BB-452D-ABF9-2813DD21CA3B";
paths = (
{
closed = 1;
nodes = (
"0 0 LINE",
"0 125 LINE",
"125 125 LINE",
"125 0 LINE"
);
},
{
closed = 1;
nodes = (
"125 125 LINE",
"125 250 LINE",
"250 250 LINE",
"250 125 LINE"
);
},
{
closed = 1;
nodes = (
"250 250 LINE",
"250 375 LINE",
"375 375 LINE",
"375 250 LINE"
);
},
{
closed = 1;
nodes = (
"750 0 LINE",
"750 125 LINE",
"500 125 LINE",
"500 375 LINE",
"625 375 LINE",
"625 250 LINE",
"750 250 LINE",
"750 375 LINE",
"875 375 LINE",
"875 0 LINE"
);
},
{
closed = 1;
nodes = (
"375 375 LINE",
"375 500 LINE",
"500 500 LINE",
"500 375 LINE"
);
},
{
closed = 1;
nodes = (
"500 500 LINE",
"500 625 LINE",
"625 625 LINE",
"625 500 LINE"
);
},
{
closed = 1;
nodes = (
"625 625 LINE",
"625 750 LINE",
"750 750 LINE",
"750 625 LINE"
);
},
{
closed = 1;
nodes = (
"0 500 LINE",
"0 625 LINE",
"125 625 LINE",
"125 750 LINE",
"0 750 LINE",
"0 875 LINE",
"375 875 LINE",
"375 500 LINE"
);
},
{
closed = 1;
nodes = (
"750 750 LINE",
"750 875 LINE",
"875 875 LINE",
"875 750 LINE"
);
}
);
width = 1000;
}
);
note = threequarters;
unicode = 00BE;
},
{
glyphname = period;
layers = (
{
layerId = "FB18B4D0-91BB-452D-ABF9-2813DD21CA3B";
paths = (
{
closed = 1;
nodes = (
"0 0 LINE",
"0 125 LINE",
"125 125 LINE",
"125 0 LINE"
);
}
);
width = 250;
}
);
note = period;
unicode = 002E;
},
{
glyphname = comma;
layers = (
{
layerId = "FB18B4D0-91BB-452D-ABF9-2813DD21CA3B";
paths = (
{
closed = 1;
nodes = (
"0 -125 LINE",
"0 0 LINE",
"125 0 LINE",
"125 -125 LINE"
);
},
{
closed = 1;
nodes = (
"125 0 LINE",
"125 250 LINE",
"250 250 LINE",
"250 0 LINE"
);
}
);
width = 375;
}
);
note = comma;
unicode = 002C;
},
{
glyphname = colon;
layers = (
{
layerId = "FB18B4D0-91BB-452D-ABF9-2813DD21CA3B";
paths = (
{
closed = 1;
nodes = (
"0 250 LINE",
"0 375 LINE",
"125 375 LINE",
"125 250 LINE"
);
},
{
closed = 1;
nodes = (
"0 625 LINE",
"0 750 LINE",
"125 750 LINE",
"125 625 LINE"
);
}
);
width = 250;
}
);
note = colon;
unicode = 003A;
},
{
glyphname = semicolon;
layers = (
{
layerId = "FB18B4D0-91BB-452D-ABF9-2813DD21CA3B";
paths = (
{
closed = 1;
nodes = (
"0 125 LINE",
"0 250 LINE",
"125 250 LINE",
"125 125 LINE"
);
},
{
closed = 1;
nodes = (
"125 250 LINE",
"125 500 LINE",
"250 500 LINE",
"250 250 LINE"
);
},
{
closed = 1;
nodes = (
"125 625 LINE",
"125 750 LINE",
"250 750 LINE",
"250 625 LINE"
);
}
);
width = 375;
}
);
note = semicolon;
unicode = 003B;
},
{
glyphname = ellipsis;
layers = (
{
layerId = "FB18B4D0-91BB-452D-ABF9-2813DD21CA3B";
paths = (
{
closed = 1;
nodes = (
"0 0 LINE",
"0 125 LINE",
"125 125 LINE",
"125 0 LINE"
);
},
{
closed = 1;
nodes = (
"250 0 LINE",
"250 125 LINE",
"375 125 LINE",
"375 0 LINE"
);
},
{
closed = 1;
nodes = (
"500 0 LINE",
"500 125 LINE",
"625 125 LINE",
"625 0 LINE"
);
}
);
width = 750;
}
);
note = ellipsis;
unicode = 2026;
},
{
glyphname = exclam;
layers = (
{
layerId = "FB18B4D0-91BB-452D-ABF9-2813DD21CA3B";
paths = (
{
closed = 1;
nodes = (
"0 0 LINE",
"0 125 LINE",
"125 125 LINE",
"125 0 LINE"
);
},
{
closed = 1;
nodes = (
"0 250 LINE",
"0 1125 LINE",
"125 1125 LINE",
"125 250 LINE"
);
}
);
width = 250;
}
);
note = exclam;
unicode = 0021;
},
{
glyphname = exclamdown;
layers = (
{
layerId = "FB18B4D0-91BB-452D-ABF9-2813DD21CA3B";
paths = (
{
closed = 1;
nodes = (
"0 -375 LINE",
"0 625 LINE",
"125 625 LINE",
"125 -375 LINE"
);
},
{
closed = 1;
nodes = (
"0 750 LINE",
"0 875 LINE",
"125 875 LINE",
"125 750 LINE"
);
}
);
width = 250;
}
);
note = exclamdown;
unicode = 00A1;
},
{
glyphname = question;
layers = (
{
layerId = "FB18B4D0-91BB-452D-ABF9-2813DD21CA3B";
paths = (
{
closed = 1;
nodes = (
"250 0 LINE",
"250 125 LINE",
"375 125 LINE",
"375 0 LINE"
);
},
{
closed = 1;
nodes = (
"250 250 LINE",
"250 500 LINE",
"375 500 LINE",
"375 250 LINE"
);
},
{
closed = 1;
nodes = (
"375 500 LINE",
"375 625 LINE",
"500 625 LINE",
"500 500 LINE"
);
},
{
closed = 1;
nodes = (
"500 625 LINE",
"500 750 LINE",
"625 750 LINE",
"625 625 LINE"
);
},
{
closed = 1;
nodes = (
"0 750 LINE",
"0 1000 LINE",
"125 1000 LINE",
"125 750 LINE"
);
},
{
closed = 1;
nodes = (
"625 750 LINE",
"625 1000 LINE",
"750 1000 LINE",
"750 750 LINE"
);
},
{
closed = 1;
nodes = (
"125 1000 LINE",
"125 1125 LINE",
"625 1125 LINE",
"625 1000 LINE"
);
}
);
width = 875;
}
);
note = question;
unicode = 003F;
},
{
glyphname = questiondown;
layers = (
{
layerId = "FB18B4D0-91BB-452D-ABF9-2813DD21CA3B";
paths = (
{
closed = 1;
nodes = (
"250 -375 LINE",
"250 -250 LINE",
"500 -250 LINE",
"500 -375 LINE"
);
},
{
closed = 1;
nodes = (
"500 -250 LINE",
"500 125 LINE",
"625 125 LINE",
"625 -250 LINE"
);
},
{
closed = 1;
nodes = (
"125 -250 LINE",
"125 250 LINE",
"250 250 LINE",
"250 -250 LINE"
);
},
{
closed = 1;
nodes = (
"250 250 LINE",
"250 375 LINE",
"375 375 LINE",
"375 250 LINE"
);
},
{
closed = 1;
nodes = (
"375 375 LINE",
"375 625 LINE",
"500 625 LINE",
"500 375 LINE"
);
},
{
closed = 1;
nodes = (
"375 750 LINE",
"375 875 LINE",
"500 875 LINE",
"500 750 LINE"
);
}
);
width = 750;
}
);
note = questiondown;
unicode = 00BF;
},
{
glyphname = periodcentered;
layers = (
{
layerId = "FB18B4D0-91BB-452D-ABF9-2813DD21CA3B";
paths = (
{
closed = 1;
nodes = (
"375 375 LINE",
"375 500 LINE",
"500 500 LINE",
"500 375 LINE"
);
}
);
width = 625;
}
);
note = periodcentered;
unicode = 00B7;
},
{
glyphname = bullet;
layers = (
{
layerId = "FB18B4D0-91BB-452D-ABF9-2813DD21CA3B";
paths = (
{
closed = 1;
nodes = (
"0 375 LINE",
"0 500 LINE",
"125 500 LINE",
"125 375 LINE"
);
}
);
width = 250;
}
);
note = bullet;
unicode = 2022;
},
{
glyphname = asterisk;
layers = (
{
layerId = "FB18B4D0-91BB-452D-ABF9-2813DD21CA3B";
paths = (
{
closed = 1;
nodes = (
"0 625 LINE",
"0 750 LINE",
"125 750 LINE",
"125 625 LINE"
);
},
{
closed = 1;
nodes = (
"250 625 LINE",
"250 750 LINE",
"375 750 LINE",
"375 625 LINE"
);
},
{
closed = 1;
nodes = (
"125 750 LINE",
"125 1000 LINE",
"250 1000 LINE",
"250 750 LINE"
);
},
{
closed = 1;
nodes = (
"0 1000 LINE",
"0 1125 LINE",
"125 1125 LINE",
"125 1000 LINE"
);
},
{
closed = 1;
nodes = (
"250 1000 LINE",
"250 1125 LINE",
"375 1125 LINE",
"375 1000 LINE"
);
}
);
width = 500;
}
);
note = asterisk;
unicode = 002A;
},
{
glyphname = dblverticalbar;
layers = (
{
layerId = "FB18B4D0-91BB-452D-ABF9-2813DD21CA3B";
paths = (
{
closed = 1;
nodes = (
"0 0 LINE",
"0 1125 LINE",
"125 1125 LINE",
"125 0 LINE"
);
},
{
closed = 1;
nodes = (
"250 0 LINE",
"250 1125 LINE",
"375 1125 LINE",
"375 0 LINE"
);
}
);
width = 500;
}
);
note = uni2016;
unicode = 2016;
},
{
glyphname = exclamdouble;
layers = (
{
layerId = "FB18B4D0-91BB-452D-ABF9-2813DD21CA3B";
paths = (
{
closed = 1;
nodes = (
"0 0 LINE",
"0 125 LINE",
"125 125 LINE",
"125 0 LINE"
);
},
{
closed = 1;
nodes = (
"250 0 LINE",
"250 125 LINE",
"375 125 LINE",
"375 0 LINE"
);
},
{
closed = 1;
nodes = (
"0 250 LINE",
"0 1125 LINE",
"125 1125 LINE",
"125 250 LINE"
);
},
{
closed = 1;
nodes = (
"250 250 LINE",
"250 1125 LINE",
"375 1125 LINE",
"375 250 LINE"
);
}
);
width = 500;
}
);
note = exclamdbl;
unicode = 203C;
},
{
glyphname = hyphenationpoint;
layers = (
{
layerId = "FB18B4D0-91BB-452D-ABF9-2813DD21CA3B";
paths = (
{
closed = 1;
nodes = (
"0 375 LINE",
"0 500 LINE",
"125 500 LINE",
"125 375 LINE"
);
}
);
width = 250;
}
);
note = uni2027;
unicode = 2027;
},
{
glyphname = numbersign;
layers = (
{
layerId = "FB18B4D0-91BB-452D-ABF9-2813DD21CA3B";
paths = (
{
closed = 1;
nodes = (
"500 375 LINE",
"500 625 LINE",
"250 625 LINE",
"250 375 LINE"
);
},
{
closed = 1;
nodes = (
"125 0 LINE",
"125 250 LINE",
"0 250 LINE",
"0 375 LINE",
"125 375 LINE",
"125 625 LINE",
"0 625 LINE",
"0 750 LINE",
"125 750 LINE",
"125 1125 LINE",
"250 1125 LINE",
"250 750 LINE",
"500 750 LINE",
"500 1125 LINE",
"625 1125 LINE",
"625 750 LINE",
"750 750 LINE",
"750 625 LINE",
"625 625 LINE",
"625 375 LINE",
"750 375 LINE",
"750 250 LINE",
"625 250 LINE",
"625 0 LINE",
"500 0 LINE",
"500 250 LINE",
"250 250 LINE",
"250 0 LINE"
);
}
);
width = 875;
}
);
note = numbersign;
unicode = 0023;
},
{
glyphname = overline;
layers = (
{
layerId = "FB18B4D0-91BB-452D-ABF9-2813DD21CA3B";
paths = (
{
closed = 1;
nodes = (
"0 1000 LINE",
"0 1125 LINE",
"500 1125 LINE",
"500 1000 LINE"
);
}
);
width = 625;
}
);
note = uni203E;
unicode = 203E;
},
{
glyphname = referencemark;
layers = (
{
layerId = "FB18B4D0-91BB-452D-ABF9-2813DD21CA3B";
paths = (
{
closed = 1;
nodes = (
"0 0 LINE",
"0 125 LINE",
"125 125 LINE",
"125 0 LINE"
);
},
{
closed = 1;
nodes = (
"500 0 LINE",
"500 125 LINE",
"625 125 LINE",
"625 0 LINE"
);
},
{
closed = 1;
nodes = (
"1000 0 LINE",
"1000 125 LINE",
"1125 125 LINE",
"1125 0 LINE"
);
},
{
closed = 1;
nodes = (
"125 125 LINE",
"125 250 LINE",
"250 250 LINE",
"250 125 LINE"
);
},
{
closed = 1;
nodes = (
"875 125 LINE",
"875 250 LINE",
"1000 250 LINE",
"1000 125 LINE"
);
},
{
closed = 1;
nodes = (
"250 250 LINE",
"250 375 LINE",
"375 375 LINE",
"375 250 LINE"
);
},
{
closed = 1;
nodes = (
"750 250 LINE",
"750 375 LINE",
"875 375 LINE",
"875 250 LINE"
);
},
{
closed = 1;
nodes = (
"375 375 LINE",
"375 500 LINE",
"500 500 LINE",
"500 375 LINE"
);
},
{
closed = 1;
nodes = (
"625 375 LINE",
"625 500 LINE",
"750 500 LINE",
"750 375 LINE"
);
},
{
closed = 1;
nodes = (
"0 500 LINE",
"0 625 LINE",
"125 625 LINE",
"125 500 LINE"
);
},
{
closed = 1;
nodes = (
"500 500 LINE",
"500 625 LINE",
"625 625 LINE",
"625 500 LINE"
);
},
{
closed = 1;
nodes = (
"1000 500 LINE",
"1000 625 LINE",
"1125 625 LINE",
"1125 500 LINE"
);
},
{
closed = 1;
nodes = (
"375 625 LINE",
"375 750 LINE",
"500 750 LINE",
"500 625 LINE"
);
},
{
closed = 1;
nodes = (
"625 625 LINE",
"625 750 LINE",
"750 750 LINE",
"750 625 LINE"
);
},
{
closed = 1;
nodes = (
"250 750 LINE",
"250 875 LINE",
"375 875 LINE",
"375 750 LINE"
);
},
{
closed = 1;
nodes = (
"750 750 LINE",
"750 875 LINE",
"875 875 LINE",
"875 750 LINE"
);
},
{
closed = 1;
nodes = (
"125 875 LINE",
"125 1000 LINE",
"250 1000 LINE",
"250 875 LINE"
);
},
{
closed = 1;
nodes = (
"875 875 LINE",
"875 1000 LINE",
"1000 1000 LINE",
"1000 875 LINE"
);
},
{
closed = 1;
nodes = (
"0 1000 LINE",
"0 1125 LINE",
"125 1125 LINE",
"125 1000 LINE"
);
},
{
closed = 1;
nodes = (
"500 1000 LINE",
"500 1125 LINE",
"625 1125 LINE",
"625 1000 LINE"
);
},
{
closed = 1;
nodes = (
"1000 1000 LINE",
"1000 1125 LINE",
"1125 1125 LINE",
"1125 1000 LINE"
);
}
);
width = 1250;
}
);
note = uni203B;
unicode = 203B;
},
{
glyphname = slash;
layers = (
{
layerId = "FB18B4D0-91BB-452D-ABF9-2813DD21CA3B";
paths = (
{
closed = 1;
nodes = (
"0 0 LINE",
"0 125 LINE",
"125 125 LINE",
"125 0 LINE"
);
},
{
closed = 1;
nodes = (
"125 125 LINE",
"125 375 LINE",
"250 375 LINE",
"250 125 LINE"
);
},
{
closed = 1;
nodes = (
"250 375 LINE",
"250 625 LINE",
"375 625 LINE",
"375 375 LINE"
);
},
{
closed = 1;
nodes = (
"375 625 LINE",
"375 750 LINE",
"500 750 LINE",
"500 625 LINE"
);
},
{
closed = 1;
nodes = (
"500 750 LINE",
"500 1000 LINE",
"625 1000 LINE",
"625 750 LINE"
);
},
{
closed = 1;
nodes = (
"625 1000 LINE",
"625 1125 LINE",
"750 1125 LINE",
"750 1000 LINE"
);
}
);
width = 875;
}
);
note = slash;
unicode = 002F;
},
{
glyphname = backslash;
layers = (
{
layerId = "FB18B4D0-91BB-452D-ABF9-2813DD21CA3B";
paths = (
{
closed = 1;
nodes = (
"625 0 LINE",
"625 125 LINE",
"750 125 LINE",
"750 0 LINE"
);
},
{
closed = 1;
nodes = (
"500 125 LINE",
"500 375 LINE",
"625 375 LINE",
"625 125 LINE"
);
},
{
closed = 1;
nodes = (
"375 375 LINE",
"375 500 LINE",
"500 500 LINE",
"500 375 LINE"
);
},
{
closed = 1;
nodes = (
"250 500 LINE",
"250 750 LINE",
"375 750 LINE",
"375 500 LINE"
);
},
{
closed = 1;
nodes = (
"125 750 LINE",
"125 1000 LINE",
"250 1000 LINE",
"250 750 LINE"
);
},
{
closed = 1;
nodes = (
"0 1000 LINE",
"0 1125 LINE",
"125 1125 LINE",
"125 1000 LINE"
);
}
);
width = 875;
}
);
note = backslash;
unicode = 005C;
},
{
glyphname = twodotenleader;
layers = (
{
layerId = "FB18B4D0-91BB-452D-ABF9-2813DD21CA3B";
paths = (
{
closed = 1;
nodes = (
"0 375 LINE",
"0 500 LINE",
"125 500 LINE",
"125 375 LINE"
);
},
{
closed = 1;
nodes = (
"375 375 LINE",
"375 500 LINE",
"500 500 LINE",
"500 375 LINE"
);
}
);
width = 625;
}
);
note = twodotenleader;
unicode = 2025;
},
{
glyphname = verticalfourdots;
layers = (
{
layerId = "FB18B4D0-91BB-452D-ABF9-2813DD21CA3B";
paths = (
{
closed = 1;
nodes = (
"0 -125 LINE",
"0 0 LINE",
"125 0 LINE",
"125 -125 LINE"
);
},
{
closed = 1;
nodes = (
"0 250 LINE",
"0 375 LINE",
"125 375 LINE",
"125 250 LINE"
);
},
{
closed = 1;
nodes = (
"0 625 LINE",
"0 750 LINE",
"125 750 LINE",
"125 625 LINE"
);
},
{
closed = 1;
nodes = (
"0 1000 LINE",
"0 1125 LINE",
"125 1125 LINE",
"125 1000 LINE"
);
}
);
width = 250;
}
);
note = uni205E;
unicode = 205E;
},
{
glyphname = parenleft;
layers = (
{
layerId = "FB18B4D0-91BB-452D-ABF9-2813DD21CA3B";
paths = (
{
closed = 1;
nodes = (
"125 0 LINE",
"125 125 LINE",
"375 125 LINE",
"375 0 LINE"
);
},
{
closed = 1;
nodes = (
"0 125 LINE",
"0 1000 LINE",
"125 1000 LINE",
"125 125 LINE"
);
},
{
closed = 1;
nodes = (
"125 1000 LINE",
"125 1125 LINE",
"375 1125 LINE",
"375 1000 LINE"
);
}
);
width = 500;
}
);
note = parenleft;
unicode = 0028;
},
{
glyphname = parenright;
layers = (
{
layerId = "FB18B4D0-91BB-452D-ABF9-2813DD21CA3B";
paths = (
{
closed = 1;
nodes = (
"0 0 LINE",
"0 125 LINE",
"250 125 LINE",
"250 0 LINE"
);
},
{
closed = 1;
nodes = (
"250 125 LINE",
"250 1000 LINE",
"375 1000 LINE",
"375 125 LINE"
);
},
{
closed = 1;
nodes = (
"0 1000 LINE",
"0 1125 LINE",
"250 1125 LINE",
"250 1000 LINE"
);
}
);
width = 500;
}
);
note = parenright;
unicode = 0029;
},
{
glyphname = braceleft;
layers = (
{
layerId = "FB18B4D0-91BB-452D-ABF9-2813DD21CA3B";
paths = (
{
closed = 1;
nodes = (
"250 0 LINE",
"250 125 LINE",
"500 125 LINE",
"500 0 LINE"
);
},
{
closed = 1;
nodes = (
"125 125 LINE",
"125 375 LINE",
"250 375 LINE",
"250 125 LINE"
);
},
{
closed = 1;
nodes = (
"250 375 LINE",
"250 500 LINE",
"0 500 LINE",
"0 625 LINE",
"250 625 LINE",
"250 750 LINE",
"375 750 LINE",
"375 375 LINE"
);
},
{
closed = 1;
nodes = (
"125 750 LINE",
"125 1000 LINE",
"250 1000 LINE",
"250 750 LINE"
);
},
{
closed = 1;
nodes = (
"250 1000 LINE",
"250 1125 LINE",
"500 1125 LINE",
"500 1000 LINE"
);
}
);
width = 625;
}
);
note = braceleft;
unicode = 007B;
},
{
glyphname = braceright;
layers = (
{
layerId = "FB18B4D0-91BB-452D-ABF9-2813DD21CA3B";
paths = (
{
closed = 1;
nodes = (
"0 0 LINE",
"0 125 LINE",
"250 125 LINE",
"250 0 LINE"
);
},
{
closed = 1;
nodes = (
"250 125 LINE",
"250 375 LINE",
"375 375 LINE",
"375 125 LINE"
);
},
{
closed = 1;
nodes = (
"125 375 LINE",
"125 750 LINE",
"250 750 LINE",
"250 625 LINE",
"500 625 LINE",
"500 500 LINE",
"250 500 LINE",
"250 375 LINE"
);
},
{
closed = 1;
nodes = (
"250 750 LINE",
"250 1000 LINE",
"375 1000 LINE",
"375 750 LINE"
);
},
{
closed = 1;
nodes = (
"0 1000 LINE",
"0 1125 LINE",
"250 1125 LINE",
"250 1000 LINE"
);
}
);
width = 625;
}
);
note = braceright;
unicode = 007D;
},
{
glyphname = bracketleft;
layers = (
{
layerId = "FB18B4D0-91BB-452D-ABF9-2813DD21CA3B";
paths = (
{
closed = 1;
nodes = (
"0 0 LINE",
"0 1125 LINE",
"250 1125 LINE",
"250 1000 LINE",
"125 1000 LINE",
"125 125 LINE",
"250 125 LINE",
"250 0 LINE"
);
}
);
width = 375;
}
);
note = bracketleft;
unicode = 005B;
},
{
glyphname = bracketright;
layers = (
{
layerId = "FB18B4D0-91BB-452D-ABF9-2813DD21CA3B";
paths = (
{
closed = 1;
nodes = (
"0 0 LINE",
"0 125 LINE",
"125 125 LINE",
"125 1000 LINE",
"0 1000 LINE",
"0 1125 LINE",
"250 1125 LINE",
"250 0 LINE"
);
}
);
width = 375;
}
);
note = bracketright;
unicode = 005D;
},
{
glyphname = hyphen;
layers = (
{
layerId = "FB18B4D0-91BB-452D-ABF9-2813DD21CA3B";
paths = (
{
closed = 1;
nodes = (
"0 500 LINE",
"0 625 LINE",
"375 625 LINE",
"375 500 LINE"
);
}
);
width = 500;
}
);
note = hyphen;
unicode = 002D;
},
{
glyphname = softhyphen;
layers = (
{
layerId = "FB18B4D0-91BB-452D-ABF9-2813DD21CA3B";
paths = (
{
closed = 1;
nodes = (
"0 375 LINE",
"0 500 LINE",
"375 500 LINE",
"375 375 LINE"
);
}
);
width = 500;
}
);
note = uniAD;
unicode = 00AD;
},
{
glyphname = endash;
layers = (
{
layerId = "FB18B4D0-91BB-452D-ABF9-2813DD21CA3B";
paths = (
{
closed = 1;
nodes = (
"0 375 LINE",
"0 500 LINE",
"375 500 LINE",
"375 375 LINE"
);
}
);
width = 500;
}
);
note = endash;
unicode = 2013;
},
{
glyphname = emdash;
layers = (
{
layerId = "FB18B4D0-91BB-452D-ABF9-2813DD21CA3B";
paths = (
{
closed = 1;
nodes = (
"0 375 LINE",
"0 500 LINE",
"750 500 LINE",
"750 375 LINE"
);
}
);
width = 875;
}
);
note = emdash;
unicode = 2014;
},
{
glyphname = figuredash;
layers = (
{
layerId = "FB18B4D0-91BB-452D-ABF9-2813DD21CA3B";
paths = (
{
closed = 1;
nodes = (
"0 375 LINE",
"0 500 LINE",
"500 500 LINE",
"500 375 LINE"
);
}
);
width = 625;
}
);
note = figuredash;
unicode = 2012;
},
{
glyphname = horizontalbar;
layers = (
{
layerId = "FB18B4D0-91BB-452D-ABF9-2813DD21CA3B";
paths = (
{
closed = 1;
nodes = (
"0 375 LINE",
"0 500 LINE",
"1000 500 LINE",
"1000 375 LINE"
);
}
);
width = 1125;
}
);
note = uni2015;
unicode = 2015;
},
{
glyphname = hyphentwo;
layers = (
{
layerId = "FB18B4D0-91BB-452D-ABF9-2813DD21CA3B";
paths = (
{
closed = 1;
nodes = (
"0 375 LINE",
"0 500 LINE",
"375 500 LINE",
"375 375 LINE"
);
}
);
width = 500;
}
);
note = uni2010;
unicode = 2010;
},
{
glyphname = underscore;
layers = (
{
layerId = "FB18B4D0-91BB-452D-ABF9-2813DD21CA3B";
paths = (
{
closed = 1;
nodes = (
"0 0 LINE",
"0 125 LINE",
"750 125 LINE",
"750 0 LINE"
);
}
);
width = 875;
}
);
note = underscore;
unicode = 005F;
},
{
glyphname = underscoredbl;
layers = (
{
layerId = "FB18B4D0-91BB-452D-ABF9-2813DD21CA3B";
paths = (
{
closed = 1;
nodes = (
"0 0 LINE",
"0 125 LINE",
"750 125 LINE",
"750 0 LINE"
);
}
);
width = 875;
}
);
note = underscoredbl;
unicode = 2017;
},
{
glyphname = quotesinglbase;
layers = (
{
layerId = "FB18B4D0-91BB-452D-ABF9-2813DD21CA3B";
paths = (
{
closed = 1;
nodes = (
"-125 -250 LINE",
"-125 -125 LINE",
"0 -125 LINE",
"0 -250 LINE"
);
},
{
closed = 1;
nodes = (
"0 -125 LINE",
"0 125 LINE",
"125 125 LINE",
"125 -125 LINE"
);
}
);
width = 250;
}
);
note = quotesinglbase;
unicode = 201A;
},
{
glyphname = quotedblbase;
layers = (
{
layerId = "FB18B4D0-91BB-452D-ABF9-2813DD21CA3B";
paths = (
{
closed = 1;
nodes = (
"-125 -250 LINE",
"-125 -125 LINE",
"0 -125 LINE",
"0 -250 LINE"
);
},
{
closed = 1;
nodes = (
"250 -250 LINE",
"250 -125 LINE",
"375 -125 LINE",
"375 -250 LINE"
);
},
{
closed = 1;
nodes = (
"0 -125 LINE",
"0 125 LINE",
"125 125 LINE",
"125 -125 LINE"
);
},
{
closed = 1;
nodes = (
"375 -125 LINE",
"375 125 LINE",
"500 125 LINE",
"500 -125 LINE"
);
}
);
width = 625;
}
);
note = quotedblbase;
unicode = 201E;
},
{
glyphname = quotedblleft;
layers = (
{
layerId = "FB18B4D0-91BB-452D-ABF9-2813DD21CA3B";
paths = (
{
closed = 1;
nodes = (
"0 750 LINE",
"0 1000 LINE",
"125 1000 LINE",
"125 750 LINE"
);
},
{
closed = 1;
nodes = (
"375 750 LINE",
"375 1000 LINE",
"500 1000 LINE",
"500 750 LINE"
);
},
{
closed = 1;
nodes = (
"125 1000 LINE",
"125 1125 LINE",
"250 1125 LINE",
"250 1000 LINE"
);
},
{
closed = 1;
nodes = (
"500 1000 LINE",
"500 1125 LINE",
"625 1125 LINE",
"625 1000 LINE"
);
}
);
width = 750;
}
);
note = quotedblleft;
unicode = 201C;
},
{
glyphname = quotedblright;
layers = (
{
layerId = "FB18B4D0-91BB-452D-ABF9-2813DD21CA3B";
paths = (
{
closed = 1;
nodes = (
"0 750 LINE",
"0 875 LINE",
"125 875 LINE",
"125 750 LINE"
);
},
{
closed = 1;
nodes = (
"375 750 LINE",
"375 875 LINE",
"500 875 LINE",
"500 750 LINE"
);
},
{
closed = 1;
nodes = (
"125 875 LINE",
"125 1125 LINE",
"250 1125 LINE",
"250 875 LINE"
);
},
{
closed = 1;
nodes = (
"500 875 LINE",
"500 1125 LINE",
"625 1125 LINE",
"625 875 LINE"
);
}
);
width = 750;
}
);
note = quotedblright;
unicode = 201D;
},
{
glyphname = quoteleft;
layers = (
{
layerId = "FB18B4D0-91BB-452D-ABF9-2813DD21CA3B";
paths = (
{
closed = 1;
nodes = (
"0 750 LINE",
"0 1000 LINE",
"125 1000 LINE",
"125 750 LINE"
);
},
{
closed = 1;
nodes = (
"125 1000 LINE",
"125 1125 LINE",
"250 1125 LINE",
"250 1000 LINE"
);
}
);
width = 375;
}
);
note = quoteleft;
unicode = 2018;
},
{
glyphname = quoteright;
layers = (
{
layerId = "FB18B4D0-91BB-452D-ABF9-2813DD21CA3B";
paths = (
{
closed = 1;
nodes = (
"0 750 LINE",
"0 875 LINE",
"125 875 LINE",
"125 750 LINE"
);
},
{
closed = 1;
nodes = (
"125 875 LINE",
"125 1125 LINE",
"250 1125 LINE",
"250 875 LINE"
);
}
);
width = 375;
}
);
note = quoteright;
unicode = 2019;
},
{
glyphname = quotereversed;
layers = (
{
layerId = "FB18B4D0-91BB-452D-ABF9-2813DD21CA3B";
paths = (
{
closed = 1;
nodes = (
"125 750 LINE",
"125 875 LINE",
"250 875 LINE",
"250 750 LINE"
);
},
{
closed = 1;
nodes = (
"0 875 LINE",
"0 1125 LINE",
"125 1125 LINE",
"125 875 LINE"
);
}
);
width = 375;
}
);
note = quotereversed;
unicode = 201B;
},
{
glyphname = quotedblrightreversed;
layers = (
{
layerId = "FB18B4D0-91BB-452D-ABF9-2813DD21CA3B";
paths = (
{
closed = 1;
nodes = (
"125 750 LINE",
"125 875 LINE",
"250 875 LINE",
"250 750 LINE"
);
},
{
closed = 1;
nodes = (
"500 750 LINE",
"500 875 LINE",
"625 875 LINE",
"625 750 LINE"
);
},
{
closed = 1;
nodes = (
"0 875 LINE",
"0 1125 LINE",
"125 1125 LINE",
"125 875 LINE"
);
},
{
closed = 1;
nodes = (
"375 875 LINE",
"375 1125 LINE",
"500 1125 LINE",
"500 875 LINE"
);
}
);
width = 750;
}
);
note = uni201F;
unicode = 201F;
},
{
glyphname = guillemetleft;
layers = (
{
layerId = "FB18B4D0-91BB-452D-ABF9-2813DD21CA3B";
paths = (
{
closed = 1;
nodes = (
"250 125 LINE",
"250 250 LINE",
"375 250 LINE",
"375 125 LINE"
);
},
{
closed = 1;
nodes = (
"625 125 LINE",
"625 250 LINE",
"750 250 LINE",
"750 125 LINE"
);
},
{
closed = 1;
nodes = (
"125 250 LINE",
"125 375 LINE",
"250 375 LINE",
"250 250 LINE"
);
},
{
closed = 1;
nodes = (
"500 250 LINE",
"500 375 LINE",
"625 375 LINE",
"625 250 LINE"
);
},
{
closed = 1;
nodes = (
"0 375 LINE",
"0 500 LINE",
"125 500 LINE",
"125 375 LINE"
);
},
{
closed = 1;
nodes = (
"375 375 LINE",
"375 500 LINE",
"500 500 LINE",
"500 375 LINE"
);
},
{
closed = 1;
nodes = (
"125 500 LINE",
"125 625 LINE",
"250 625 LINE",
"250 500 LINE"
);
},
{
closed = 1;
nodes = (
"500 500 LINE",
"500 625 LINE",
"625 625 LINE",
"625 500 LINE"
);
},
{
closed = 1;
nodes = (
"250 625 LINE",
"250 750 LINE",
"375 750 LINE",
"375 625 LINE"
);
},
{
closed = 1;
nodes = (
"625 625 LINE",
"625 750 LINE",
"750 750 LINE",
"750 625 LINE"
);
}
);
width = 875;
}
);
note = guillemotleft;
unicode = 00AB;
},
{
glyphname = guillemetright;
layers = (
{
layerId = "FB18B4D0-91BB-452D-ABF9-2813DD21CA3B";
paths = (
{
closed = 1;
nodes = (
"0 125 LINE",
"0 250 LINE",
"125 250 LINE",
"125 125 LINE"
);
},
{
closed = 1;
nodes = (
"375 125 LINE",
"375 250 LINE",
"500 250 LINE",
"500 125 LINE"
);
},
{
closed = 1;
nodes = (
"125 250 LINE",
"125 375 LINE",
"250 375 LINE",
"250 250 LINE"
);
},
{
closed = 1;
nodes = (
"500 250 LINE",
"500 375 LINE",
"625 375 LINE",
"625 250 LINE"
);
},
{
closed = 1;
nodes = (
"250 375 LINE",
"250 500 LINE",
"375 500 LINE",
"375 375 LINE"
);
},
{
closed = 1;
nodes = (
"625 375 LINE",
"625 500 LINE",
"750 500 LINE",
"750 375 LINE"
);
},
{
closed = 1;
nodes = (
"125 500 LINE",
"125 625 LINE",
"250 625 LINE",
"250 500 LINE"
);
},
{
closed = 1;
nodes = (
"500 500 LINE",
"500 625 LINE",
"625 625 LINE",
"625 500 LINE"
);
},
{
closed = 1;
nodes = (
"0 625 LINE",
"0 750 LINE",
"125 750 LINE",
"125 625 LINE"
);
},
{
closed = 1;
nodes = (
"375 625 LINE",
"375 750 LINE",
"500 750 LINE",
"500 625 LINE"
);
}
);
width = 875;
}
);
note = guillemotright;
unicode = 00BB;
},
{
glyphname = guilsinglleft;
layers = (
{
layerId = "FB18B4D0-91BB-452D-ABF9-2813DD21CA3B";
paths = (
{
closed = 1;
nodes = (
"250 125 LINE",
"250 250 LINE",
"375 250 LINE",
"375 125 LINE"
);
},
{
closed = 1;
nodes = (
"125 250 LINE",
"125 375 LINE",
"250 375 LINE",
"250 250 LINE"
);
},
{
closed = 1;
nodes = (
"0 375 LINE",
"0 500 LINE",
"125 500 LINE",
"125 375 LINE"
);
},
{
closed = 1;
nodes = (
"125 500 LINE",
"125 625 LINE",
"250 625 LINE",
"250 500 LINE"
);
},
{
closed = 1;
nodes = (
"250 625 LINE",
"250 750 LINE",
"375 750 LINE",
"375 625 LINE"
);
}
);
width = 500;
}
);
note = guilsinglleft;
unicode = 2039;
},
{
glyphname = guilsinglright;
layers = (
{
layerId = "FB18B4D0-91BB-452D-ABF9-2813DD21CA3B";
paths = (
{
closed = 1;
nodes = (
"0 125 LINE",
"0 250 LINE",
"125 250 LINE",
"125 125 LINE"
);
},
{
closed = 1;
nodes = (
"125 250 LINE",
"125 375 LINE",
"250 375 LINE",
"250 250 LINE"
);
},
{
closed = 1;
nodes = (
"250 375 LINE",
"250 500 LINE",
"375 500 LINE",
"375 375 LINE"
);
},
{
closed = 1;
nodes = (
"125 500 LINE",
"125 625 LINE",
"250 625 LINE",
"250 500 LINE"
);
},
{
closed = 1;
nodes = (
"0 625 LINE",
"0 750 LINE",
"125 750 LINE",
"125 625 LINE"
);
}
);
width = 500;
}
);
note = guilsinglright;
unicode = 203A;
},
{
glyphname = primeReversed;
layers = (
{
layerId = "FB18B4D0-91BB-452D-ABF9-2813DD21CA3B";
paths = (
{
closed = 1;
nodes = (
"250 750 LINE",
"250 875 LINE",
"375 875 LINE",
"375 750 LINE"
);
},
{
closed = 1;
nodes = (
"125 875 LINE",
"125 1000 LINE",
"250 1000 LINE",
"250 875 LINE"
);
},
{
closed = 1;
nodes = (
"0 1000 LINE",
"0 1125 LINE",
"125 1125 LINE",
"125 1000 LINE"
);
}
);
width = 500;
}
);
note = uni2035;
unicode = 2035;
},
{
glyphname = tripleprime;
layers = (
{
layerId = "FB18B4D0-91BB-452D-ABF9-2813DD21CA3B";
paths = (
{
closed = 1;
nodes = (
"0 750 LINE",
"0 875 LINE",
"125 875 LINE",
"125 750 LINE"
);
},
{
closed = 1;
nodes = (
"500 750 LINE",
"500 875 LINE",
"625 875 LINE",
"625 750 LINE"
);
},
{
closed = 1;
nodes = (
"1000 750 LINE",
"1000 875 LINE",
"1125 875 LINE",
"1125 750 LINE"
);
},
{
closed = 1;
nodes = (
"125 875 LINE",
"125 1000 LINE",
"250 1000 LINE",
"250 875 LINE"
);
},
{
closed = 1;
nodes = (
"625 875 LINE",
"625 1000 LINE",
"750 1000 LINE",
"750 875 LINE"
);
},
{
closed = 1;
nodes = (
"1125 875 LINE",
"1125 1000 LINE",
"1250 1000 LINE",
"1250 875 LINE"
);
},
{
closed = 1;
nodes = (
"250 1000 LINE",
"250 1125 LINE",
"375 1125 LINE",
"375 1000 LINE"
);
},
{
closed = 1;
nodes = (
"750 1000 LINE",
"750 1125 LINE",
"875 1125 LINE",
"875 1000 LINE"
);
},
{
closed = 1;
nodes = (
"1250 1000 LINE",
"1250 1125 LINE",
"1375 1125 LINE",
"1375 1000 LINE"
);
}
);
width = 1500;
}
);
note = uni2034;
unicode = 2034;
},
{
glyphname = quotedbl;
layers = (
{
layerId = "FB18B4D0-91BB-452D-ABF9-2813DD21CA3B";
paths = (
{
closed = 1;
nodes = (
"0 875 LINE",
"0 1125 LINE",
"125 1125 LINE",
"125 875 LINE"
);
},
{
closed = 1;
nodes = (
"250 875 LINE",
"250 1125 LINE",
"375 1125 LINE",
"375 875 LINE"
);
}
);
width = 500;
}
);
note = quotedbl;
unicode = 0022;
},
{
glyphname = quotesingle;
layers = (
{
layerId = "FB18B4D0-91BB-452D-ABF9-2813DD21CA3B";
paths = (
{
closed = 1;
nodes = (
"0 875 LINE",
"0 1125 LINE",
"125 1125 LINE",
"125 875 LINE"
);
}
);
width = 250;
}
);
note = quotesingle;
unicode = 0027;
},
{
glyphname = .notdef;
layers = (
{
layerId = "FB18B4D0-91BB-452D-ABF9-2813DD21CA3B";
paths = (
{
closed = 1;
nodes = (
"796 50 LINE",
"433 543 LINE",
"69 50 LINE"
);
},
{
closed = 1;
nodes = (
"413 563 LINE",
"50 1056 LINE",
"50 69 LINE"
);
},
{
closed = 1;
nodes = (
"815 1056 LINE",
"452 563 LINE",
"815 69 LINE"
);
},
{
closed = 1;
nodes = (
"796 1075 LINE",
"69 1075 LINE",
"433 582 LINE"
);
},
{
closed = 1;
nodes = (
"0 0 LINE",
"0 1125 LINE",
"865 1125 LINE",
"865 0 LINE"
);
}
);
width = 990;
}
);
note = .notdef;
},
{
glyphname = peace;
layers = (
{
layerId = "FB18B4D0-91BB-452D-ABF9-2813DD21CA3B";
paths = (
{
closed = 1;
nodes = (
"0 0 LINE",
"0 125 LINE",
"125 125 LINE",
"125 0 LINE"
);
},
{
closed = 1;
nodes = (
"750 0 LINE",
"750 125 LINE",
"875 125 LINE",
"875 0 LINE"
);
},
{
closed = 1;
nodes = (
"125 125 LINE",
"125 250 LINE",
"250 250 LINE",
"250 125 LINE"
);
},
{
closed = 1;
nodes = (
"625 125 LINE",
"625 250 LINE",
"750 250 LINE",
"750 125 LINE"
);
},
{
closed = 1;
nodes = (
"-125 -250 LINE",
"-125 -125 LINE",
"-250 -125 LINE",
"-250 1250 LINE",
"-125 1250 LINE",
"-125 0 LINE",
"0 0 LINE",
"0 -125 LINE",
"375 -125 LINE",
"375 250 LINE",
"250 250 LINE",
"250 375 LINE",
"375 375 LINE",
"375 1250 LINE",
"-125 1250 LINE",
"-125 1375 LINE",
"1000 1375 LINE",
"1000 1250 LINE",
"500 1250 LINE",
"500 375 LINE",
"625 375 LINE",
"625 250 LINE",
"500 250 LINE",
"500 -125 LINE",
"875 -125 LINE",
"875 0 LINE",
"1000 0 LINE",
"1000 1250 LINE",
"1125 1250 LINE",
"1125 -125 LINE",
"1000 -125 LINE",
"1000 -250 LINE"
);
}
);
width = 1250;
}
);
note = uni262E;
unicode = 262E;
},
{
glyphname = heavenTrigram;
layers = (
{
layerId = "FB18B4D0-91BB-452D-ABF9-2813DD21CA3B";
paths = (
{
closed = 1;
nodes = (
"0 0 LINE",
"0 125 LINE",
"625 125 LINE",
"625 0 LINE"
);
},
{
closed = 1;
nodes = (
"0 250 LINE",
"0 375 LINE",
"625 375 LINE",
"625 250 LINE"
);
},
{
closed = 1;
nodes = (
"0 500 LINE",
"0 625 LINE",
"625 625 LINE",
"625 500 LINE"
);
}
);
width = 750;
}
);
note = uni2630;
unicode = 2630;
},
{
glyphname = lakeTrigram;
layers = (
{
layerId = "FB18B4D0-91BB-452D-ABF9-2813DD21CA3B";
paths = (
{
closed = 1;
nodes = (
"0 0 LINE",
"0 125 LINE",
"625 125 LINE",
"625 0 LINE"
);
},
{
closed = 1;
nodes = (
"0 250 LINE",
"0 375 LINE",
"625 375 LINE",
"625 250 LINE"
);
},
{
closed = 1;
nodes = (
"0 500 LINE",
"0 625 LINE",
"250 625 LINE",
"250 500 LINE"
);
},
{
closed = 1;
nodes = (
"375 500 LINE",
"375 625 LINE",
"625 625 LINE",
"625 500 LINE"
);
}
);
width = 750;
}
);
note = uni2631;
unicode = 2631;
},
{
glyphname = fireTrigram;
layers = (
{
layerId = "FB18B4D0-91BB-452D-ABF9-2813DD21CA3B";
paths = (
{
closed = 1;
nodes = (
"0 0 LINE",
"0 125 LINE",
"625 125 LINE",
"625 0 LINE"
);
},
{
closed = 1;
nodes = (
"0 250 LINE",
"0 375 LINE",
"250 375 LINE",
"250 250 LINE"
);
},
{
closed = 1;
nodes = (
"375 250 LINE",
"375 375 LINE",
"625 375 LINE",
"625 250 LINE"
);
},
{
closed = 1;
nodes = (
"0 500 LINE",
"0 625 LINE",
"625 625 LINE",
"625 500 LINE"
);
}
);
width = 750;
}
);
note = uni2632;
unicode = 2632;
},
{
glyphname = thunderTrigram;
layers = (
{
layerId = "FB18B4D0-91BB-452D-ABF9-2813DD21CA3B";
paths = (
{
closed = 1;
nodes = (
"0 0 LINE",
"0 125 LINE",
"625 125 LINE",
"625 0 LINE"
);
},
{
closed = 1;
nodes = (
"0 250 LINE",
"0 375 LINE",
"250 375 LINE",
"250 250 LINE"
);
},
{
closed = 1;
nodes = (
"375 250 LINE",
"375 375 LINE",
"625 375 LINE",
"625 250 LINE"
);
},
{
closed = 1;
nodes = (
"0 500 LINE",
"0 625 LINE",
"250 625 LINE",
"250 500 LINE"
);
},
{
closed = 1;
nodes = (
"375 500 LINE",
"375 625 LINE",
"625 625 LINE",
"625 500 LINE"
);
}
);
width = 750;
}
);
note = uni2633;
unicode = 2633;
},
{
glyphname = windTrigram;
layers = (
{
layerId = "FB18B4D0-91BB-452D-ABF9-2813DD21CA3B";
paths = (
{
closed = 1;
nodes = (
"0 0 LINE",
"0 125 LINE",
"250 125 LINE",
"250 0 LINE"
);
},
{
closed = 1;
nodes = (
"375 0 LINE",
"375 125 LINE",
"625 125 LINE",
"625 0 LINE"
);
},
{
closed = 1;
nodes = (
"0 250 LINE",
"0 375 LINE",
"625 375 LINE",
"625 250 LINE"
);
},
{
closed = 1;
nodes = (
"0 500 LINE",
"0 625 LINE",
"625 625 LINE",
"625 500 LINE"
);
}
);
width = 750;
}
);
note = uni2634;
unicode = 2634;
},
{
glyphname = waterTrigram;
layers = (
{
layerId = "FB18B4D0-91BB-452D-ABF9-2813DD21CA3B";
paths = (
{
closed = 1;
nodes = (
"0 0 LINE",
"0 125 LINE",
"250 125 LINE",
"250 0 LINE"
);
},
{
closed = 1;
nodes = (
"375 0 LINE",
"375 125 LINE",
"625 125 LINE",
"625 0 LINE"
);
},
{
closed = 1;
nodes = (
"0 250 LINE",
"0 375 LINE",
"625 375 LINE",
"625 250 LINE"
);
},
{
closed = 1;
nodes = (
"0 500 LINE",
"0 625 LINE",
"250 625 LINE",
"250 500 LINE"
);
},
{
closed = 1;
nodes = (
"375 500 LINE",
"375 625 LINE",
"625 625 LINE",
"625 500 LINE"
);
}
);
width = 750;
}
);
note = uni2635;
unicode = 2635;
},
{
glyphname = mountainTrigram;
layers = (
{
layerId = "FB18B4D0-91BB-452D-ABF9-2813DD21CA3B";
paths = (
{
closed = 1;
nodes = (
"0 0 LINE",
"0 125 LINE",
"250 125 LINE",
"250 0 LINE"
);
},
{
closed = 1;
nodes = (
"375 0 LINE",
"375 125 LINE",
"625 125 LINE",
"625 0 LINE"
);
},
{
closed = 1;
nodes = (
"0 250 LINE",
"0 375 LINE",
"250 375 LINE",
"250 250 LINE"
);
},
{
closed = 1;
nodes = (
"375 250 LINE",
"375 375 LINE",
"625 375 LINE",
"625 250 LINE"
);
},
{
closed = 1;
nodes = (
"0 500 LINE",
"0 625 LINE",
"625 625 LINE",
"625 500 LINE"
);
}
);
width = 750;
}
);
note = uni2636;
unicode = 2636;
},
{
glyphname = earthTrigram;
layers = (
{
layerId = "FB18B4D0-91BB-452D-ABF9-2813DD21CA3B";
paths = (
{
closed = 1;
nodes = (
"0 0 LINE",
"0 125 LINE",
"250 125 LINE",
"250 0 LINE"
);
},
{
closed = 1;
nodes = (
"375 0 LINE",
"375 125 LINE",
"625 125 LINE",
"625 0 LINE"
);
},
{
closed = 1;
nodes = (
"0 250 LINE",
"0 375 LINE",
"250 375 LINE",
"250 250 LINE"
);
},
{
closed = 1;
nodes = (
"375 250 LINE",
"375 375 LINE",
"625 375 LINE",
"625 250 LINE"
);
},
{
closed = 1;
nodes = (
"0 500 LINE",
"0 625 LINE",
"250 625 LINE",
"250 500 LINE"
);
},
{
closed = 1;
nodes = (
"375 500 LINE",
"375 625 LINE",
"625 625 LINE",
"625 500 LINE"
);
}
);
width = 750;
}
);
note = uni2637;
unicode = 2637;
},
{
glyphname = whiteSmilingFace;
layers = (
{
layerId = "FB18B4D0-91BB-452D-ABF9-2813DD21CA3B";
paths = (
{
closed = 1;
nodes = (
"0 -250 LINE",
"0 -125 LINE",
"625 -125 LINE",
"625 -250 LINE"
);
},
{
closed = 1;
nodes = (
"250 0 LINE",
"250 125 LINE",
"375 125 LINE",
"375 0 LINE"
);
},
{
closed = 1;
nodes = (
"125 125 LINE",
"125 250 LINE",
"250 250 LINE",
"250 125 LINE"
);
},
{
closed = 1;
nodes = (
"375 125 LINE",
"375 250 LINE",
"500 250 LINE",
"500 125 LINE"
);
},
{
closed = 1;
nodes = (
"125 500 LINE",
"125 625 LINE",
"250 625 LINE",
"250 500 LINE"
);
},
{
closed = 1;
nodes = (
"375 500 LINE",
"375 625 LINE",
"500 625 LINE",
"500 500 LINE"
);
},
{
closed = 1;
nodes = (
"-125 -125 LINE",
"-125 750 LINE",
"0 750 LINE",
"0 -125 LINE"
);
},
{
closed = 1;
nodes = (
"625 -125 LINE",
"625 750 LINE",
"750 750 LINE",
"750 -125 LINE"
);
},
{
closed = 1;
nodes = (
"0 750 LINE",
"0 875 LINE",
"625 875 LINE",
"625 750 LINE"
);
}
);
width = 875;
}
);
note = smileface;
unicode = 263A;
},
{
glyphname = blackSmilingFace;
layers = (
{
layerId = "FB18B4D0-91BB-452D-ABF9-2813DD21CA3B";
paths = (
{
closed = 1;
nodes = (
"375 0 LINE",
"375 125 LINE",
"500 125 LINE",
"500 250 LINE",
"375 250 LINE",
"375 125 LINE",
"250 125 LINE",
"250 250 LINE",
"125 250 LINE",
"125 125 LINE",
"250 125 LINE",
"250 0 LINE"
);
},
{
closed = 1;
nodes = (
"250 500 LINE",
"250 625 LINE",
"125 625 LINE",
"125 500 LINE"
);
},
{
closed = 1;
nodes = (
"500 500 LINE",
"500 625 LINE",
"375 625 LINE",
"375 500 LINE"
);
},
{
closed = 1;
nodes = (
"0 -250 LINE",
"0 -125 LINE",
"-125 -125 LINE",
"-125 750 LINE",
"0 750 LINE",
"0 875 LINE",
"625 875 LINE",
"625 750 LINE",
"750 750 LINE",
"750 -125 LINE",
"625 -125 LINE",
"625 -250 LINE"
);
}
);
width = 875;
}
);
note = invsmileface;
unicode = 263B;
},
{
glyphname = at;
layers = (
{
layerId = "FB18B4D0-91BB-452D-ABF9-2813DD21CA3B";
paths = (
{
closed = 1;
nodes = (
"125 -375 LINE",
"125 -250 LINE",
"1375 -250 LINE",
"1375 -375 LINE"
);
},
{
closed = 1;
nodes = (
"375 0 LINE",
"375 125 LINE",
"750 125 LINE",
"750 0 LINE"
);
},
{
closed = 1;
nodes = (
"875 0 LINE",
"875 125 LINE",
"1125 125 LINE",
"1125 0 LINE"
);
},
{
closed = 1;
nodes = (
"250 125 LINE",
"250 375 LINE",
"375 375 LINE",
"375 125 LINE"
);
},
{
closed = 1;
nodes = (
"375 375 LINE",
"375 500 LINE",
"625 500 LINE",
"625 375 LINE"
);
},
{
closed = 1;
nodes = (
"250 625 LINE",
"250 750 LINE",
"375 750 LINE",
"375 625 LINE"
);
},
{
closed = 1;
nodes = (
"750 125 LINE",
"750 500 LINE",
"625 500 LINE",
"625 625 LINE",
"750 625 LINE",
"750 750 LINE",
"875 750 LINE",
"875 125 LINE"
);
},
{
closed = 1;
nodes = (
"375 750 LINE",
"375 875 LINE",
"750 875 LINE",
"750 750 LINE"
);
},
{
closed = 1;
nodes = (
"0 -250 LINE",
"0 1000 LINE",
"125 1000 LINE",
"125 -250 LINE"
);
},
{
closed = 1;
nodes = (
"1125 125 LINE",
"1125 1000 LINE",
"1250 1000 LINE",
"1250 125 LINE"
);
},
{
closed = 1;
nodes = (
"125 1000 LINE",
"125 1125 LINE",
"1125 1125 LINE",
"1125 1000 LINE"
);
}
);
width = 1500;
}
);
note = at;
unicode = 0040;
},
{
glyphname = ampersand;
layers = (
{
layerId = "FB18B4D0-91BB-452D-ABF9-2813DD21CA3B";
paths = (
{
closed = 1;
nodes = (
"125 0 LINE",
"125 125 LINE",
"500 125 LINE",
"500 0 LINE"
);
},
{
closed = 1;
nodes = (
"875 0 LINE",
"875 125 LINE",
"1000 125 LINE",
"1000 0 LINE"
);
},
{
closed = 1;
nodes = (
"500 125 LINE",
"500 250 LINE",
"625 250 LINE",
"625 125 LINE"
);
},
{
closed = 1;
nodes = (
"500 875 LINE",
"500 1000 LINE",
"625 1000 LINE",
"625 875 LINE"
);
},
{
closed = 1;
nodes = (
"125 1000 LINE",
"125 1125 LINE",
"500 1125 LINE",
"500 1000 LINE"
);
},
{
closed = 1;
nodes = (
"0 125 LINE",
"0 1000 LINE",
"125 1000 LINE",
"125 625 LINE",
"750 625 LINE",
"750 1125 LINE",
"875 1125 LINE",
"875 625 LINE",
"1000 625 LINE",
"1000 500 LINE",
"875 500 LINE",
"875 125 LINE",
"750 125 LINE",
"750 500 LINE",
"125 500 LINE",
"125 125 LINE"
);
}
);
width = 1125;
}
);
note = ampersand;
unicode = 0026;
},
{
glyphname = paragraph;
layers = (
{
layerId = "FB18B4D0-91BB-452D-ABF9-2813DD21CA3B";
paths = (
{
closed = 1;
nodes = (
"375 0 LINE",
"375 625 LINE",
"125 625 LINE",
"125 750 LINE",
"0 750 LINE",
"0 1000 LINE",
"125 1000 LINE",
"125 1125 LINE",
"750 1125 LINE",
"750 0 LINE",
"625 0 LINE",
"625 1000 LINE",
"500 1000 LINE",
"500 0 LINE"
);
}
);
width = 875;
}
);
note = paragraph;
unicode = 00B6;
},
{
glyphname = copyright;
layers = (
{
layerId = "FB18B4D0-91BB-452D-ABF9-2813DD21CA3B";
paths = (
{
closed = 1;
nodes = (
"125 0 LINE",
"125 125 LINE",
"875 125 LINE",
"875 0 LINE"
);
},
{
closed = 1;
nodes = (
"375 250 LINE",
"375 375 LINE",
"625 375 LINE",
"625 250 LINE"
);
},
{
closed = 1;
nodes = (
"625 375 LINE",
"625 500 LINE",
"750 500 LINE",
"750 375 LINE"
);
},
{
closed = 1;
nodes = (
"250 375 LINE",
"250 750 LINE",
"375 750 LINE",
"375 375 LINE"
);
},
{
closed = 1;
nodes = (
"625 625 LINE",
"625 750 LINE",
"750 750 LINE",
"750 625 LINE"
);
},
{
closed = 1;
nodes = (
"375 750 LINE",
"375 875 LINE",
"625 875 LINE",
"625 750 LINE"
);
},
{
closed = 1;
nodes = (
"0 125 LINE",
"0 1000 LINE",
"125 1000 LINE",
"125 125 LINE"
);
},
{
closed = 1;
nodes = (
"875 125 LINE",
"875 1000 LINE",
"1000 1000 LINE",
"1000 125 LINE"
);
},
{
closed = 1;
nodes = (
"125 1000 LINE",
"125 1125 LINE",
"875 1125 LINE",
"875 1000 LINE"
);
}
);
width = 1125;
}
);
note = copyright;
unicode = 00A9;
},
{
glyphname = registered;
layers = (
{
layerId = "FB18B4D0-91BB-452D-ABF9-2813DD21CA3B";
paths = (
{
closed = 1;
nodes = (
"125 375 LINE",
"125 500 LINE",
"625 500 LINE",
"625 375 LINE"
);
},
{
closed = 1;
nodes = (
"250 625 LINE",
"250 875 LINE",
"500 875 LINE",
"500 750 LINE",
"375 750 LINE",
"375 625 LINE"
);
},
{
closed = 1;
nodes = (
"0 500 LINE",
"0 1000 LINE",
"125 1000 LINE",
"125 500 LINE"
);
},
{
closed = 1;
nodes = (
"625 500 LINE",
"625 1000 LINE",
"750 1000 LINE",
"750 500 LINE"
);
},
{
closed = 1;
nodes = (
"125 1000 LINE",
"125 1125 LINE",
"625 1125 LINE",
"625 1000 LINE"
);
}
);
width = 875;
}
);
note = registered;
unicode = 00AE;
},
{
glyphname = trademark;
layers = (
{
layerId = "FB18B4D0-91BB-452D-ABF9-2813DD21CA3B";
paths = (
{
closed = 1;
nodes = (
"125 750 LINE",
"125 1000 LINE",
"0 1000 LINE",
"0 1125 LINE",
"375 1125 LINE",
"375 1000 LINE",
"250 1000 LINE",
"250 750 LINE"
);
},
{
closed = 1;
nodes = (
"500 750 LINE",
"500 1125 LINE",
"625 1125 LINE",
"625 1000 LINE",
"750 1000 LINE",
"750 1125 LINE",
"875 1125 LINE",
"875 750 LINE",
"750 750 LINE",
"750 875 LINE",
"625 875 LINE",
"625 750 LINE"
);
}
);
width = 1000;
}
);
note = trademark;
unicode = 2122;
},
{
glyphname = degree;
layers = (
{
layerId = "FB18B4D0-91BB-452D-ABF9-2813DD21CA3B";
paths = (
{
closed = 1;
nodes = (
"125 750 LINE",
"125 875 LINE",
"250 875 LINE",
"250 750 LINE"
);
},
{
closed = 1;
nodes = (
"0 875 LINE",
"0 1000 LINE",
"125 1000 LINE",
"125 875 LINE"
);
},
{
closed = 1;
nodes = (
"250 875 LINE",
"250 1000 LINE",
"375 1000 LINE",
"375 875 LINE"
);
},
{
closed = 1;
nodes = (
"125 1000 LINE",
"125 1125 LINE",
"250 1125 LINE",
"250 1000 LINE"
);
}
);
width = 500;
}
);
note = degree;
unicode = 00B0;
},
{
glyphname = minute;
layers = (
{
layerId = "FB18B4D0-91BB-452D-ABF9-2813DD21CA3B";
paths = (
{
closed = 1;
nodes = (
"0 750 LINE",
"0 875 LINE",
"125 875 LINE",
"125 750 LINE"
);
},
{
closed = 1;
nodes = (
"125 875 LINE",
"125 1000 LINE",
"250 1000 LINE",
"250 875 LINE"
);
},
{
closed = 1;
nodes = (
"250 1000 LINE",
"250 1125 LINE",
"375 1125 LINE",
"375 1000 LINE"
);
}
);
width = 500;
}
);
note = minute;
unicode = 2032;
},
{
glyphname = second;
layers = (
{
layerId = "FB18B4D0-91BB-452D-ABF9-2813DD21CA3B";
paths = (
{
closed = 1;
nodes = (
"0 750 LINE",
"0 875 LINE",
"125 875 LINE",
"125 750 LINE"
);
},
{
closed = 1;
nodes = (
"500 750 LINE",
"500 875 LINE",
"625 875 LINE",
"625 750 LINE"
);
},
{
closed = 1;
nodes = (
"125 875 LINE",
"125 1000 LINE",
"250 1000 LINE",
"250 875 LINE"
);
},
{
closed = 1;
nodes = (
"625 875 LINE",
"625 1000 LINE",
"750 1000 LINE",
"750 875 LINE"
);
},
{
closed = 1;
nodes = (
"250 1000 LINE",
"250 1125 LINE",
"375 1125 LINE",
"375 1000 LINE"
);
},
{
closed = 1;
nodes = (
"750 1000 LINE",
"750 1125 LINE",
"875 1125 LINE",
"875 1000 LINE"
);
}
);
width = 1000;
}
);
note = second;
unicode = 2033;
},
{
glyphname = bar;
layers = (
{
layerId = "FB18B4D0-91BB-452D-ABF9-2813DD21CA3B";
paths = (
{
closed = 1;
nodes = (
"0 -375 LINE",
"0 1375 LINE",
"125 1375 LINE",
"125 -375 LINE"
);
}
);
width = 250;
}
);
note = bar;
unicode = 007C;
},
{
glyphname = brokenbar;
layers = (
{
layerId = "FB18B4D0-91BB-452D-ABF9-2813DD21CA3B";
paths = (
{
closed = 1;
nodes = (
"0 0 LINE",
"0 500 LINE",
"125 500 LINE",
"125 0 LINE"
);
},
{
closed = 1;
nodes = (
"0 625 LINE",
"0 1125 LINE",
"125 1125 LINE",
"125 625 LINE"
);
}
);
width = 250;
}
);
note = brokenbar;
unicode = 00A6;
},
{
glyphname = dagger;
layers = (
{
layerId = "FB18B4D0-91BB-452D-ABF9-2813DD21CA3B";
paths = (
{
closed = 1;
nodes = (
"125 0 LINE",
"125 500 LINE",
"0 500 LINE",
"0 625 LINE",
"125 625 LINE",
"125 1125 LINE",
"250 1125 LINE",
"250 625 LINE",
"375 625 LINE",
"375 500 LINE",
"250 500 LINE",
"250 0 LINE"
);
}
);
width = 500;
}
);
note = dagger;
unicode = 2020;
},
{
glyphname = daggerdbl;
layers = (
{
layerId = "FB18B4D0-91BB-452D-ABF9-2813DD21CA3B";
paths = (
{
closed = 1;
nodes = (
"0 0 LINE",
"0 250 LINE",
"-125 250 LINE",
"-125 375 LINE",
"0 375 LINE",
"0 750 LINE",
"-125 750 LINE",
"-125 875 LINE",
"0 875 LINE",
"0 1125 LINE",
"125 1125 LINE",
"125 875 LINE",
"250 875 LINE",
"250 750 LINE",
"125 750 LINE",
"125 375 LINE",
"250 375 LINE",
"250 250 LINE",
"125 250 LINE",
"125 0 LINE"
);
}
);
width = 375;
}
);
note = daggerdbl;
unicode = 2021;
},
{
glyphname = blank;
layers = (
{
layerId = "FB18B4D0-91BB-452D-ABF9-2813DD21CA3B";
paths = (
{
closed = 1;
nodes = (
"0 0 LINE",
"0 250 LINE",
"125 250 LINE",
"125 125 LINE",
"750 125 LINE",
"750 250 LINE",
"875 250 LINE",
"875 0 LINE"
);
}
);
width = 1000;
}
);
note = uni2423;
unicode = 2423;
},
{
glyphname = cedi;
layers = (
{
layerId = "FB18B4D0-91BB-452D-ABF9-2813DD21CA3B";
paths = (
{
closed = 1;
nodes = (
"750 125 LINE",
"750 250 LINE",
"875 250 LINE",
"875 125 LINE"
);
},
{
closed = 1;
nodes = (
"0 125 LINE",
"0 1000 LINE",
"125 1000 LINE",
"125 125 LINE"
);
},
{
closed = 1;
nodes = (
"750 875 LINE",
"750 1000 LINE",
"875 1000 LINE",
"875 875 LINE"
);
},
{
closed = 1;
nodes = (
"375 -125 LINE",
"375 0 LINE",
"125 0 LINE",
"125 125 LINE",
"375 125 LINE",
"375 1000 LINE",
"125 1000 LINE",
"125 1125 LINE",
"375 1125 LINE",
"375 1250 LINE",
"500 1250 LINE",
"500 1125 LINE",
"750 1125 LINE",
"750 1000 LINE",
"500 1000 LINE",
"500 125 LINE",
"750 125 LINE",
"750 0 LINE",
"500 0 LINE",
"500 -125 LINE"
);
}
);
width = 1000;
}
);
note = uni20B5;
unicode = 20B5;
},
{
glyphname = cent;
layers = (
{
layerId = "FB18B4D0-91BB-452D-ABF9-2813DD21CA3B";
paths = (
{
closed = 1;
nodes = (
"500 250 LINE",
"500 375 LINE",
"625 375 LINE",
"625 250 LINE"
);
},
{
closed = 1;
nodes = (
"0 250 LINE",
"0 625 LINE",
"125 625 LINE",
"125 250 LINE"
);
},
{
closed = 1;
nodes = (
"500 500 LINE",
"500 625 LINE",
"625 625 LINE",
"625 500 LINE"
);
},
{
closed = 1;
nodes = (
"250 0 LINE",
"250 125 LINE",
"125 125 LINE",
"125 250 LINE",
"250 250 LINE",
"250 625 LINE",
"125 625 LINE",
"125 750 LINE",
"250 750 LINE",
"250 875 LINE",
"375 875 LINE",
"375 750 LINE",
"500 750 LINE",
"500 625 LINE",
"375 625 LINE",
"375 250 LINE",
"500 250 LINE",
"500 125 LINE",
"375 125 LINE",
"375 0 LINE"
);
}
);
width = 750;
}
);
note = cent;
unicode = 00A2;
},
{
glyphname = colonsign;
layers = (
{
layerId = "FB18B4D0-91BB-452D-ABF9-2813DD21CA3B";
paths = (
{
closed = 1;
nodes = (
"750 125 LINE",
"750 250 LINE",
"875 250 LINE",
"875 125 LINE"
);
},
{
closed = 1;
nodes = (
"125 -250 LINE",
"125 125 LINE",
"0 125 LINE",
"0 1000 LINE",
"125 1000 LINE",
"125 500 LINE",
"250 500 LINE",
"250 125 LINE",
"500 125 LINE",
"500 500 LINE",
"625 500 LINE",
"625 125 LINE",
"750 125 LINE",
"750 0 LINE",
"625 0 LINE",
"625 -250 LINE",
"500 -250 LINE",
"500 0 LINE",
"250 0 LINE",
"250 -250 LINE"
);
},
{
closed = 1;
nodes = (
"250 500 LINE",
"250 1000 LINE",
"125 1000 LINE",
"125 1125 LINE",
"250 1125 LINE",
"250 1250 LINE",
"375 1250 LINE",
"375 1125 LINE",
"625 1125 LINE",
"625 1250 LINE",
"750 1250 LINE",
"750 1000 LINE",
"875 1000 LINE",
"875 875 LINE",
"750 875 LINE",
"750 500 LINE",
"625 500 LINE",
"625 1000 LINE",
"375 1000 LINE",
"375 500 LINE"
);
}
);
width = 1000;
}
);
note = colonmonetary;
unicode = 20A1;
},
{
glyphname = cruzeiro;
layers = (
{
layerId = "FB18B4D0-91BB-452D-ABF9-2813DD21CA3B";
paths = (
{
closed = 1;
nodes = (
"625 125 LINE",
"625 250 LINE",
"750 250 LINE",
"750 125 LINE"
);
},
{
closed = 1;
nodes = (
"125 0 LINE",
"125 125 LINE",
"375 125 LINE",
"375 500 LINE",
"500 500 LINE",
"500 125 LINE",
"625 125 LINE",
"625 0 LINE"
);
},
{
closed = 1;
nodes = (
"500 500 LINE",
"500 625 LINE",
"750 625 LINE",
"750 500 LINE"
);
},
{
closed = 1;
nodes = (
"0 125 LINE",
"0 1000 LINE",
"125 1000 LINE",
"125 125 LINE"
);
},
{
closed = 1;
nodes = (
"625 875 LINE",
"625 1000 LINE",
"750 1000 LINE",
"750 875 LINE"
);
},
{
closed = 1;
nodes = (
"125 1000 LINE",
"125 1125 LINE",
"625 1125 LINE",
"625 1000 LINE"
);
}
);
width = 875;
}
);
note = uni20A2;
unicode = 20A2;
},
{
glyphname = currency;
layers = (
{
layerId = "FB18B4D0-91BB-452D-ABF9-2813DD21CA3B";
paths = (
{
closed = 1;
nodes = (
"0 125 LINE",
"0 250 LINE",
"125 250 LINE",
"125 125 LINE"
);
},
{
closed = 1;
nodes = (
"500 125 LINE",
"500 250 LINE",
"625 250 LINE",
"625 125 LINE"
);
},
{
closed = 1;
nodes = (
"375 375 LINE",
"375 500 LINE",
"250 500 LINE",
"250 375 LINE"
);
},
{
closed = 1;
nodes = (
"125 250 LINE",
"125 625 LINE",
"500 625 LINE",
"500 250 LINE"
);
},
{
closed = 1;
nodes = (
"0 625 LINE",
"0 750 LINE",
"125 750 LINE",
"125 625 LINE"
);
},
{
closed = 1;
nodes = (
"500 625 LINE",
"500 750 LINE",
"625 750 LINE",
"625 625 LINE"
);
}
);
width = 750;
}
);
note = currency;
unicode = 00A4;
},
{
glyphname = dollar;
layers = (
{
layerId = "FB18B4D0-91BB-452D-ABF9-2813DD21CA3B";
paths = (
{
closed = 1;
nodes = (
"500 125 LINE",
"500 375 LINE",
"625 375 LINE",
"625 125 LINE"
);
},
{
closed = 1;
nodes = (
"0 750 LINE",
"0 1000 LINE",
"125 1000 LINE",
"125 750 LINE"
);
},
{
closed = 1;
nodes = (
"250 -125 LINE",
"250 0 LINE",
"0 0 LINE",
"0 250 LINE",
"125 250 LINE",
"125 125 LINE",
"250 125 LINE",
"250 625 LINE",
"125 625 LINE",
"125 750 LINE",
"250 750 LINE",
"250 1000 LINE",
"125 1000 LINE",
"125 1125 LINE",
"250 1125 LINE",
"250 1250 LINE",
"375 1250 LINE",
"375 1125 LINE",
"625 1125 LINE",
"625 875 LINE",
"500 875 LINE",
"500 1000 LINE",
"375 1000 LINE",
"375 500 LINE",
"500 500 LINE",
"500 375 LINE",
"375 375 LINE",
"375 125 LINE",
"500 125 LINE",
"500 0 LINE",
"375 0 LINE",
"375 -125 LINE"
);
}
);
width = 750;
}
);
note = dollar;
unicode = 0024;
},
{
glyphname = euro;
layers = (
{
layerId = "FB18B4D0-91BB-452D-ABF9-2813DD21CA3B";
paths = (
{
closed = 1;
nodes = (
"125 0 LINE",
"125 125 LINE",
"625 125 LINE",
"625 0 LINE"
);
},
{
closed = 1;
nodes = (
"625 125 LINE",
"625 250 LINE",
"750 250 LINE",
"750 125 LINE"
);
},
{
closed = 1;
nodes = (
"0 125 LINE",
"0 375 LINE",
"-125 375 LINE",
"-125 500 LINE",
"0 500 LINE",
"0 625 LINE",
"-125 625 LINE",
"-125 750 LINE",
"0 750 LINE",
"0 1000 LINE",
"125 1000 LINE",
"125 750 LINE",
"375 750 LINE",
"375 625 LINE",
"125 625 LINE",
"125 500 LINE",
"375 500 LINE",
"375 375 LINE",
"125 375 LINE",
"125 125 LINE"
);
},
{
closed = 1;
nodes = (
"625 875 LINE",
"625 1000 LINE",
"750 1000 LINE",
"750 875 LINE"
);
},
{
closed = 1;
nodes = (
"125 1000 LINE",
"125 1125 LINE",
"625 1125 LINE",
"625 1000 LINE"
);
}
);
width = 875;
}
);
note = Euro;
unicode = 20AC;
},
{
glyphname = eurocurrency;
layers = (
{
layerId = "FB18B4D0-91BB-452D-ABF9-2813DD21CA3B";
paths = (
{
closed = 1;
nodes = (
"375 0 LINE",
"375 500 LINE",
"125 500 LINE",
"125 625 LINE",
"375 625 LINE",
"375 875 LINE",
"750 875 LINE",
"750 750 LINE",
"500 750 LINE",
"500 500 LINE",
"750 500 LINE",
"750 375 LINE",
"500 375 LINE",
"500 125 LINE",
"750 125 LINE",
"750 0 LINE"
);
},
{
closed = 1;
nodes = (
"0 625 LINE",
"0 1000 LINE",
"125 1000 LINE",
"125 625 LINE"
);
},
{
closed = 1;
nodes = (
"125 1000 LINE",
"125 1125 LINE",
"375 1125 LINE",
"375 1000 LINE"
);
}
);
width = 875;
}
);
note = uni20A0;
unicode = 20A0;
},
{
glyphname = franc;
layers = (
{
layerId = "FB18B4D0-91BB-452D-ABF9-2813DD21CA3B";
paths = (
{
closed = 1;
nodes = (
"125 0 LINE",
"125 125 LINE",
"0 125 LINE",
"0 250 LINE",
"125 250 LINE",
"125 1125 LINE",
"750 1125 LINE",
"750 1000 LINE",
"250 1000 LINE",
"250 625 LINE",
"625 625 LINE",
"625 500 LINE",
"250 500 LINE",
"250 250 LINE",
"500 250 LINE",
"500 125 LINE",
"250 125 LINE",
"250 0 LINE"
);
}
);
width = 875;
}
);
note = franc;
unicode = 20A3;
},
{
glyphname = kip;
layers = (
{
layerId = "FB18B4D0-91BB-452D-ABF9-2813DD21CA3B";
paths = (
{
closed = 1;
nodes = (
"625 0 LINE",
"625 125 LINE",
"750 125 LINE",
"750 0 LINE"
);
},
{
closed = 1;
nodes = (
"500 125 LINE",
"500 250 LINE",
"625 250 LINE",
"625 125 LINE"
);
},
{
closed = 1;
nodes = (
"375 250 LINE",
"375 375 LINE",
"500 375 LINE",
"500 250 LINE"
);
},
{
closed = 1;
nodes = (
"375 750 LINE",
"375 875 LINE",
"500 875 LINE",
"500 750 LINE"
);
},
{
closed = 1;
nodes = (
"500 875 LINE",
"500 1000 LINE",
"625 1000 LINE",
"625 875 LINE"
);
},
{
closed = 1;
nodes = (
"0 0 LINE",
"0 500 LINE",
"-125 500 LINE",
"-125 625 LINE",
"0 625 LINE",
"0 1125 LINE",
"125 1125 LINE",
"125 625 LINE",
"250 625 LINE",
"250 750 LINE",
"375 750 LINE",
"375 625 LINE",
"750 625 LINE",
"750 500 LINE",
"375 500 LINE",
"375 375 LINE",
"250 375 LINE",
"250 500 LINE",
"125 500 LINE",
"125 0 LINE"
);
},
{
closed = 1;
nodes = (
"625 1000 LINE",
"625 1125 LINE",
"750 1125 LINE",
"750 1000 LINE"
);
}
);
width = 875;
}
);
note = uni20AD;
unicode = 20AD;
},
{
glyphname = lira;
layers = (
{
layerId = "FB18B4D0-91BB-452D-ABF9-2813DD21CA3B";
paths = (
{
closed = 1;
nodes = (
"0 0 LINE",
"0 125 LINE",
"125 125 LINE",
"125 0 LINE"
);
},
{
closed = 1;
nodes = (
"250 0 LINE",
"250 125 LINE",
"750 125 LINE",
"750 0 LINE"
);
},
{
closed = 1;
nodes = (
"125 125 LINE",
"125 250 LINE",
"0 250 LINE",
"0 375 LINE",
"125 375 LINE",
"125 500 LINE",
"0 500 LINE",
"0 625 LINE",
"125 625 LINE",
"125 1000 LINE",
"250 1000 LINE",
"250 625 LINE",
"500 625 LINE",
"500 500 LINE",
"250 500 LINE",
"250 375 LINE",
"500 375 LINE",
"500 250 LINE",
"250 250 LINE",
"250 125 LINE"
);
},
{
closed = 1;
nodes = (
"625 875 LINE",
"625 1000 LINE",
"750 1000 LINE",
"750 875 LINE"
);
},
{
closed = 1;
nodes = (
"250 1000 LINE",
"250 1125 LINE",
"625 1125 LINE",
"625 1000 LINE"
);
}
);
width = 875;
}
);
note = lira;
unicode = 20A4;
},
{
glyphname = mill;
layers = (
{
layerId = "FB18B4D0-91BB-452D-ABF9-2813DD21CA3B";
paths = (
{
closed = 1;
nodes = (
"0 -375 LINE",
"0 -250 LINE",
"125 -250 LINE",
"125 -375 LINE"
);
},
{
closed = 1;
nodes = (
"125 -250 LINE",
"125 -125 LINE",
"250 -125 LINE",
"250 -250 LINE"
);
},
{
closed = 1;
nodes = (
"250 -125 LINE",
"250 0 LINE",
"375 0 LINE",
"375 -125 LINE"
);
},
{
closed = 1;
nodes = (
"1000 0 LINE",
"1000 500 LINE",
"1125 500 LINE",
"1125 0 LINE"
);
},
{
closed = 1;
nodes = (
"0 0 LINE",
"0 625 LINE",
"1000 625 LINE",
"1000 500 LINE",
"875 500 LINE",
"875 375 LINE",
"750 375 LINE",
"750 500 LINE",
"625 500 LINE",
"625 375 LINE",
"750 375 LINE",
"750 250 LINE",
"625 250 LINE",
"625 0 LINE",
"375 0 LINE",
"375 125 LINE",
"500 125 LINE",
"500 500 LINE",
"125 500 LINE",
"125 0 LINE"
);
},
{
closed = 1;
nodes = (
"1000 625 LINE",
"1000 750 LINE",
"1125 750 LINE",
"1125 625 LINE"
);
},
{
closed = 1;
nodes = (
"1125 750 LINE",
"1125 875 LINE",
"1250 875 LINE",
"1250 750 LINE"
);
},
{
closed = 1;
nodes = (
"1250 875 LINE",
"1250 1000 LINE",
"1375 1000 LINE",
"1375 875 LINE"
);
},
{
closed = 1;
nodes = (
"1375 1000 LINE",
"1375 1125 LINE",
"1500 1125 LINE",
"1500 1000 LINE"
);
}
);
width = 1625;
}
);
note = uni20A5;
unicode = 20A5;
},
